SplineFontDB: 3.0
FontName: Untitled1
FullName: Untitled1
FamilyName: Untitled1
Weight: Medium
Copyright: Created by Steve White,,, with FontForge 2.0 (http://fontforge.sf.net)
UComments: "2010-9-17: Created." 
Version: 001.000
ItalicAngle: 0
UnderlinePosition: -100
UnderlineWidth: 50
Ascent: 800
Descent: 200
LayerCount: 2
Layer: 0 0 "Back"  1
Layer: 1 0 "Fore"  0
NeedsXUIDChange: 1
XUID: [1021 226 1525113260 14048828]
OS2Version: 0
OS2_WeightWidthSlopeOnly: 0
OS2_UseTypoMetrics: 1
CreationTime: 1284751220
ModificationTime: 1284758872
OS2TypoAscent: 0
OS2TypoAOffset: 1
OS2TypoDescent: 0
OS2TypoDOffset: 1
OS2TypoLinegap: 0
OS2WinAscent: 0
OS2WinAOffset: 1
OS2WinDescent: 0
OS2WinDOffset: 1
HheadAscent: 0
HheadAOffset: 1
HheadDescent: 0
HheadDOffset: 1
OS2Vendor: 'PfEd'
Lookup: 4 0 0 "FreeSerif-'akhn' Akhand in Malay+AQEA-lam"  {"FreeSerif-'akhn' Akhand in Malay+AQEA-lam subtable"  } ['akhn' ('mlym' <'dflt' > ) ]
Lookup: 4 0 0 "FreeSerif-'half' Half Forms in Malay+AQEA-lam"  {"FreeSerif-'half' Half Forms in Malay+AQEA-lam subtable"  } ['half' ('mly2' <'dflt' > 'mlym' <'dflt' > ) ]
Lookup: 4 0 0 "FreeSerif-'haln' Halant Forms in Malay+AQEA-lam"  {"FreeSerif-'haln' Halant Forms in Malay+AQEA-lam subtable"  } ['haln' ('mlym' <'dflt' > ) ]
Lookup: 4 0 0 "FreeSerif-'blwf' Below Base Forms in Malay+AQEA-lam"  {"FreeSerif-'blwf' Below Base Forms in Malay+AQEA-lam subtable"  } ['blwf' ('mlym' <'dflt' > ) ]
Lookup: 4 0 0 "FreeSerif-'pstf' Post Base Forms in Malay+AQEA-lam"  {"FreeSerif-'pstf' Post Base Forms in Malay+AQEA-lam subtable"  } ['pstf' ('mlym' <'dflt' > ) ]
Lookup: 4 0 0 "FreeSerif-'pres' Pre Base Substitutions in Malay+AQEA-lam"  {"FreeSerif-'pres' Pre Base Substitutions in Malay+AQEA-lam subtable"  } ['pres' ('mlym' <'dflt' > ) ]
Lookup: 4 0 0 "FreeSerif-'blws' Below Base Substitutions in Malay+AQEA-lam"  {"FreeSerif-'blws' Below Base Substitutions in Malay+AQEA-lam subtable"  } ['blws' ('mlym' <'dflt' > ) ]

StartChar: anusvara_mal
Encoding: 3330 3330 0
Width: 417
Flags: HW
LayerCount: 2
Fore
SplineSet
208 328 m 4
 306 328 377 249 377 158 c 4
 377 66 306 -12 208 -12 c 4
 109 -12 38 66 38 158 c 4
 38 256 115 328 208 328 c 4
188 49 m 4
 252 49 302 100 302 163 c 132
 302 228 250 276 188 276 c 4
 125 276 73 227 73 163 c 132
 73 100 124 49 188 49 c 4
EndSplineSet
EndChar

StartChar: visarga_mal
Encoding: 3331 3331 1
Width: 221
Flags: HW
LayerCount: 2
Fore
SplineSet
111 428 m 128
 161 428 194 391 194 345 c 128
 194 298 159 262 111 262 c 128
 64 262 28 297 28 345 c 128
 28 391 63 428 111 428 c 128
111 174 m 128
 161 174 194 137 194 91 c 128
 194 44 159 8 111 8 c 128
 64 8 28 43 28 91 c 128
 28 138 63 174 111 174 c 128
58 344 m 0
 58 320 77 303 99 303 c 128
 121 303 140 320 140 344 c 0
 140 368 121 386 99 386 c 128
 77 386 58 368 58 344 c 0
99 49 m 128
 120 49 140 67 140 91 c 128
 140 114 120 132 99 132 c 128
 75 132 58 112 58 91 c 128
 58 69 75 49 99 49 c 128
EndSplineSet
EndChar

StartChar: a_mal
Encoding: 3333 3333 2
Width: 1055
Flags: HW
LayerCount: 2
Fore
SplineSet
1017 193 m 132
 1017 77 957 -10 866 -10 c 132
 792 -10 740 68 740 154 c 132
 740 239 800 315 900 330 c 5
 876 376 837 398 784 398 c 4
 739 398 671 373 671 318 c 6
 671 0 l 5
 587 0 l 5
 587 272 l 6
 587 343 522 398 454 398 c 6
 423 398 l 5
 467 376 488 345 488 303 c 132
 488 262 469 230 429 207 c 5
 480 192 505 162 505 116 c 4
 505 45 443 -10 374 -10 c 4
 265 -10 217 98 217 187 c 4
 217 271 248 338 311 388 c 5
 296 391 278 393 257 393 c 4
 136 393 85 284 85 186 c 4
 85 164 87 51 173 7 c 5
 140 -10 l 5
 73 25 38 109 38 200 c 4
 38 316 101 448 250 448 c 4
 298 448 335 440 362 425 c 5
 396 440 438 448 486 448 c 4
 565 448 619 421 650 366 c 5
 684 421 732 448 795 448 c 132
 922 448 1017 335 1017 193 c 132
915 299 m 5
 839 290 778 245 778 166 c 4
 778 131 801 52 861 52 c 132
 917 52 940 132 940 194 c 132
 940 231 931 266 915 299 c 5
351 46 m 4
 388 46 422 73 422 112 c 4
 422 157 382 180 340 180 c 6
 314 180 l 5
 314 214 l 5
 338 214 l 6
 379 214 417 250 417 287 c 132
 417 326 380 363 346 375 c 5
 280 342 249 258 249 189 c 132
 249 137 273 46 351 46 c 4
EndSplineSet
EndChar

StartChar: aa_mal
Encoding: 3334 3334 3
Width: 1195
Flags: HW
LayerCount: 2
Fore
SplineSet
906 -160 m 4
 860 -160 820 -151 786 -134 c 5
 803 -89 l 5
 825 -100 850 -105 877 -105 c 4
 997 -105 1097 14 1097 140 c 4
 1097 208 1058 280 996 300 c 5
 1010 265 1017 231 1017 200 c 4
 1017 75 957 -10 866 -10 c 132
 791 -10 740 68 740 154 c 132
 740 239 802 316 900 330 c 5
 876 376 837 398 784 398 c 4
 745 398 671 378 671 318 c 6
 671 0 l 5
 587 0 l 5
 587 272 l 6
 587 343 522 398 454 398 c 6
 423 398 l 5
 467 376 488 345 488 303 c 132
 488 262 469 230 429 207 c 5
 480 192 505 162 505 116 c 4
 505 47 445 -10 374 -10 c 4
 263 -10 217 98 217 187 c 4
 217 272 248 340 311 388 c 5
 295 391 277 393 257 393 c 4
 119 393 85 256 85 186 c 4
 85 165 87 51 173 7 c 5
 140 -10 l 5
 73 26 38 110 38 200 c 4
 38 349 124 448 252 448 c 132
 299 448 336 440 362 425 c 5
 398 440 439 448 486 448 c 4
 565 448 620 421 650 366 c 5
 684 421 731 448 792 448 c 4
 873 448 935 410 978 334 c 5
 1102 309 1154 200 1154 100 c 4
 1154 -66 1035 -160 906 -160 c 4
861 52 m 132
 918 52 940 132 940 195 c 132
 940 233 931 268 915 299 c 5
 839 291 778 243 778 166 c 4
 778 119 807 52 861 52 c 132
417 286 m 132
 417 326 378 362 346 375 c 5
 278 340 249 255 249 189 c 132
 249 139 272 46 351 46 c 4
 389 46 422 75 422 112 c 4
 422 157 393 180 339 180 c 6
 314 180 l 5
 314 214 l 5
 338 214 l 6
 379 214 417 249 417 286 c 132
EndSplineSet
EndChar

StartChar: i_mal
Encoding: 3335 3335 4
Width: 792
Flags: HW
LayerCount: 2
Fore
SplineSet
94 -44 m 132
 94 -61 107 -87 152 -87 c 6
 754 -87 l 5
 754 -160 l 5
 152 -160 l 6
 65 -160 40 -103 40 -64 c 132
 40 -20 74 34 152 34 c 6
 524 34 l 6
 644 34 674 142 674 212 c 132
 674 308 622 398 534 398 c 4
 485 398 446 370 446 320 c 6
 446 70 l 5
 362 70 l 5
 362 300 l 6
 362 360 303 393 236 393 c 132
 176 393 100 360 81 269 c 5
 86 267 l 5
 109 304 139 322 175 322 c 132
 255 322 291 257 291 196 c 132
 291 133 248 64 167 64 c 132
 90 64 38 139 38 228 c 4
 38 377 164 450 272 450 c 4
 341 450 398 421 428 370 c 5
 455 422 499 448 559 448 c 132
 691 448 753 325 753 216 c 132
 753 100 698 0 591 0 c 6
 152 0 l 6
 110 0 94 -27 94 -44 c 132
166 112 m 132
 205 112 225 153 225 196 c 132
 225 240 204 280 164 280 c 132
 116 280 105 229 105 198 c 132
 105 155 127 112 166 112 c 132
EndSplineSet
EndChar

StartChar: u_mal
Encoding: 3337 3337 6
Width: 570
Flags: HW
LayerCount: 2
Fore
SplineSet
38 223 m 4
 38 359 158 450 286 450 c 132
 418 450 536 355 536 221 c 132
 536 83 412 0 290 0 c 6
 160 0 l 6
 138 0 98 -9 98 -45 c 132
 98 -79 135 -87 160 -87 c 6
 536 -87 l 5
 536 -160 l 5
 160 -160 l 6
 102 -160 45 -131 45 -67 c 132
 45 15 109 36 265 36 c 4
 366 36 456 109 456 213 c 132
 456 314 375 400 273 400 c 4
 181 400 119 362 85 286 c 5
 90 282 l 5
 114 320 144 339 180 339 c 132
 259 339 295 273 295 209 c 132
 295 141 251 81 171 81 c 132
 91 81 38 144 38 223 c 4
167 129 m 132
 216 129 229 181 229 212 c 132
 229 242 216 296 166 296 c 132
 124 296 100 257 100 212 c 132
 100 172 122 129 167 129 c 132
EndSplineSet
EndChar

StartChar: vocalic_r_mal
Encoding: 3339 3339 8
Width: 676
Flags: HW
LayerCount: 2
Fore
SplineSet
300 325 m 128
 300 276 276 196 181 196 c 128
 142 196 110 217 85 258 c 1
 85 193 107 101 320 101 c 128
 553 101 588 191 588 258 c 1
 561 217 529 196 490 196 c 128
 395 196 371 278 371 325 c 128
 371 396 418 448 487 448 c 0
 587 448 633 352 633 268 c 0
 633 173 593 112 513 87 c 1
 593 71 633 32 633 -32 c 0
 633 -152 462 -182 337 -182 c 0
 164 -182 38 -134 38 -32 c 0
 38 30 78 69 157 85 c 1
 78 112 38 173 38 268 c 0
 38 355 87 448 184 448 c 0
 253 448 300 396 300 325 c 128
499 238 m 0
 543 238 560 288 560 322 c 128
 560 361 535 406 495 406 c 128
 448 406 437 353 437 326 c 0
 437 268 457 238 499 238 c 0
111 322 m 128
 111 295 124 238 173 238 c 0
 213 238 233 268 233 326 c 0
 233 354 222 406 177 406 c 128
 135 406 111 358 111 322 c 128
321 -138 m 128
 415 -138 556 -117 556 -34 c 0
 556 51 407 66 351 66 c 128
 238 66 115 46 115 -33 c 128
 115 -120 273 -138 321 -138 c 128
EndSplineSet
EndChar

StartChar: vocalic_l_mal
Encoding: 3340 3340 9
Width: 897
Flags: HW
LayerCount: 2
Fore
SplineSet
38 180 m 4
 38 322 138 446 273 446 c 132
 339 446 393 423 434 376 c 5
 478 423 537 446 608 446 c 132
 765 446 851 307 851 180 c 4
 851 91 800 -10 702 -10 c 132
 599 -10 558 103 558 170 c 132
 558 263 608 339 664 383 c 5
 644 395 619 400 588 400 c 132
 548 400 473 384 473 318 c 6
 473 0 l 5
 390 0 l 5
 390 276 l 6
 390 321 372 400 300 400 c 132
 270 400 245 395 225 383 c 5
 281 339 331 264 331 170 c 132
 331 101 289 -10 187 -10 c 132
 90 -10 38 91 38 180 c 4
686 52 m 132
 760 52 778 140 778 181 c 4
 778 256 750 316 692 362 c 5
 624 308 590 245 590 174 c 4
 590 121 620 52 686 52 c 132
203 52 m 132
 269 52 299 123 299 174 c 4
 299 246 265 309 196 362 c 5
 139 314 110 254 110 181 c 4
 110 124 138 52 203 52 c 132
EndSplineSet
EndChar

StartChar: e_mal
Encoding: 3342 3342 10
Width: 1008
Flags: HW
LayerCount: 2
Fore
SplineSet
205 297 m 132
 288 297 375 243 375 134 c 4
 375 95 363 62 339 34 c 5
 462 34 l 5
 462 82 l 6
 462 369 613 450 714 450 c 132
 838 450 966 346 966 135 c 4
 966 -12 914 -122 812 -194 c 5
 762 -174 l 5
 842 -105 883 -7 883 120 c 4
 883 332 769 394 694 394 c 132
 614 394 494 318 494 83 c 6
 494 34 l 5
 637 34 l 5
 637 324 l 5
 720 324 l 5
 720 -70 l 6
 720 -142 674 -194 606 -194 c 132
 520 -194 462 -120 462 0 c 5
 220 0 l 5
 220 7 l 5
 268 36 292 77 292 131 c 4
 292 200 243 234 189 234 c 132
 145 234 79 204 79 108 c 4
 79 65 98 29 128 15 c 5
 98 -10 l 5
 58 22 38 66 38 123 c 132
 38 262 142 297 205 297 c 132
574 -132 m 4
 612 -132 637 -102 637 -62 c 6
 637 0 l 5
 494 0 l 5
 494 -44 510 -132 574 -132 c 4
EndSplineSet
EndChar

StartChar: ee_mal
Encoding: 3343 3343 11
Width: 1008
Flags: HW
LayerCount: 2
Fore
SplineSet
462 82 m 6
 462 370 616 446 719 446 c 132
 866 446 948 337 948 245 c 132
 948 194 924 157 876 134 c 5
 937 119 968 54 968 -26 c 132
 968 -96 928 -192 833 -192 c 4
 815 -192 798 -188 780 -178 c 5
 770 -115 l 5
 783 -126 798 -131 816 -131 c 132
 853 -131 877 -87 877 -20 c 132
 877 29 854 110 786 110 c 6
 767 110 l 5
 767 154 l 5
 786 154 l 6
 831 154 855 195 855 245 c 4
 855 297 826 391 696 391 c 132
 615 391 494 323 494 77 c 6
 494 34 l 5
 637 34 l 5
 637 324 l 5
 720 324 l 5
 720 -70 l 6
 720 -146 669 -190 601 -190 c 132
 545 -190 462 -142 462 0 c 5
 220 0 l 5
 220 7 l 5
 268 36 292 77 292 131 c 4
 292 200 243 234 189 234 c 132
 145 234 79 204 79 108 c 4
 79 65 98 29 128 15 c 5
 98 -10 l 5
 58 22 38 66 38 123 c 132
 38 262 142 297 205 297 c 132
 288 297 375 243 375 134 c 4
 375 95 363 62 339 34 c 5
 462 34 l 5
 462 82 l 6
574 -132 m 132
 612 -132 637 -102 637 -62 c 6
 637 0 l 5
 494 0 l 5
 494 -77 526 -132 574 -132 c 132
EndSplineSet
EndChar

StartChar: o_mal
Encoding: 3346 3346 13
Width: 586
Flags: HW
LayerCount: 2
Fore
SplineSet
466 225 m 5
 512 209 546 167 546 112 c 4
 546 24 466 -10 416 -10 c 132
 384 -10 361 -7 348 0 c 5
 335 60 l 5
 348 46 365 39 387 39 c 132
 419 39 462 54 462 112 c 132
 462 145 445 204 375 204 c 6
 335 204 l 5
 335 244 l 5
 375 244 l 6
 414 244 435 274 435 307 c 4
 435 366 360 406 296 406 c 4
 219 406 93 379 74 192 c 5
 76 190 l 5
 105 237 141 261 184 261 c 4
 262 261 299 188 299 122 c 132
 299 71 275 -12 178 -12 c 132
 94 -12 38 85 38 188 c 4
 38 398 199 450 318 450 c 4
 427 450 534 389 534 315 c 132
 534 278 511 248 466 225 c 5
163 47 m 132
 208 47 234 86 234 129 c 132
 234 167 213 213 165 213 c 132
 137 213 91 196 91 130 c 132
 91 64 132 47 163 47 c 132
EndSplineSet
EndChar

StartChar: ka_mal
Encoding: 3349 3349 16
Width: 778
Flags: W
HStem: -10 49<137.419 224.39 315.021 422.725 561.619 644.257> 220 35<140.94 242 275 470 542 639.098> 393 55<317.035 426.1>
VStem: 38 72<66.988 195.981> 242 32<101.417 220 255 330.338> 470 72<98.5337 220 255 334.428> 668 72<63.1502 196.711>
LayerCount: 2
Fore
SplineSet
384 448 m 0
 507 448 534 306 538 255 c 1
 605 255 l 2
 694 255 740 193 740 123 c 0
 740 44 688 -10 631 -10 c 0
 601 -10 578 -4 561 9 c 1
 556 56 l 1
 573 45 586 40 596 40 c 0
 654 40 668 99 668 130 c 0
 668 216 617 220 542 220 c 1
 542 140 511 -10 389 -10 c 0
 333 -10 293 17 268 70 c 1
 247 17 216 -10 174 -10 c 0
 85 -10 38 61 38 134 c 0
 38 233 95 255 206 255 c 2
 242 255 l 1
 242 324 271 448 384 448 c 0
470 255 m 1
 470 299 450 393 370 393 c 0
 294 393 275 302 275 255 c 1
 470 255 l 1
274 182 m 0
 274 135 293 39 368 39 c 0
 409 39 470 66 470 220 c 1
 275 220 l 1
 274 211 274 199 274 182 c 0
110 140 m 0
 110 101 130 39 180 39 c 0
 221 39 242 71 242 135 c 2
 242 220 l 1
 209 220 l 2
 143 220 110 193 110 140 c 0
EndSplineSet
EndChar

StartChar: kha_mal
Encoding: 3350 3350 17
Width: 798
Flags: HW
LayerCount: 2
Fore
SplineSet
270 450 m 132
 387 450 503 375 503 225 c 132
 503 156 474 92 417 34 c 5
 676 34 l 5
 676 440 l 5
 759 440 l 5
 759 0 l 5
 319 0 l 5
 319 22 l 5
 414 88 421 182 421 212 c 4
 421 335 331 396 251 396 c 132
 223 396 90 387 69 192 c 5
 73 190 l 5
 103 238 137 262 174 262 c 132
 257 262 295 186 295 121 c 132
 295 67 270 -12 171 -12 c 132
 83 -12 38 74 38 173 c 4
 38 390 177 450 270 450 c 132
161 213 m 132
 133 213 87 196 87 130 c 132
 87 64 128 47 159 47 c 132
 202 47 230 84 230 129 c 132
 230 172 205 213 161 213 c 132
EndSplineSet
EndChar

StartChar: ga_mal
Encoding: 3351 3351 18
Width: 691
Flags: HW
LayerCount: 2
Fore
SplineSet
477 389 m 4
 438 389 381 358 381 225 c 6
 381 150 l 6
 381 42 302 -10 224 -10 c 4
 75 -10 38 132 38 216 c 4
 38 325 79 403 161 448 c 5
 184 423 l 5
 114 382 82 330 82 230 c 132
 82 137 127 50 215 50 c 4
 255 50 308 75 308 181 c 6
 308 264 l 6
 308 385 392 446 484 446 c 132
 586 446 649 350 649 239 c 132
 649 180 635 48 507 -12 c 5
 485 13 l 5
 591 60 605 169 605 217 c 132
 605 300 562 389 477 389 c 4
EndSplineSet
EndChar

StartChar: gha_mal
Encoding: 3352 3352 19
Width: 1095
Flags: HW
LayerCount: 2
Fore
SplineSet
437 249 m 6
 437 370 523 450 651 450 c 4
 782 450 848 360 850 179 c 6
 850 161 l 5
 520 161 l 5
 520 34 l 5
 974 34 l 5
 974 440 l 5
 1057 440 l 5
 1057 0 l 5
 437 0 l 5
 437 161 l 5
 198 161 l 5
 198 168 l 5
 247 197 272 236 272 284 c 4
 272 353 223 387 176 387 c 132
 139 387 82 359 82 267 c 132
 82 229 97 199 126 177 c 5
 97 150 l 5
 58 183 38 227 38 282 c 132
 38 415 131 448 193 448 c 132
 268 448 355 400 355 286 c 4
 355 252 343 221 318 194 c 5
 437 194 l 5
 437 249 l 6
672 404 m 132
 586 404 520 349 520 249 c 6
 520 194 l 5
 811 194 l 5
 811 215 l 6
 810 318 783 404 672 404 c 132
EndSplineSet
EndChar

StartChar: nga_mal
Encoding: 3353 3353 20
Width: 811
Flags: HW
LayerCount: 2
Fore
SplineSet
698 227 m 5
 742 208 773 169 773 119 c 4
 773 14 664 -12 607 -12 c 4
 580 -12 557 -8 536 0 c 5
 523 58 l 5
 541 42 565 34 596 34 c 4
 658 34 690 61 690 114 c 4
 690 161 637 196 583 196 c 6
 544 196 l 5
 544 240 l 5
 580 240 l 6
 663 240 681 289 681 321 c 132
 681 371 632 398 576 398 c 132
 521 398 465 371 465 320 c 6
 465 0 l 5
 382 0 l 5
 382 300 l 6
 382 356 315 394 255 394 c 4
 130 394 83 314 70 192 c 5
 74 190 l 5
 104 237 138 261 177 261 c 132
 272 261 296 174 296 124 c 132
 296 73 271 -12 170 -12 c 132
 83 -12 38 75 38 173 c 4
 38 387 180 450 289 450 c 132
 362 450 414 424 444 371 c 5
 477 423 527 448 596 448 c 4
 684 448 765 398 765 318 c 132
 765 279 743 249 698 227 c 5
156 47 m 132
 201 47 231 86 231 131 c 132
 231 174 206 213 162 213 c 132
 133 213 88 196 88 129 c 132
 88 58 129 47 156 47 c 132
EndSplineSet
EndChar

StartChar: cha_mal
Encoding: 3354 3354 21
Width: 728
Flags: HW
LayerCount: 2
Fore
SplineSet
286 296 m 132
 373 296 429 234 429 146 c 132
 429 102 411 65 374 34 c 5
 609 34 l 5
 609 440 l 5
 692 440 l 5
 692 0 l 5
 38 0 l 5
 38 34 l 5
 248 34 l 6
 317 34 347 95 347 140 c 132
 347 192 320 234 272 234 c 132
 218 234 193 187 193 159 c 132
 193 142 196 127 202 114 c 5
 158 114 l 5
 151 134 147 152 147 169 c 4
 147 233 195 296 286 296 c 132
EndSplineSet
EndChar

StartChar: chha_mal
Encoding: 3355 3355 22
Width: 963
Flags: HW
LayerCount: 2
Fore
SplineSet
263 296 m 132
 342 296 404 229 404 142 c 132
 404 99 388 63 354 34 c 5
 538 34 l 5
 498 90 478 151 478 218 c 132
 478 346 549 448 690 448 c 132
 834 448 929 314 929 193 c 132
 929 42 843 -10 785 -10 c 132
 721 -10 653 40 653 148 c 4
 653 236 690 310 764 371 c 5
 746 385 726 392 702 392 c 4
 584 392 523 293 523 196 c 4
 523 120 559 54 618 17 c 5
 618 0 l 5
 38 0 l 5
 38 34 l 5
 240 34 l 6
 292 34 320 90 320 139 c 132
 320 190 296 234 248 234 c 132
 206 234 166 207 166 150 c 4
 166 139 170 127 177 114 c 5
 134 114 l 5
 129 129 127 145 127 162 c 4
 127 254 190 296 263 296 c 132
773 52 m 132
 805 52 852 82 852 178 c 132
 852 280 817 330 793 349 c 5
 725 293 691 232 691 166 c 4
 691 92 733 52 773 52 c 132
EndSplineSet
EndChar

StartChar: ja_mal
Encoding: 3356 3356 23
Width: 704
Flags: W
HStem: -12 52<129.139 254.748 517.121 604.657> 122 34<523.008 599.492> 160 34<149.92 515.383> 205 37<88.1948 154.94> 345 35<109.519 154.345> 412 36<138.957 276.352 435.889 539.656>
VStem: 38 80<51.1998 135.704> 42 36<251.6 334.7> 162 60<246.25 340.997> 317 82<226 379.966> 474 38<47.9878 102.526> 578 90<245.665 374.375> 609 59<44.7868 115.375>
LayerCount: 2
Fore
SplineSet
42 300 m 4xfdf0
 42 397 134 448 241 448 c 4
 297 448 345 430 383 395 c 5
 405 430 440 448 488 448 c 4
 582 448 668 391 668 306 c 4xfdf0
 668 247 629 160 459 160 c 6
 218 160 l 6
 142 160 118 119 118 95 c 4
 118 61 141 40 178 40 c 4
 277 40 523 156 568 156 c 4
 641 156 668 104 668 69 c 4
 668 25 632 -12 575 -12 c 4
 517 -12 474 28 474 66 c 4
 474 78 478 90 486 102 c 5
 485 104 l 5
 473 98 440 87 422 78 c 4
 300 18 206 -12 142 -12 c 4
 78 -12 38 24 38 82 c 4xfee8
 38 127 84 194 224 194 c 6
 446 194 l 6
 540 194 578 261 578 313 c 4
 578 384 525 411 487 411 c 4
 450 411 399 387 399 312 c 6
 399 226 l 5
 317 226 l 5
 317 329 l 6
 317 379 270 412 197 412 c 4
 162 412 132 399 108 374 c 5
 110 371 l 5
 120 377 133 380 150 380 c 4
 179 380 222 349 222 297 c 4
 222 261 200 205 135 205 c 4
 78 205 42 245 42 300 c 4xfdf0
512 79 m 4
 512 54 536 39 563 39 c 4
 589 39 609 55 609 80 c 4xfce8
 609 105 587 122 562 122 c 4
 538 122 512 106 512 79 c 4
78 294 m 4xfde0
 78 271 93 242 120 242 c 4
 148 242 162 259 162 293 c 4
 162 328 148 345 120 345 c 4
 94 345 78 318 78 294 c 4xfde0
EndSplineSet
EndChar

StartChar: jha_mal
Encoding: 3357 3357 24
Width: 1245
Flags: HW
LayerCount: 2
Fore
SplineSet
1074 448 m 5
 1194 384 1207 268 1207 219 c 4
 1207 94 1132 -12 1016 -12 c 132
 958 -12 911 14 873 64 c 5
 843 14 800 -12 744 -12 c 4
 668 -12 584 49 584 162 c 6
 584 259 l 6
 584 329 548 398 463 398 c 4
 437 398 417 396 404 392 c 5
 459 346 513 273 513 173 c 132
 513 99 468 -10 364 -10 c 132
 262 -10 220 103 220 171 c 132
 220 263 269 337 324 381 c 5
 309 389 286 393 255 393 c 4
 137 393 84 294 84 196 c 4
 84 110 115 47 178 7 c 5
 145 -10 l 5
 74 41 38 115 38 211 c 4
 38 329 105 448 255 448 c 4
 299 448 337 438 370 419 c 5
 399 438 439 448 492 448 c 132
 608 448 654 360 654 274 c 6
 654 182 l 6
 654 61 720 38 754 38 c 132
 808 38 853 74 853 116 c 6
 853 440 l 5
 936 440 l 5
 936 165 l 6
 936 76 990 51 1026 51 c 4
 1113 51 1162 144 1162 226 c 132
 1162 321 1116 390 1046 423 c 5
 1074 448 l 5
347 52 m 132
 421 52 440 140 440 181 c 4
 440 254 411 315 353 364 c 5
 286 310 252 247 252 174 c 4
 252 123 281 52 347 52 c 132
EndSplineSet
EndChar

StartChar: nya_ml
Encoding: 3358 3358 25
Width: 1106
Flags: HW
LayerCount: 2
Fore
SplineSet
432 371 m 5
 474 449 580 450 597 450 c 132
 632 450 664 440 693 419 c 5
 730 438 771 448 817 448 c 4
 983 448 1067 321 1067 202 c 4
 1067 158 1054 56 943 -10 c 5
 895 7 l 5
 952 52 982 120 982 190 c 4
 982 298 916 406 785 406 c 4
 765 406 746 402 727 395 c 5
 800 334 836 262 836 180 c 4
 836 39 747 -8 688 -8 c 132
 630 -8 544 34 544 175 c 4
 544 257 587 336 648 381 c 5
 630 389 607 393 579 393 c 132
 540 393 464 372 464 300 c 6
 464 0 l 5
 381 0 l 5
 381 300 l 6
 381 356 314 394 254 394 c 4
 129 394 82 314 69 192 c 5
 73 190 l 5
 102 237 136 261 175 261 c 132
 263 261 296 182 296 121 c 132
 296 66 272 -12 175 -12 c 132
 87 -12 38 77 38 178 c 4
 38 374 163 450 293 450 c 4
 341 450 412 420 432 371 c 5
670 53 m 132
 708 53 764 81 764 181 c 4
 764 256 735 317 677 364 c 5
 609 313 575 250 575 174 c 4
 575 94 622 53 670 53 c 132
161 213 m 132
 127 213 87 191 87 131 c 132
 87 71 127 47 163 47 c 132
 207 47 230 86 230 128 c 132
 230 171 205 213 161 213 c 132
EndSplineSet
EndChar

StartChar: tta_mal
Encoding: 3359 3359 26
Width: 466
Flags: HW
LayerCount: 2
Fore
SplineSet
274 256 m 6
 398 256 430 186 430 140 c 4
 430 20 312 -10 250 -10 c 132
 124 -10 62 40 40 62 c 5
 65 91 l 5
 97 57 168 34 240 34 c 132
 291 34 366 51 366 116 c 4
 366 142 345 180 268 180 c 6
 171 180 l 6
 84 180 38 239 38 302 c 4
 38 419 156 448 219 448 c 4
 313 448 383 424 429 377 c 5
 402 350 l 5
 366 387 313 406 244 406 c 4
 174 406 105 380 105 316 c 4
 105 289 125 256 178 256 c 6
 274 256 l 6
EndSplineSet
EndChar

StartChar: ttha_mal
Encoding: 3360 3360 27
Width: 531
Flags: HW
LayerCount: 2
Fore
SplineSet
38 212 m 132
 38 338 119 448 258 448 c 132
 387 448 491 357 491 220 c 132
 491 82 386 -10 262 -10 c 132
 135 -10 38 79 38 212 c 132
69 220 m 132
 69 125 145 46 239 46 c 132
 334 46 407 121 407 215 c 132
 407 306 338 387 239 387 c 132
 145 387 69 318 69 220 c 132
EndSplineSet
EndChar

StartChar: dda_mal
Encoding: 3361 3361 28
Width: 984
Flags: HW
LayerCount: 2
Fore
SplineSet
471 -12 m 4
 393 -12 303 51 303 170 c 6
 303 256 l 6
 303 365 251 389 217 389 c 4
 155 389 82 319 82 216 c 132
 82 170 91 64 193 14 c 5
 172 -10 l 5
 52 51 38 175 38 224 c 4
 38 384 149 450 221 450 c 132
 282 450 373 416 373 265 c 6
 373 188 l 6
 373 66 445 37 485 37 c 132
 543 37 590 69 590 116 c 6
 590 440 l 5
 673 440 l 5
 673 165 l 6
 673 73 724 50 759 50 c 4
 815 50 899 109 899 236 c 4
 899 321 851 392 788 423 c 5
 815 448 l 5
 932 386 945 269 945 223 c 4
 945 80 850 -12 747 -12 c 132
 693 -12 647 14 609 64 c 5
 575 14 529 -12 471 -12 c 4
EndSplineSet
EndChar

StartChar: ddha_mal
Encoding: 3362 3362 29
Width: 1028
Flags: HW
LayerCount: 2
Fore
SplineSet
857 450 m 4
 946 450 989 353 989 254 c 4
 989 146 932 -14 777 -14 c 132
 711 -14 656 13 611 66 c 5
 575 14 528 -12 472 -12 c 4
 394 -12 302 47 302 180 c 6
 302 249 l 6
 302 364 250 389 216 389 c 4
 130 389 83 291 83 210 c 132
 83 163 93 64 193 14 c 5
 172 -10 l 5
 52 52 38 176 38 223 c 4
 38 339 105 450 227 450 c 4
 285 450 373 414 373 264 c 6
 373 192 l 6
 373 66 442 37 482 37 c 132
 541 37 585 74 585 120 c 6
 585 440 l 5
 668 440 l 5
 668 161 l 6
 668 87 730 38 807 38 c 132
 867 38 957 84 957 251 c 5
 926 195 901 179 845 179 c 132
 782 179 739 247 739 320 c 132
 739 400 796 450 857 450 c 4
873 398 m 132
 838 398 804 370 804 316 c 132
 804 270 825 228 871 228 c 132
 915 228 943 262 943 312 c 132
 943 367 907 398 873 398 c 132
EndSplineSet
EndChar

StartChar: nna_mal
Encoding: 3363 3363 30
Width: 1102
Flags: HW
LayerCount: 2
Fore
SplineSet
857 450 m 132
 949 450 1061 374 1061 219 c 4
 1061 161 1040 44 917 -10 c 5
 874 11 l 5
 945 53 978 133 978 215 c 4
 978 357 897 398 844 398 c 4
 794 398 754 366 754 318 c 6
 754 0 l 5
 671 0 l 5
 671 276 l 6
 671 346 617 393 565 393 c 132
 513 393 465 370 465 322 c 6
 465 0 l 5
 382 0 l 5
 382 300 l 6
 382 356 315 394 255 394 c 4
 130 394 83 314 70 192 c 5
 74 190 l 5
 103 237 138 261 181 261 c 4
 239 261 297 208 297 120 c 132
 297 31 234 -12 176 -12 c 4
 86 -12 38 77 38 176 c 4
 38 359 150 450 290 450 c 132
 364 450 416 424 446 371 c 5
 478 423 524 448 582 448 c 4
 652 448 703 424 734 376 c 5
 762 425 803 450 857 450 c 132
157 47 m 132
 188 47 231 69 231 128 c 132
 231 186 193 213 159 213 c 132
 131 213 88 193 88 130 c 132
 88 65 129 47 157 47 c 132
EndSplineSet
EndChar

StartChar: ta_mal
Encoding: 3364 3364 31
Width: 780
Flags: HW
LayerCount: 2
Fore
SplineSet
38 211 m 4
 38 358 140 450 256 450 c 4
 294 450 332 440 370 419 c 5
 403 440 441 450 483 450 c 4
 655 450 742 317 742 198 c 4
 742 104 689 31 620 -10 c 5
 570 7 l 5
 628 52 656 111 656 186 c 4
 656 288 594 408 461 408 c 4
 441 408 421 404 402 395 c 5
 456 350 513 273 513 180 c 4
 513 39 424 -8 364 -8 c 132
 303 -8 220 37 220 175 c 4
 220 263 270 338 324 381 c 5
 300 393 276 398 255 398 c 4
 160 398 84 303 84 196 c 4
 84 112 115 49 178 7 c 5
 145 -10 l 5
 74 41 38 115 38 211 c 4
346 53 m 132
 383 53 440 83 440 181 c 4
 440 254 411 315 353 364 c 5
 286 310 252 247 252 174 c 4
 252 83 308 53 346 53 c 132
EndSplineSet
EndChar

StartChar: tha_mal
Encoding: 3365 3365 32
Width: 732
Flags: HW
LayerCount: 2
Fore
SplineSet
287 260 m 6
 287 391 388 450 486 450 c 132
 577 450 693 389 693 230 c 6
 693 0 l 5
 38 0 l 5
 38 440 l 5
 122 440 l 5
 122 34 l 5
 287 34 l 5
 287 260 l 6
515 398 m 132
 443 398 369 347 369 240 c 6
 369 34 l 5
 661 34 l 5
 661 219 l 6
 661 358 573 398 515 398 c 132
EndSplineSet
EndChar

StartChar: da_mal
Encoding: 3366 3366 33
Width: 485
Flags: HW
LayerCount: 2
Fore
SplineSet
365 227 m 5
 422 207 445 165 445 124 c 4
 445 57 381 -16 266 -16 c 4
 244 -16 221 -11 197 -2 c 5
 191 53 l 5
 207 39 231 32 263 32 c 132
 329 32 367 64 367 108 c 132
 367 146 331 196 245 196 c 6
 201 196 l 5
 201 240 l 5
 243 240 l 6
 334 240 357 285 357 315 c 132
 357 353 320 398 245 398 c 4
 181 398 75 354 75 175 c 4
 75 125 85 67 105 0 c 5
 65 -10 l 5
 47 64 38 128 38 180 c 4
 38 389 175 448 259 448 c 132
 392 448 441 371 441 320 c 4
 441 278 416 247 365 227 c 5
EndSplineSet
EndChar

StartChar: dha_mal
Encoding: 3367 3367 34
Width: 737
Flags: HW
LayerCount: 2
Fore
SplineSet
569 448 m 5
 649 405 697 320 697 221 c 4
 697 60 594 -12 507 -12 c 4
 443 -12 395 14 363 64 c 5
 334 11 275 -12 228 -12 c 4
 138 -12 38 74 38 219 c 4
 38 320 90 406 176 448 c 5
 211 418 l 5
 149 373 121 289 121 216 c 4
 121 79 192 39 239 39 c 132
 298 39 344 75 344 127 c 6
 344 440 l 5
 427 440 l 5
 427 165 l 6
 427 75 482 51 519 51 c 4
 573 51 653 99 653 234 c 4
 653 314 615 388 542 423 c 5
 569 448 l 5
EndSplineSet
EndChar

StartChar: na_mal
Encoding: 3368 3368 35
Width: 747
Flags: HW
LayerCount: 2
Fore
SplineSet
508 450 m 132
 641 450 705 330 705 218 c 4
 705 124 654 33 563 -10 c 5
 529 21 l 5
 592 62 624 129 624 223 c 4
 624 317 577 398 489 398 c 4
 439 398 399 366 399 318 c 6
 399 0 l 5
 317 0 l 5
 317 276 l 6
 317 356 262 387 218 387 c 4
 131 387 81 302 81 215 c 132
 81 167 92 62 193 16 c 5
 165 -10 l 5
 49 53 38 171 38 217 c 4
 38 338 111 450 238 450 c 4
 296 450 355 420 373 375 c 5
 402 425 447 450 508 450 c 132
EndSplineSet
EndChar

StartChar: pa_mal
Encoding: 3370 3370 36
Width: 780
Flags: HW
LayerCount: 2
Fore
SplineSet
214 297 m 132
 320 297 386 212 386 138 c 132
 386 98 373 63 348 34 c 5
 660 34 l 5
 660 440 l 5
 744 440 l 5
 744 0 l 5
 229 0 l 5
 229 12 l 5
 277 42 301 83 301 134 c 4
 301 187 267 234 200 234 c 132
 150 234 85 204 85 111 c 132
 85 71 102 39 137 15 c 5
 107 -10 l 5
 61 25 38 70 38 125 c 132
 38 262 149 297 214 297 c 132
EndSplineSet
EndChar

StartChar: pha_mal
Encoding: 3371 3371 37
Width: 962
Flags: HW
LayerCount: 2
Fore
SplineSet
720 450 m 132
 812 450 926 389 926 234 c 6
 926 0 l 5
 229 0 l 5
 229 7 l 5
 277 37 301 79 301 131 c 4
 301 203 249 234 197 234 c 132
 152 234 85 204 85 111 c 132
 85 71 102 39 137 15 c 5
 107 -10 l 5
 61 25 38 70 38 125 c 132
 38 252 136 296 212 296 c 132
 296 296 385 245 385 132 c 4
 385 95 373 63 348 34 c 5
 520 34 l 5
 520 260 l 6
 520 389 622 450 720 450 c 132
745 396 m 132
 663 396 603 334 603 240 c 6
 603 34 l 5
 894 34 l 5
 894 194 l 6
 894 348 804 396 745 396 c 132
EndSplineSet
EndChar

StartChar: pba_mal
Encoding: 3372 3372 38
Width: 1023
Flags: HW
LayerCount: 2
Fore
SplineSet
761 238 m 4
 761 165 735 88 676 38 c 5
 678 34 l 5
 914 34 l 5
 914 440 l 5
 986 440 l 5
 986 0 l 5
 584 0 l 5
 584 24 l 5
 651 65 682 159 682 238 c 132
 682 303 656 398 552 398 c 4
 500 398 454 368 454 320 c 6
 454 0 l 5
 372 0 l 5
 372 300 l 6
 372 356 313 394 254 394 c 4
 130 394 83 313 70 192 c 5
 74 190 l 5
 103 238 138 262 178 262 c 4
 256 262 286 179 286 121 c 132
 286 66 263 -12 171 -12 c 132
 91 -12 38 72 38 177 c 4
 38 330 134 450 278 450 c 4
 357 450 401 413 437 370 c 5
 467 415 520 448 576 448 c 4
 723 448 761 319 761 238 c 4
156 214 m 132
 129 214 88 196 88 130 c 132
 88 68 127 47 157 47 c 132
 199 47 222 86 222 128 c 132
 222 172 196 214 156 214 c 132
EndSplineSet
EndChar

StartChar: bha_mal
Encoding: 3373 3373 39
Width: 500
Flags: HW
LayerCount: 2
Fore
SplineSet
225 208 m 132
 225 192 238 169 302 169 c 6
 361 172 l 6
 418 172 460 136 460 85 c 132
 460 46 418 -12 298 -12 c 132
 247 -12 197 -6 148 6 c 5
 139 53 l 5
 179 42 223 34 262 34 c 132
 354 34 376 63 376 82 c 132
 376 107 355 123 329 126 c 132
 278 133 141 125 141 211 c 132
 141 249 177 288 235 288 c 6
 334 278 l 6
 357 278 377 296 377 318 c 4
 377 346 349 400 243 400 c 132
 176 400 75 355 75 174 c 4
 75 131 86 73 106 -1 c 5
 64 -10 l 5
 46 74 38 138 38 181 c 4
 38 406 181 450 262 450 c 132
 402 450 460 367 460 310 c 4
 460 272 431 234 377 234 c 4
 349 234 320 249 283 249 c 132
 255 249 225 231 225 208 c 132
EndSplineSet
EndChar

StartChar: ma_mal
Encoding: 3374 3374 40
Width: 511
Flags: W
HStem: 0 34<149 405> 408 42<254 335.548>
VStem: 38 42<34 313.614> 251 72<204.797 361.038> 405 67<34 312.501>
LayerCount: 2
Fore
SplineSet
248 450 m 4
 398 450 472 345 472 182 c 6
 472 0 l 5
 38 0 l 5
 38 156 l 6
 38 330 87 450 248 450 c 4
405 34 m 5
 405 194 l 6
 405 383 330 408 254 408 c 5
 300 376 323 336 323 288 c 4
 323 230 301 158 149 34 c 5
 405 34 l 5
251 304 m 4
 251 339 237 388 181 388 c 4
 114 388 80 314 80 167 c 6
 80 34 l 5
 194 116 251 205 251 304 c 4
EndSplineSet
EndChar

StartChar: ya_mal
Encoding: 3375 3375 41
Width: 792
Flags: HW
LayerCount: 2
Fore
SplineSet
504 34 m 4
 636 34 699 141 699 247 c 4
 699 321 674 379 624 423 c 5
 661 448 l 5
 720 396 749 329 749 247 c 4
 749 118 663 -10 501 -10 c 4
 464 -10 437 -6 419 3 c 5
 388 -6 356 -10 321 -10 c 4
 95 -10 38 162 38 254 c 4
 38 359 96 448 194 448 c 132
 243 448 282 420 312 362 c 5
 355 420 405 448 460 448 c 4
 552 448 609 355 609 274 c 4
 609 169 563 91 470 40 c 5
 481 36 493 34 504 34 c 4
425 58 m 5
 492 91 527 166 527 242 c 132
 527 297 507 393 428 393 c 132
 347 393 319 303 319 247 c 132
 319 173 358 94 425 58 c 5
171 387 m 132
 112 387 83 317 83 250 c 4
 83 170 128 34 313 34 c 4
 339 34 358 36 371 40 c 5
 300 79 254 180 254 248 c 132
 254 297 237 387 171 387 c 132
EndSplineSet
EndChar

StartChar: ra_mal
Encoding: 3376 3376 42
Width: 530
Flags: HW
LayerCount: 2
Fore
SplineSet
255 452 m 132
 372 452 491 373 491 196 c 4
 491 36 407 -10 352 -10 c 132
 280 -10 214 47 214 148 c 4
 214 235 251 309 325 371 c 5
 302 389 278 398 251 398 c 4
 147 398 87 297 87 185 c 4
 87 111 116 53 174 10 c 5
 151 -12 l 5
 76 36 38 110 38 210 c 4
 38 334 113 452 255 452 c 132
339 52 m 132
 380 52 414 95 414 178 c 132
 414 232 403 314 355 349 c 5
 287 293 253 232 253 166 c 4
 253 95 300 52 339 52 c 132
EndSplineSet
EndChar

StartChar: rra_mal
Encoding: 3377 3377 43
Width: 512
Flags: HW
LayerCount: 2
Fore
SplineSet
262 448 m 132
 365 448 474 382 474 220 c 4
 474 124 420 26 322 -10 c 5
 294 30 l 5
 381 72 392 163 392 198 c 4
 392 322 306 366 238 366 c 132
 166 366 82 316 82 196 c 4
 82 150 97 57 192 17 c 5
 175 -10 l 5
 86 34 38 118 38 212 c 4
 38 377 162 448 262 448 c 132
EndSplineSet
EndChar

StartChar: la_mal
Encoding: 3378 3378 44
Width: 712
Flags: HW
LayerCount: 2
Fore
SplineSet
38 208 m 6
 38 394 162 448 245 448 c 132
 341 448 456 379 456 208 c 6
 456 161 l 5
 122 161 l 5
 122 34 l 5
 590 34 l 5
 590 440 l 5
 673 440 l 5
 673 0 l 5
 38 0 l 5
 38 208 l 6
272 400 m 132
 199 400 122 352 122 249 c 6
 122 194 l 5
 418 194 l 5
 418 232 l 6
 418 367 327 400 272 400 c 132
EndSplineSet
EndChar

StartChar: lla_mal
Encoding: 3379 3379 45
Width: 556
Flags: HW
LayerCount: 2
Fore
SplineSet
89 -64 m 132
 89 -98 125 -106 147 -106 c 6
 520 -106 l 5
 520 -180 l 5
 147 -180 l 6
 85 -180 38 -145 38 -83 c 132
 38 -20 86 24 147 24 c 6
 324 24 l 6
 370 24 433 50 433 103 c 132
 433 156 375 170 336 170 c 5
 336 223 l 5
 380 223 432 250 432 306 c 4
 432 381 342 400 277 400 c 132
 203 400 104 361 80 267 c 5
 86 264 l 5
 110 301 139 320 175 320 c 132
 253 320 291 257 291 190 c 132
 291 123 247 62 167 62 c 132
 87 62 38 143 38 221 c 4
 38 372 158 448 297 448 c 4
 378 448 520 404 520 300 c 4
 520 259 495 224 446 196 c 5
 495 177 520 146 520 102 c 4
 520 24 442 -20 374 -20 c 6
 147 -20 l 6
 121 -20 89 -33 89 -64 c 132
165 110 m 132
 213 110 225 165 225 193 c 132
 225 230 205 276 163 276 c 132
 116 276 105 221 105 195 c 132
 105 168 117 110 165 110 c 132
EndSplineSet
EndChar

StartChar: llla_mal
Encoding: 3380 3380 46
Width: 519
Flags: HW
LayerCount: 2
Fore
SplineSet
334 448 m 132
 416 448 480 379 480 303 c 132
 480 235 440 164 325 133 c 5
 332 115 335 99 335 86 c 4
 335 30 291 -8 220 -8 c 4
 155 -8 109 15 84 62 c 5
 109 88 l 5
 120 45 165 34 195 34 c 132
 244 34 257 70 257 89 c 132
 257 103 255 116 251 127 c 5
 113 127 38 220 38 318 c 132
 38 371 63 415 113 450 c 5
 149 416 l 5
 127 387 115 353 115 312 c 132
 115 240 155 161 243 161 c 5
 214 203 199 250 199 299 c 132
 199 418 274 448 334 448 c 132
313 163 m 5
 408 183 435 251 435 295 c 132
 435 353 402 394 354 394 c 132
 320 394 273 372 273 298 c 4
 273 247 286 202 313 163 c 5
EndSplineSet
EndChar

StartChar: va_mal
Encoding: 3381 3381 47
Width: 716
Flags: HW
LayerCount: 2
Fore
SplineSet
251 448 m 132
 365 448 474 378 474 228 c 132
 474 159 446 94 391 34 c 5
 595 34 l 5
 595 440 l 5
 678 440 l 5
 678 0 l 5
 284 0 l 5
 284 20 l 5
 355 71 391 130 391 196 c 4
 391 315 310 368 231 368 c 132
 132 368 81 278 81 204 c 132
 81 116 121 53 182 22 c 5
 165 -10 l 5
 50 54 38 173 38 215 c 4
 38 339 118 448 251 448 c 132
EndSplineSet
EndChar

StartChar: sha_mal
Encoding: 3382 3382 48
Width: 786
Flags: HW
LayerCount: 2
Fore
SplineSet
308 256 m 6
 308 386 395 450 507 450 c 132
 602 450 747 376 747 187 c 4
 747 80 691 -10 608 -10 c 132
 535 -10 466 43 466 148 c 4
 466 238 506 314 586 377 c 5
 559 400 530 411 499 411 c 132
 442 411 381 346 381 244 c 6
 381 171 l 6
 381 43 294 -10 215 -10 c 132
 144 -10 38 46 38 212 c 4
 38 320 94 408 181 448 c 5
 203 423 l 5
 97 378 82 271 82 216 c 132
 82 108 157 49 209 49 c 132
 248 49 308 70 308 188 c 6
 308 256 l 6
594 52 m 132
 649 52 669 114 669 174 c 132
 669 247 645 322 611 354 c 5
 540 296 504 234 504 166 c 4
 504 98 548 52 594 52 c 132
EndSplineSet
EndChar

StartChar: ssa_mal
Encoding: 3383 3383 49
Width: 921
Flags: HW
LayerCount: 2
Fore
SplineSet
622 215 m 5
 712 241 829 347 859 440 c 5
 885 440 l 5
 885 0 l 5
 229 0 l 5
 229 7 l 5
 277 37 301 79 301 131 c 4
 301 203 249 234 197 234 c 132
 152 234 85 204 85 111 c 132
 85 71 102 39 137 15 c 5
 107 -10 l 5
 61 25 38 70 38 125 c 132
 38 252 136 296 212 296 c 132
 296 296 385 245 385 132 c 4
 385 95 373 63 348 34 c 5
 540 34 l 5
 540 178 l 5
 452 178 381 248 381 322 c 132
 381 406 451 448 501 448 c 4
 567 448 624 425 624 282 c 4
 624 262 622 228 622 215 c 5
806 312 m 5
 779 278 703 202 622 184 c 5
 622 34 l 5
 806 34 l 5
 806 312 l 5
485 393 m 4
 444 393 433 345 433 320 c 4
 433 261 480 217 540 212 c 5
 540 331 l 6
 540 372 522 393 485 393 c 4
EndSplineSet
EndChar

StartChar: sa_mal
Encoding: 3384 3384 50
Width: 977
Flags: HW
LayerCount: 2
Fore
SplineSet
897 221 m 132
 897 271 882 382 776 429 c 5
 803 452 l 5
 930 391 943 261 943 202 c 132
 943 101 891 -6 769 -6 c 4
 688 -6 600 52 600 168 c 6
 600 242 l 6
 600 370 535 404 491 404 c 132
 436 404 389 369 389 322 c 6
 389 4 l 5
 305 4 l 5
 305 280 l 6
 305 374 247 393 209 393 c 132
 160 393 81 339 81 229 c 4
 81 125 120 55 196 20 c 5
 169 -6 l 5
 82 41 38 122 38 238 c 4
 38 382 136 454 232 454 c 132
 286 454 332 429 369 380 c 5
 402 428 446 452 503 452 c 4
 586 452 671 390 671 282 c 6
 671 196 l 6
 671 90 735 55 778 55 c 4
 856 55 897 134 897 221 c 132
EndSplineSet
EndChar

StartChar: ha_mal
Encoding: 3385 3385 51
Width: 978
Flags: HW
LayerCount: 2
Fore
SplineSet
719 446 m 132
 824 446 942 380 942 217 c 4
 942 150 914 34 790 -10 c 5
 762 30 l 5
 821 60 859 121 859 194 c 4
 859 317 771 366 697 366 c 132
 615 366 534 308 534 207 c 132
 534 107 588 38 667 17 c 5
 667 0 l 5
 219 0 l 5
 219 17 l 5
 259 30 292 69 292 132 c 132
 292 192 245 226 191 226 c 132
 141 226 84 191 84 119 c 4
 84 72 102 37 137 15 c 5
 107 -10 l 5
 62 24 38 80 38 131 c 4
 38 241 127 287 206 287 c 132
 296 287 376 229 376 142 c 132
 376 99 363 63 338 34 c 5
 568 34 l 5
 516 82 490 141 490 213 c 132
 490 371 611 446 719 446 c 132
EndSplineSet
EndChar

StartChar: praslesham_mal
Encoding: 3389 3389 52
Width: 375
Flags: HW
LayerCount: 2
Fore
SplineSet
298 602 m 4
 317 602 346 592 346 552 c 4
 346 526 337 514 320 514 c 4
 305 514 297 523 297 543 c 5
 303 568 l 5
 303 572 301 573 298 573 c 4
 275 573 256 421 251 388 c 6
 217 161 l 6
 197 29 162 -158 80 -158 c 4
 52 -158 38 -142 38 -110 c 4
 38 -91 47 -67 64 -67 c 4
 81 -67 90 -77 90 -97 c 4
 90 -99 88 -107 83 -121 c 5
 84 -122 85 -123 86 -123 c 4
 109 -123 132 -20 143 61 c 6
 200 409 l 6
 212 488 238 555 260 581 c 4
 272 595 284 602 298 602 c 4
EndSplineSet
EndChar

StartChar: aa_sign_mal
Encoding: 3390 3390 53
Width: 403
Flags: HW
LayerCount: 2
Fore
SplineSet
183 450 m 4
 283 450 361 354 361 217 c 4
 361 134 327 -12 190 -12 c 4
 107 -12 41 60 38 148 c 5
 69 148 l 5
 76 100 108 48 167 48 c 4
 236 48 283 132 283 232 c 4
 283 331 239 402 173 402 c 4
 151 402 69 389 69 272 c 5
 38 272 l 5
 38 407 125 450 183 450 c 4
EndSplineSet
EndChar

StartChar: i_sign_mal
Encoding: 3391 3391 54
Width: 283
Flags: HW
LayerCount: 2
Fore
SplineSet
111 601 m 0
 181 601 255 559 255 467 c 2
 255 0 l 5
 171 0 l 5
 171 446 l 2
 171 523 118 545 83 545 c 128
 40 545 0 520 -5 458 c 1
 -39 458 l 1
 -38 558 42 601 111 601 c 0
EndSplineSet
EndChar

StartChar: ii_sign_mal
Encoding: 3392 3392 55
Width: 321
Flags: HW
LayerCount: 2
Fore
SplineSet
142 601 m 4
 203 601 296 574 296 467 c 6
 296 0 l 5
 213 0 l 5
 213 446 l 6
 213 506 179 562 122 562 c 4
 108 562 99 561 94 559 c 5
 137 552 166 519 166 470 c 4
 166 423 129 393 85 393 c 4
 50 393 0 416 0 485 c 4
 0 531 39 601 142 601 c 4
32 488 m 4
 32 436 61 427 80 427 c 4
 104 427 134 444 134 479 c 4
 134 503 115 538 58 539 c 5
 41 526 32 509 32 488 c 4
EndSplineSet
EndChar

StartChar: u_sign_mal
Encoding: 3393 3393 56
Width: 271
Flags: HW
LayerCount: 2
Fore
SplineSet
112 -246 m 128
 45 -246 0 -186 0 -119 c 0
 0 -51 31 -11 93 2 c 1
 129 81 146 146 146 198 c 0
 146 295 109 356 33 380 c 1
 39 448 l 1
 136 427 185 358 185 242 c 0
 185 182 165 102 127 2 c 1
 197 -13 225 -73 225 -127 c 0
 225 -188 182 -246 112 -246 c 128
32 -119 m 128
 32 -164 60 -197 102 -197 c 128
 145 -197 174 -162 174 -120 c 0
 174 -82 149 -40 102 -40 c 0
 60 -40 32 -74 32 -119 c 128
EndSplineSet
EndChar

StartChar: uu_sign_mal
Encoding: 3394 3394 57
Width: 258
Flags: HW
LayerCount: 2
Fore
SplineSet
106 -231 m 0
 42 -231 0 -175 0 -112 c 0
 0 -49 30 -11 89 2 c 1
 122 77 139 138 139 185 c 0
 139 276 103 334 32 356 c 1
 38 421 l 1
 129 399 175 335 175 228 c 0
 175 170 157 95 121 2 c 1
 182 -9 212 -49 212 -119 c 0
 212 -177 169 -231 106 -231 c 0
158 -81 m 1
 144 -52 123 -38 95 -38 c 0
 68 -38 48 -53 36 -83 c 1
 54 -104 75 -115 99 -115 c 0
 122 -115 142 -104 158 -81 c 1
30 -109 m 1
 30 -147 55 -186 98 -186 c 0
 140 -186 164 -151 164 -110 c 1
 139 -131 117 -142 99 -142 c 0
 81 -142 58 -131 30 -109 c 1
EndSplineSet
EndChar

StartChar: r_voc_mal
Encoding: 3395 3395 58
Width: 383
Flags: HW
LayerCount: 2
Fore
SplineSet
225 -212 m 1
 275 -197 313 -147 313 -89 c 0
 313 -56 297 -23 267 10 c 0
 226 59 120 100 120 372 c 0
 120 396 123 417 128 436 c 1
 209 436 l 1
 206 416 204 386 204 346 c 0
 204 213 207 188 285 59 c 0
 325 -8 345 -59 345 -92 c 0
 345 -189 260 -246 182 -246 c 0
 120 -246 38 -223 38 -132 c 0
 38 -58 81 -6 150 -6 c 0
 221 -6 264 -66 264 -128 c 0
 264 -160 250 -187 224 -208 c 1
 225 -212 l 1
160 -212 m 128
 203 -212 232 -178 232 -135 c 0
 232 -91 203 -56 160 -56 c 0
 116 -56 89 -91 89 -133 c 0
 89 -175 118 -212 160 -212 c 128
EndSplineSet
EndChar

StartChar: rr_voc_mal
Encoding: 3396 3396 59
Width: 378
Flags: HW
LayerCount: 2
Fore
SplineSet
203 -83 m 4
 228.387 -83 245 -106.701 245 -134 c 4
 245 -157.333 235.667 -174 217 -184 c 5
 211 -173 l 5
 223 -163.667 229 -150.667 229 -134 c 4
 229 -122.2 223.8 -98 203 -98 c 4
 186.2 -98 182 -119.1 182 -156 c 4
 182 -166.667 182.667 -174.667 184 -180 c 5
 167 -180 l 5
 167 -168.6 169 -157.2 169 -142 c 4
 169 -112.667 160.333 -98 143 -98 c 4
 123.8 -98 119 -122 119 -134 c 4
 119 -152 126.333 -165 141 -173 c 5
 132 -182 l 5
 113.333 -172 104 -156 104 -134 c 4
 104 -106.325 119.6 -83 143 -83 c 4
 157 -83 168 -88 176 -98 c 5
 183.333 -88 192.333 -83 203 -83 c 4
240 -212 m 5
 290 -197 328 -147 328 -89 c 4
 328 -56 312 -23 282 10 c 4
 241 59 135 100 135 372 c 4
 135 396 138 417 143 436 c 5
 224 436 l 5
 221 416 219 386 219 346 c 4
 219 213 222 188 300 59 c 4
 340 -8 360 -59 360 -92 c 4
 360 -189 275 -246 197 -246 c 4
 129 -246 38 -223 38 -132 c 4
 38 -58 89 -6 165 -6 c 4
 241 -6 294 -66 294 -128 c 4
 294 -164 265 -198 240 -212 c 5
175 -212 m 4
 225 -212 262 -178 262 -135 c 4
 262 -91 224 -56 175 -56 c 4
 121 -56 89 -91 89 -133 c 4
 89 -175 128 -212 175 -212 c 4
EndSplineSet
EndChar

StartChar: e_sign_mal
Encoding: 3398 3398 60
Width: 542
Flags: HW
LayerCount: 2
Fore
SplineSet
273 450 m 4
 382 450 502 378 502 208 c 4
 502 167 492 58 381 -12 c 5
 332 11 l 5
 390 54 419 116 419 196 c 4
 419 346 319 396 252 396 c 4
 195 396 89 360 70 192 c 5
 74 190 l 5
 104 238 138 262 175 262 c 4
 258 262 296 183 296 119 c 4
 296 63 272 -12 176 -12 c 4
 87 -12 38 81 38 182 c 4
 38 382 175 450 273 450 c 4
231 128 m 4
 231 158 216 213 160 213 c 4
 110 213 88 170 88 130 c 4
 88 84 116 47 161 47 c 4
 217 47 231 97 231 128 c 4
EndSplineSet
EndChar

StartChar: ee_sign_mal
Encoding: 3399 3399 61
Width: 478
Flags: HW
LayerCount: 2
Fore
SplineSet
270 448 m 4
 357 448 440 405 440 327 c 4
 440 258 382 240 348 240 c 132
 312 240 253 258 253 327 c 4
 253 356 267 382 295 406 c 5
 285 411 274 414 262 414 c 4
 158 414 112 316 112 220 c 4
 112 125 158 24 262 24 c 4
 274 24 285 27 295 32 c 5
 266 50 252 73 252 102 c 4
 252 166 307 192 350 192 c 4
 385 192 440 176 440 110 c 4
 440 32 359 -10 272 -10 c 4
 109 -10 38 110 38 220 c 132
 38 331 108 448 270 448 c 4
354 272 m 4
 378 272 406 291 406 328 c 4
 406 355 391 388 346 398 c 5
 320 385 304 352 304 322 c 4
 304 289 328 272 354 272 c 4
354 160 m 4
 327 160 304 143 304 110 c 4
 304 79 318 55 346 39 c 5
 386 49 406 82 406 110 c 4
 406 143 380 160 354 160 c 4
EndSplineSet
EndChar

StartChar: chandrakkala
Encoding: 3405 3405 66
Width: 48
Flags: W
HStem: 438 56<8.59381 124.619>
VStem: -87 75<515.045 600> 150 42<520.643 600>
LayerCount: 2
Fore
SplineSet
67 494 m 0
 103 494 150 517 150 574 c 0
 150 585 149 593 147 600 c 1
 189 600 l 1
 192 572 l 1
 192 467 103 438 51 438 c 0
 -19 438 -87 478 -87 562 c 0
 -87 578 -85 590 -82 600 c 1
 -6 600 l 1
 -10 592 -12 579 -12 560 c 0
 -12 522 22 494 67 494 c 0
EndSplineSet
EndChar

StartChar: au_len_mark_mal
Encoding: 3415 3415 67
Width: 677
Flags: HW
LayerCount: 2
Fore
SplineSet
455 450 m 4
 547 450 639 361 639 218 c 4
 639 72 540 -12 403 -12 c 4
 333 -12 210 12 210 114 c 5
 242 114 l 5
 242 46 336 28 382 28 c 4
 522 28 557 148 557 224 c 4
 557 351 478 398 426 398 c 4
 384 398 348 373 348 326 c 6
 348 187 l 5
 264 187 l 5
 264 291 l 6
 264 385 213 402 179 402 c 4
 135 402 70 355 70 254 c 6
 70 223 l 6
 70 210 72 199 74 190 c 5
 42 190 l 5
 39 203 38 213 38 220 c 6
 38 262 l 6
 38 389 127 448 200 448 c 4
 255 448 297 424 326 375 c 5
 363 425 406 450 455 450 c 4
EndSplineSet
EndChar

StartChar: rr_voc_skt_mal
Encoding: 3424 3424 68
Width: 676
Flags: HW
LayerCount: 2
Fore
SplineSet
300 325 m 4
 300 277 276 196 182 196 c 4
 143 196 111 217 85 258 c 5
 85 163 122 101 337 101 c 4
 481 101 588 132 588 258 c 5
 561 217 529 196 490 196 c 4
 395 196 371 278 371 325 c 4
 371 396 418 448 487 448 c 4
 587 448 633 353 633 268 c 4
 633 174 593 114 513 87 c 5
 593 71 633 32 633 -32 c 4
 633 -151 455 -181 360 -181 c 132
 81 -181 38 -92 38 -32 c 4
 38 32 78 71 158 85 c 5
 78 114 38 174 38 268 c 4
 38 355 87 448 184 448 c 4
 253 448 300 396 300 325 c 4
499 239 m 4
 547 239 560 294 560 323 c 4
 560 357 539 406 495 406 c 4
 448 406 437 355 437 326 c 4
 437 268 457 239 499 239 c 4
111 322 m 4
 111 295 124 239 173 239 c 4
 214 239 234 268 234 326 c 4
 234 354 223 406 177 406 c 132
 135 406 111 358 111 322 c 4
321 -138 m 4
 415 -138 556 -117 556 -34 c 4
 556 51 404 67 351 67 c 4
 299 67 115 63 115 -33 c 132
 115 -120 273 -138 321 -138 c 4
147 -34 m 4
 147 -8 183 26 256 26 c 4
 288 26 316 19 338 5 c 5
 358 19 383 25 414 25 c 4
 484 25 518 -11 518 -35 c 4
 518 -66 492 -87 439 -100 c 5
 420 -92 l 5
 455 -81 473 -62 473 -37 c 4
 473 -8 442 11 405 11 c 4
 367 11 348 4 348 -11 c 6
 348 -98 l 5
 302 -98 l 5
 302 -22 l 6
 302 2 268 8 241 8 c 4
 203 8 171 -11 171 -40 c 4
 171 -66 192 -84 233 -93 c 5
 218 -100 l 5
 182 -91 147 -74 147 -34 c 4
EndSplineSet
EndChar

StartChar: ll_voc_skt_mal
Encoding: 3425 3425 69
Width: 1006
Flags: HW
LayerCount: 2
Fore
SplineSet
188 -10 m 4
 88 -10 38 89 38 181 c 4
 38 312 130 450 280 450 c 4
 340 450 391 423 436 369 c 5
 481 424 537 451 604 451 c 4
 709 451 795 378 821 285 c 5
 913 261 971 179 971 60 c 4
 971 -45 899 -147 768 -147 c 5
 774 -88 l 5
 872 -88 923 0 923 88 c 4
 923 165 893 215 833 240 c 5
 835 234 836 217 836 191 c 4
 836 109 793 -9 692 -9 c 4
 622 -9 586 50 586 124 c 4
 586 198 639 276 729 288 c 5
 705 362 661 398 595 398 c 4
 552 398 474 372 474 320 c 6
 474 0 l 5
 391 0 l 5
 391 276 l 6
 391 321 373 403 300 403 c 4
 270 403 245 397 225 385 c 5
 279 340 332 264 332 170 c 4
 332 104 292 -10 188 -10 c 4
623 128 m 4
 623 92 650 50 686 50 c 4
 741 50 755 139 755 169 c 4
 755 193 751 223 743 259 c 5
 697 245 623 206 623 128 c 4
204 51 m 4
 279 51 298 130 298 175 c 4
 298 246 264 309 197 365 c 5
 140 318 111 256 111 181 c 4
 111 134 130 51 204 51 c 4
EndSplineSet
EndChar

StartChar: l_voc_sign_mal
Encoding: 3426 3426 70
Width: 0
Flags: HW
LayerCount: 2
Fore
SplineSet
-365 -246 m 4
 -342 -246 -328 -227 -328 -204 c 4
 -328 -183 -340 -164 -362 -164 c 4
 -376 -164 -399 -172 -399 -206 c 4
 -399 -241 -378 -246 -365 -246 c 4
-98 -246 m 4
 -84 -246 -64 -241 -64 -206 c 4
 -64 -172 -86 -164 -100 -164 c 4
 -122 -164 -135 -183 -135 -204 c 4
 -135 -227 -120 -246 -98 -246 c 4
-252 -120 m 6
 -252 -92 -286 -73 -316 -73 c 4
 -378 -73 -402 -113 -408 -174 c 5
 -406 -175 l 5
 -391 -152 -374 -140 -354 -140 c 4
 -307 -140 -295 -183 -295 -208 c 4
 -295 -234 -308 -276 -358 -276 c 4
 -402 -276 -424 -232 -424 -184 c 4
 -424 -76 -353 -45 -298 -45 c 4
 -269 -45 -247 -53 -231 -70 c 5
 -216 -53 -193 -45 -164 -45 c 4
 -110 -45 -38 -76 -38 -184 c 4
 -38 -232 -61 -276 -104 -276 c 4
 -155 -276 -168 -234 -168 -208 c 4
 -168 -183 -156 -140 -108 -140 c 4
 -88 -140 -72 -152 -56 -175 c 5
 -54 -174 l 5
 -61 -113 -84 -73 -147 -73 c 4
 -177 -73 -210 -92 -210 -120 c 6
 -210 -270 l 5
 -252 -270 l 5
 -252 -120 l 6
EndSplineSet
EndChar

StartChar: ll_voc_sign_mal
Encoding: 3427 3427 71
Width: 0
Flags: HW
LayerCount: 2
Fore
SplineSet
-419 -261 m 4
 -469 -261 -495 -212 -495 -166 c 4
 -495 -100 -449 -31 -373 -31 c 4
 -343 -31 -318 -44 -295 -72 c 5
 -273 -44 -245 -30 -211 -30 c 4
 -169 -30 -128.75 -64.25 -115 -94 c 5
 -69 -106 -38 -146 -38 -206 c 4
 -38 -250 -64 -300 -129 -300 c 5
 -127 -270 l 5
 -77 -270 -62 -230 -62 -192 c 4
 -62 -154 -77 -128 -107 -116 c 5
 -100.75 -128.75 -95 -153 -95 -165 c 4
 -95 -207 -117 -260 -167 -260 c 4
 -203 -260 -221 -231 -221 -194 c 4
 -221 -157 -204 -98 -159 -92 c 5
 -175 -74 -191 -57 -216 -57 c 4
 -237 -57 -277 -70 -277 -96 c 6
 -277 -256 l 5
 -318 -256 l 5
 -318 -118 l 6
 -318 -96 -327 -54 -363 -54 c 4
 -379 -54 -391 -58 -401 -64 c 5
 -374 -86 -347 -124 -347 -171 c 4
 -347 -204 -367 -261 -419 -261 c 4
-202 -192 m 4
 -202 -210 -189 -231 -171 -231 c 4
 -143 -231 -136 -186 -136 -172 c 4
 -136 -148 -145 -122 -152 -106 c 5
 -175 -114 -202 -153 -202 -192 c 4
-411 -230 m 4
 -374 -230 -365 -191 -365 -168 c 4
 -365 -133 -381 -102 -415 -74 c 5
 -443 -97 -458 -128 -458 -166 c 4
 -458 -189 -449 -230 -411 -230 c 4
EndSplineSet
EndChar

StartChar: zero_mal
Encoding: 3430 3430 72
Width: 559
Flags: HW
LayerCount: 2
Fore
SplineSet
38 181 m 4
 38 257 80 363 185 363 c 6
 523 363 l 5
 523 325 l 6
 523 297 506 282 474 282 c 6
 209 282 l 6
 136 282 118 201 118 159 c 4
 118 98 151 40 209 40 c 4
 269 40 299 101 299 167 c 4
 299 201 288 230 265 254 c 5
 328 254 l 5
 336 234 340 209 340 178 c 4
 340 88 286 0 184 0 c 4
 123 0 38 64 38 181 c 4
EndSplineSet
EndChar

StartChar: one_mal
Encoding: 3431 3431 73
Width: 660
Flags: HW
LayerCount: 2
Fore
SplineSet
138 -1 m 6
 105 -1 90 -32 90 -57 c 132
 90 -86 109 -112 138 -112 c 6
 313 -112 l 5
 313 -153 l 5
 138 -153 l 6
 78 -153 38 -110 38 -54 c 4
 38 31 134 38 140 38 c 6
 218 38 l 5
 218 287 l 6
 218 398 329 451 418 451 c 4
 539 451 628 369 628 245 c 6
 628 -1 l 5
 138 -1 l 6
451 394 m 4
 365 394 299 340 299 259 c 6
 299 38 l 5
 597 38 l 5
 597 216 l 6
 597 297 549 394 451 394 c 4
EndSplineSet
EndChar

StartChar: two_mal
Encoding: 3432 3432 74
Width: 674
Flags: HW
LayerCount: 2
Fore
SplineSet
262 450 m 4
 401 450 474 347 474 221 c 4
 474 155 446 93 391 34 c 5
 634 34 l 5
 634 0 l 5
 283 0 l 5
 283 21 l 5
 355 74 391 132 391 198 c 4
 391 270 361 366 240 366 c 4
 143 366 82 304 82 203 c 4
 82 122 119 61 191 18 c 5
 175 -10 l 5
 108 31 38 113 38 212 c 4
 38 355 129 450 262 450 c 4
EndSplineSet
EndChar

StartChar: three_mal
Encoding: 3433 3433 75
Width: 933
Flags: HW
LayerCount: 2
Fore
SplineSet
518 451 m 4
 630 451 705 338 705 218 c 4
 705 145 679 84 627 34 c 5
 897 34 l 5
 897 0 l 5
 546 0 l 5
 546 34 l 5
 597.001 76 624 139 624 223 c 4
 624 317 577 399 489 399 c 4
 441 399 400 367 400 318 c 6
 400 0 l 5
 317 0 l 5
 317 276 l 6
 317 352 267 387 218 387 c 4
 131 387 81 302 81 215 c 4
 81 168 92 63 193 16 c 5
 165 -10 l 5
 49 53 38 172 38 217 c 4
 38 321 98 452 235 452 c 4
 295 452 343 427 381 376 c 5
 418 426 464 451 518 451 c 4
EndSplineSet
EndChar

StartChar: four_mal
Encoding: 3434 3434 76
Width: 671
Flags: HW
LayerCount: 2
Fore
SplineSet
346 453 m 5
 487 453 635 379 635 215 c 4
 635 117 577 -4 446 -4 c 4
 379 -4 288 34 288 125 c 6
 288 385 l 5
 195 385 102 306 102 209 c 4
 102 111 164 78 225 18 c 5
 193 -7 l 5
 114 26 38 118 38 215 c 4
 38 358 152 453 288 453 c 5
 288 656 l 5
 346 656 l 5
 346 453 l 5
429 62 m 4
 505 62 538 145 538 206 c 4
 538 318 452 385 346 385 c 5
 346 125 l 6
 346 81 393 62 429 62 c 4
EndSplineSet
EndChar

StartChar: five_mal
Encoding: 3435 3435 77
Width: 699
Flags: HW
LayerCount: 2
Fore
SplineSet
38 178 m 4
 38 377 132 591 357 591 c 4
 601 591 662 351 662 88 c 4
 662 57 658 27 650 -3 c 5
 582 -3 l 5
 596 33 603 92 603 175 c 4
 603 315 553 529 354 529 c 4
 166 529 88 347 88 173 c 4
 88 24 178 -134 341 -134 c 4
 441 -134 491 -80 491 26 c 4
 491 107 420 119 401 120 c 4
 353 122 330 122 312 122 c 5
 312 171 l 5
 405 171 451 206 451 275 c 4
 451 330 389 344 354 344 c 4
 251 344 182 253 182 155 c 4
 182 104 194 51 218 -4 c 5
 177 -13 l 5
 152 24 132 63 132 162 c 4
 132 301 240 394 371 394 c 4
 437 394 540 356 540 273 c 4
 540 212 520 174 479 160 c 5
 536 145 565 100 565 26 c 4
 565 -150 448 -193 331 -193 c 4
 134 -193 38 -15 38 178 c 4
EndSplineSet
EndChar

StartChar: six_mal
Encoding: 3436 3436 78
Width: 704
Flags: HW
LayerCount: 2
Fore
SplineSet
661 132 m 4
 661 -3 576 -190 419 -190 c 4
 368 -190 326 -181 292 -163 c 5
 286 -106 l 5
 317 -125 355 -135 398 -135 c 4
 560 -135 598 46 598 193 c 4
 598 324 567 390 507 390 c 4
 474 390 452 356 452 325 c 6
 452 -1 l 5
 388 -1 l 5
 388 287 l 6
 388 350 368 381 330 381 c 4
 298 381 279 352 279 325 c 6
 279 -1 l 5
 211 -1 l 5
 211 290 l 6
 211 349 198 378 172 378 c 4
 116 378 88 320 88 203 c 4
 88 118 112 51 161 0 c 5
 126 -16 l 5
 67 43 38 121 38 220 c 4
 38 377 82 456 170 456 c 4
 204 456 234 433 261 387 c 5
 275 430 304 451 349 451 c 4
 394 451 425 432 442 395 c 5
 467 436 493 456 520 456 c 4
 605 456 661 385 661 132 c 4
EndSplineSet
EndChar

StartChar: seven_mal
Encoding: 3437 3437 79
Width: 694
Flags: HW
LayerCount: 2
Fore
SplineSet
222 -15 m 4
 105 -15 38 85 38 191 c 4
 38 371 208 453 347 453 c 4
 508 453 654 329 654 153 c 4
 654 23 589 -190 384 -190 c 4
 336 -190 294 -181 258 -162 c 5
 247 -94 l 5
 279 -113 319 -123 368 -123 c 4
 510 -123 570 17 570 144 c 4
 570 287 452 388 320 388 c 4
 203 388 130 312 107 206 c 5
 140 251 179 273 226 273 c 4
 318 273 388 217 388 132 c 4
 388 44 303 -15 222 -15 c 4
128 143 m 4
 128 91 182 41 230 41 c 132
 280 41 310 90 310 134 c 4
 310 184 273 220 228 220 c 132
 191 220 128 197 128 143 c 4
EndSplineSet
EndChar

StartChar: eight_mal
Encoding: 3438 3438 80
Width: 678
Flags: HW
LayerCount: 2
Fore
SplineSet
260 451 m 4
 394 451 473 349 473 228 c 4
 473 144 444 79 388 32 c 5
 551 32 l 5
 551 438 l 5
 635 438 l 5
 635 -7 l 6
 635 -154 559 -190 379 -190 c 4
 353 -190 309 -179 248 -156 c 5
 239 -96 l 5
 299 -125 344 -126 402 -126 c 4
 462 -126 551 -122 551 -4 c 5
 283 -4 l 5
 353 32 388 101 388 203 c 4
 388 287 334 369 238 369 c 4
 143 369 79 292 79 203 c 4
 79 129 115 67 186 18 c 5
 169 -10 l 5
 82 34 38 109 38 215 c 4
 38 346 127 451 260 451 c 4
EndSplineSet
EndChar

StartChar: nine_mal
Encoding: 3439 3439 81
Width: 684
Flags: HW
LayerCount: 2
Fore
SplineSet
466 451 m 5
 606 451 641 294 641 197 c 4
 641 115 614 -13 517 -13 c 4
 430 -13 413 95 413 156 c 6
 413 394 l 5
 368 394 332 383 332 343 c 6
 332 -1 l 5
 261 -1 l 5
 261 307 l 6
 261 354 225 388 180 388 c 4
 113 388 79 326 79 204 c 4
 79 121 110 58 173 16 c 5
 141 -13 l 5
 72 41 38 118 38 218 c 4
 38 318 84 451 202 451 c 4
 246 451 281 428 307 381 c 5
 326 410 364 451 413 451 c 5
 413 619 l 5
 466 619 l 5
 466 451 l 5
573 187 m 4
 573 325 537 394 466 394 c 5
 466 132 l 6
 466 79 479 53 505 53 c 4
 550 53 573 97 573 187 c 4
EndSplineSet
EndChar

StartChar: ten_mal
Encoding: 3440 3440 82
Width: 1021
Flags: HW
LayerCount: 2
Fore
SplineSet
312 438 m 1
 396 438 l 1
 396 195.507 l 2
 403.222 111.748 449.424 43 530 43 c 0
 578 43 619 75 619 124 c 2
 619 442 l 1
 702 442 l 1
 702 166 l 2
 702 90 752 55 801 55 c 0
 888 55 938 140 938 227 c 0
 938 274 927 379 826 426 c 1
 854 452 l 1
 970 389 981 270 981 225 c 0
 981 121 921 -10 784 -10 c 0
 724 -10 676 15 638 66 c 1
 601 16 555 -9 501 -9 c 0
 460.588 -9 424.993 5.71185 396 30.156 c 1
 396 -7 l 2
 396 -154 320 -190 140 -190 c 0
 114 -190 70 -179 9 -156 c 1
 0 -96 l 1
 60 -125 105 -126 163 -126 c 0
 223 -126 312 -122 312 -4 c 2
 312 438 l 1
EndSplineSet
EndChar

StartChar: one_hundred_mal
Encoding: 3441 3441 83
Width: 699
Flags: HW
LayerCount: 2
Fore
SplineSet
659 192 m 0
 659 0 549 -190 367 -190 c 0
 316 -190 274 -181 240 -163 c 1
 234 -106 l 1
 265 -125 303 -135 346 -135 c 0
 534 -135 596 46 596 193 c 0
 596 300 564 390 485 390 c 0
 452 390 400 356 400 325 c 2
 400 0 l 1
 400 -1 l 1
 317 0 l 1
 317 276 l 2
 317 352 267 387 218 387 c 0
 131 387 81 302 81 215 c 0
 81 168 92 63 193 16 c 1
 165 -10 l 1
 49 53 38 172 38 217 c 0
 38 321 98 452 235 452 c 0
 295 452 343 427 381 376 c 1
 406 417 447 456 498 456 c 0
 621 456 659 348 659 192 c 0
EndSplineSet
EndChar

StartChar: one_thousand_mal
Encoding: 3442 3442 84
Width: 1056
Flags: HW
LayerCount: 2
Fore
SplineSet
659 299 m 5
 583 290 522 245 522 166 c 4
 522 131 545 52 605 52 c 4
 661 52 684 132 684 194 c 4
 684 231 675 266 659 299 c 5
746 193 m 4
 746 77 686 -10 595 -10 c 4
 521 -10 469 68 469 154 c 4
 469 239 529 315 629 330 c 5
 605 376 566 398 513 398 c 4
 468 398 400 373 400 318 c 6
 400 0 l 5
 317 0 l 5
 317 276 l 6
 317 352 267 387 218 387 c 4
 131 387 81 302 81 215 c 4
 81 168 92 63 193 16 c 5
 165 -10 l 5
 49 53 38 172 38 217 c 4
 38 321 98 452 235 452 c 4
 294.214 452 345.636 422.781 383.5 372.993 c 5
 417.189 423.29 463.73 448 524 448 c 4
 603.409 448 670.307 403.822 709.294 336 c 5
 819.204 336 l 5
 764.657 366.542 749 391.604 749 447 c 4
 749 510 817 553 890 553 c 4
 970 553 1020 496 1020 435 c 4
 1020 346 923 303 824 303 c 6
 725.287 303 l 5
 738.643 269.786 746 232.516 746 193 c 4
968 419 m 4
 968 454 940 488 886 488 c 4
 840 488 798 467 798 421 c 4
 798 377 832 349 882 349 c 4
 937 349 968 385 968 419 c 4
EndSplineSet
EndChar

StartChar: one_quarter_mal
Encoding: 3443 3443 85
Width: 660
Flags: HW
LayerCount: 2
Fore
SplineSet
38 294 m 4
 38 356 64 448 172 448 c 6
 638 448 l 5
 638 366 l 5
 192 366 l 6
 132 366 76 332 76 274 c 4
 76 260 78 252 80 246 c 5
 86 290 120 318 168 318 c 4
 216 318 246 282 246 238 c 4
 246 202 222 152 154 152 c 4
 108 152 38 192 38 294 c 4
150 184 m 4
 202 184 212 214 212 232 c 4
 212 256 194 286 160 286 c 4
 136 286 100 268 100 210 c 5
 112 194 130 184 150 184 c 4
EndSplineSet
EndChar

StartChar: one_half_mal
Encoding: 3444 3444 86
Width: 664
Flags: HW
LayerCount: 2
Fore
SplineSet
157 47 m 4
 188 47 231 69 231 128 c 4
 231 186 193 213 159 213 c 4
 131 213 88 193 88 130 c 4
 88 65 129 47 157 47 c 4
477 52 m 4
 506.2 52 550 77.2891 550 187 c 4
 550 256.083 528.393 321.607 496 354 c 5
 424.667 296.667 389 234 389 166 c 4
 389 95.7344 435.709 52 477 52 c 4
534 398 m 5
 597.412 359.953 626 274.4 626 192 c 4
 626 31.4707 543.8 -10 489 -10 c 4
 423.134 -10 351 45.9658 351 148 c 4
 351 237.333 391 313.667 471 377 c 5
 446.333 396.333 397.333 406 364 406 c 4
 200 406 83 314 70 192 c 5
 74 190 l 5
 103 237 138 261 181 261 c 4
 239 261 297 208 297 120 c 4
 297 31 234 -12 176 -12 c 4
 86 -12 38 77 38 176 c 4
 38 359 210 450 350 450 c 4
 402.667 450 467.333 436.667 504 414 c 5
 517.333 431.333 524 448.667 524 466 c 4
 524 510.795 487.914 545 440 545 c 4
 406 545 378 532.333 356 507 c 5
 332 522 l 5
 355.011 569.233 404.758 603 470 603 c 4
 536.229 603 575 563.354 575 496 c 4
 575 452.953 552.648 429.08 534 398 c 5
EndSplineSet
EndChar

StartChar: three_quarters_mal
Encoding: 3445 3445 87
Width: 870
Flags: HW
LayerCount: 2
Fore
SplineSet
157 47 m 4
 188 47 231 69 231 128 c 4
 231 186 193 213 159 213 c 4
 131 213 88 193 88 130 c 4
 88 65 129 47 157 47 c 4
465 319.841 m 5
 465 0 l 5
 382 0 l 5
 382 300 l 6
 382 356 315 394 255 394 c 4
 130 394 83 314 70 192 c 5
 74 190 l 5
 103 237 138 261 181 261 c 4
 239 261 297 208 297 120 c 4
 297 31 234 -12 176 -12 c 4
 86 -12 38 77 38 176 c 4
 38 359 150 450 290 450 c 4
 360.236 450 410.653 426.578 441.251 378.878 c 5
 481.721 424.492 514.92 450 576 450 c 4
 655 450 673.333 436.667 710 414 c 5
 723.333 431.333 730 448.667 730 466 c 4
 730 510.795 693.914 545 646 545 c 4
 612 545 584 532.333 562 507 c 5
 538 522 l 5
 561.011 569.233 610.758 603 676 603 c 4
 742.229 603 781 563.354 781 496 c 4
 781 452.953 758.648 429.08 740 398 c 5
 803.412 359.953 832 274.4 832 192 c 4
 832 31.4707 749.8 -10 695 -10 c 4
 629.134 -10 557 45.9658 557 148 c 4
 557 237.333 597 313.667 677 377 c 5
 652.333 396.333 622.246 406.295 588.913 406.295 c 4
 589 406 l 4
 534.487 406 496.231 366.72 465 319.841 c 5
683 52 m 4
 712.2 52 756 77.2891 756 187 c 4
 756 256.083 734.393 321.607 702 354 c 5
 630.667 296.667 595 234 595 166 c 4
 595 95.7344 641.709 52 683 52 c 4
EndSplineSet
EndChar

StartChar: date_mal
Encoding: 3449 3449 88
Width: 864
Flags: HW
LayerCount: 2
Fore
SplineSet
507 448 m 4
 607.878 448 689.42 355.638 701 263 c 5
 825 263 l 5
 825 220 l 5
 705 220 l 5
 705 134.02 678.2 -10 571 -10 c 4
 504.572 -10 458 58.0742 458 126 c 4
 458 194.666 508.218 263 600 263 c 6
 624 263 l 5
 615.617 320.487 558.797 398 485 398 c 4
 428.224 398 392 368.744 392 318 c 6
 392 0 l 5
 309 0 l 5
 309 276 l 6
 309 337.777 278.318 388 230 388 c 4
 143.774 388 82 303.286 82 211 c 4
 82 137 121 72.333 199 17 c 5
 172 -10 l 5
 100.507 32.1299 38 128.6 38 221 c 4
 38 341.816 115.6 448 232 448 c 4
 300.667 448 347.667 424 373 376 c 5
 398.333 424 443 448 507 448 c 4
497 132 m 4
 497 83.1523 525.184 52 562 52 c 4
 606.667 52 629 98.667 629 192 c 6
 629 220 l 5
 603 220 l 6
 556.406 220 497 199.667 497 132 c 4
EndSplineSet
EndChar

StartChar: nn_chillu_mal
Encoding: 3450 3450 89
Width: 1137
Flags: HW
LayerCount: 2
Fore
SplineSet
1005 406 m 5
 1069.37 356.601 1098 263.586 1098 194 c 4
 1098 35.752 1011.88 -8 955 -8 c 4
 892.778 -8 825 39.7441 825 135 c 4
 825 221.667 863.333 301 940 373 c 5
 925.333 389.667 897.333 398 856 398 c 4
 808.833 398 753 382.8 753 322 c 6
 753 0 l 5
 670 0 l 5
 670 276 l 6
 670 368.18 597.427 394 554 394 c 4
 507.144 394 464 368.223 464 322 c 6
 464 0 l 5
 381 0 l 5
 381 300 l 6
 381 356.1 313.438 394 254 394 c 4
 128.668 394 81.6025 314.596 69 192 c 5
 73 190 l 5
 101.667 237.333 137.333 261 180 261 c 4
 256.54 261 296 190.236 296 120 c 4
 296 69.2393 272.8 -12 180 -12 c 4
 86.2725 -12 38 75.1504 38 178 c 4
 38 387.332 178.994 450 293 450 c 4
 341.262 450 388.083 437.674 445 371 c 5
 480.333 422.333 529 448 591 448 c 4
 652.333 448 699.667 423.333 733 374 c 5
 771.667 424.667 821.667 450 883 450 c 4
 915.667 450 947.333 441.667 978 425 c 5
 986.67 439.667 991 453.333 991 466 c 4
 991 530 936.9 546 905 546 c 4
 870.333 546 843 533 823 507 c 5
 799 522 l 5
 815.16 567.992 870.867 604 933 604 c 4
 976.07 604 1043 582.4 1043 496 c 4
 1043 458.496 1016.36 423.603 1005 406 c 5
941 51 m 4
 973.35 51 1022 78.2617 1022 190 c 4
 1022 258.667 1003.33 313 966 353 c 5
 915.646 313.186 863 232.388 863 154 c 4
 863 92.2021 899.332 51 941 51 c 4
161 47 m 4
 216.2 47 230 99.0498 230 128 c 4
 230 172.788 203.991 213 159 213 c 4
 112.413 213 87 173.373 87 131 c 4
 87 92.2725 109.376 47 161 47 c 4
EndSplineSet
LCarets2: 2 0 0 
Ligature2: "FreeSerif-'akhn' Akhand in Malay+AQEA-lam subtable" nna_mal chandrakkala zerojoin
Ligature2: "FreeSerif-'haln' Halant Forms in Malay+AQEA-lam subtable" nna_mal chandrakkala zerojoin
Ligature2: "FreeSerif-'half' Half Forms in Malay+AQEA-lam subtable" nna_mal chandrakkala zerojoin
EndChar

StartChar: n_chillu_mal
Encoding: 3451 3451 90
Width: 776
Flags: HW
LayerCount: 2
Fore
SplineSet
644 406 m 5
 708.368 356.601 737 263.586 737 194 c 4
 737 110.334 693.817 -10 589 -10 c 4
 508.598 -10 464 67.1816 464 135 c 4
 464 220.333 502.333 299.667 579 373 c 5
 563.667 389.667 532.333 398 485 398 c 4
 448.75 398 392 382.8 392 322 c 6
 392 0 l 5
 309 0 l 5
 309 276 l 6
 309 318.993 287.459 387 230 387 c 4
 138.129 387 82 295.923 82 211 c 4
 82 137 121 72 199 16 c 5
 172 -10 l 5
 114.967 35.2324 38 118.233 38 220 c 4
 38 330.125 107.941 448 232 448 c 4
 300.667 448 347.667 423.333 373 374 c 5
 405 423.333 449.667 448 507 448 c 4
 549.667 448 586.333 440.333 617 425 c 5
 626.333 440.333 631 455.667 631 471 c 4
 631 520.225 585.827 545 547 545 c 4
 513 545 485 532.333 463 507 c 5
 438 522 l 5
 462.081 567.753 513.326 603 577 603 c 4
 643.376 603 682 566.992 682 501 c 4
 682 473.667 669.333 442 644 406 c 5
575 52 m 4
 643.8 52 661 143.299 661 190 c 4
 661 259.333 642.333 313.667 605 353 c 5
 556.825 312.854 502 233.6 502 154 c 4
 502 115.356 521.479 52 575 52 c 4
EndSplineSet
LCarets2: 2 0 0 
Ligature2: "FreeSerif-'akhn' Akhand in Malay+AQEA-lam subtable" na_mal chandrakkala zerojoin
Ligature2: "FreeSerif-'haln' Halant Forms in Malay+AQEA-lam subtable" na_mal chandrakkala zerojoin
Ligature2: "FreeSerif-'half' Half Forms in Malay+AQEA-lam subtable" na_mal chandrakkala zerojoin
EndChar

StartChar: rr_chillu_mal
Encoding: 3452 3452 91
Width: 534
Flags: HW
LayerCount: 2
Fore
SplineSet
335 604 m 4
 381.3 604 444 582.4 444 496 c 4
 444 470 430 438.667 402 402 c 5
 463.333 346 494 278.667 494 200 c 4
 494 38.9102 407 -10 349 -10 c 4
 285.213 -10 218 42.7705 218 148 c 4
 218 234.667 255.333 309 330 371 c 5
 316 381.667 293.333 387 262 387 c 4
 142.145 387 82 279.23 82 185 c 4
 82 107.667 113.667 49.667 177 11 c 5
 154 -12 l 5
 46.7617 54.5615 38 162.859 38 200 c 4
 38 266 59 323.667 101 373 c 4
 143 423 198 448 266 448 c 4
 305.333 448 340.667 438.667 372 420 c 5
 386.667 436 394 451.333 394 466 c 4
 394 529.381 338.2 546 306 546 c 4
 272 546 245.333 533 226 507 c 5
 200 522 l 5
 227.368 592.13 297.022 604 335 604 c 4
336 53 m 4
 369.2 53 419 82.167 419 187 c 4
 419 226.823 404.527 312.099 358 349 c 5
 290.667 293.667 257 232.667 257 166 c 4
 257 81.5254 304.4 53 336 53 c 4
EndSplineSet
LCarets2: 2 0 0 
Ligature2: "FreeSerif-'akhn' Akhand in Malay+AQEA-lam subtable" ra_mal chandrakkala zerojoin
Ligature2: "FreeSerif-'haln' Halant Forms in Malay+AQEA-lam subtable" ra_mal chandrakkala zerojoin
Ligature2: "FreeSerif-'half' Half Forms in Malay+AQEA-lam subtable" ra_mal chandrakkala zerojoin
EndChar

StartChar: l_chillu_mal
Encoding: 3453 3453 92
Width: 860
Flags: HW
LayerCount: 2
Fore
SplineSet
723 378 m 5
 790.362 323.537 822 233.972 822 156 c 4
 822 87.166 794.4 -8 684 -8 c 4
 618.305 -8 554 41.1953 554 132 c 4
 554 212.667 589.333 287.333 660 356 c 5
 626 392 571.333 410 496 410 c 4
 462 410 432 403.667 406 391 c 5
 477.333 330.333 513 260 513 180 c 4
 513 86.3203 461.597 -10 360 -10 c 4
 261.658 -10 220 101.961 220 175 c 4
 220 262.411 268.074 338.163 324 381 c 5
 308 389 285 393 255 393 c 4
 138.01 393 84 294.161 84 196 c 4
 84 118.146 116.988 45.4639 178 7 c 5
 145 -10 l 5
 73.5596 39.458 38 127.944 38 211 c 4
 38 329.635 105.451 448 255 448 c 4
 296.333 448 334.667 437.667 370 417 c 5
 407.333 437.667 456.667 448 518 448 c 4
 596.667 448 656.667 431.333 698 398 c 5
 714.691 417.259 729 435.146 729 463 c 4
 729 526.2 672.037 542 639 542 c 4
 603.667 542 576 529.333 556 504 c 5
 530 519 l 5
 559.104 590.905 635.52 601 672 601 c 4
 717.925 601 780 579.2 780 492 c 4
 780 446.4 747 406.5 723 378 c 5
670 52 m 4
 730.8 52 746 109.853 746 160 c 4
 746 202.33 729.702 292.581 680 332 c 5
 639.685 296.165 592 221.354 592 152 c 4
 592 78.8252 638.8 52 670 52 c 4
346 52 m 4
 412.837 52 440 125.413 440 181 c 4
 440 256.333 412.667 316 358 360 c 5
 307.093 325.667 257 255.872 257 174 c 4
 257 130.902 276.897 52 346 52 c 4
EndSplineSet
LCarets2: 2 0 0 
Ligature2: "FreeSerif-'akhn' Akhand in Malay+AQEA-lam subtable" la_mal chandrakkala zerojoin
Ligature2: "FreeSerif-'haln' Halant Forms in Malay+AQEA-lam subtable" la_mal chandrakkala zerojoin
Ligature2: "FreeSerif-'half' Half Forms in Malay+AQEA-lam subtable" la_mal chandrakkala zerojoin
EndChar

StartChar: ll_chillu_mal
Encoding: 3454 3454 93
Width: 780
Flags: HW
LayerCount: 2
Fore
SplineSet
650 398 m 5
 713.412 359.953 742 274.4 742 192 c 4
 742 31.4707 659.8 -10 605 -10 c 4
 539.134 -10 467 45.9658 467 148 c 4
 467 237.333 507 313.667 587 377 c 5
 562.333 396.333 533.333 406 500 406 c 4
 400.108 406 382 332.535 382 216 c 6
 382 156 l 6
 382 51.5186 298.064 -10 214 -10 c 4
 93.9385 -10 38 96.3623 38 204 c 4
 38 262.339 55.1475 389.859 182 448 c 5
 204 423 l 5
 98.4121 377.995 83 271.756 83 219 c 4
 83 131.743 125.587 49 204 49 c 4
 246 49 309 80.4922 309 196 c 6
 309 253 l 6
 309 342.685 344.4 448 486 448 c 4
 538.667 448 583.333 436.667 620 414 c 5
 633.333 431.333 640 448.667 640 466 c 4
 640 510.795 603.914 545 556 545 c 4
 522 545 494 532.333 472 507 c 5
 448 522 l 5
 471.011 569.233 520.758 603 586 603 c 4
 652.229 603 691 563.354 691 496 c 4
 691 452.953 668.648 429.08 650 398 c 5
593 52 m 4
 622.2 52 666 77.2891 666 187 c 4
 666 256.083 644.393 321.607 612 354 c 5
 540.667 296.667 505 234 505 166 c 4
 505 95.7344 551.709 52 593 52 c 4
EndSplineSet
Ligature2: "FreeSerif-'akhn' Akhand in Malay+AQEA-lam subtable" lla_mal chandrakkala zerojoin
Ligature2: "FreeSerif-'haln' Halant Forms in Malay+AQEA-lam subtable" lla_mal chandrakkala zerojoin
LCarets2: 2 0 0 
Ligature2: "FreeSerif-'half' Half Forms in Malay+AQEA-lam subtable" lla_mal chandrakkala zerojoin
EndChar

StartChar: k_chillu_mal
Encoding: 3455 3455 94
Width: 866
Flags: HW
LayerCount: 2
Fore
SplineSet
691 254 m 6
 802.2 254 830 174.735 830 128 c 4
 830 64.5713 785.8 -10 685 -10 c 4
 595.942 -10 560 76.2754 560 139 c 4
 560 172.333 564 199.333 572 220 c 5
 542 220 l 5
 542 124.122 504.626 -10 389 -10 c 4
 334.333 -10 294 16.667 268 70 c 5
 246.667 16.667 214 -10 170 -10 c 4
 90.7998 -10 38 55.1797 38 134 c 4
 38 249 129 255 206 255 c 6
 242 255 l 5
 242 322.992 270.4 448 384 448 c 4
 507.2 448 533.403 306.219 538 255 c 5
 582 254 l 5
 614.791 319.583 711 382.048 711 465 c 4
 711 518.753 665.467 543 622 543 c 4
 587.333 543 561.333 531.333 544 508 c 5
 516 524 l 5
 534.388 571.284 587.846 602 646 602 c 4
 690.05 602 761 581.2 761 498 c 4
 761 392.663 666.46 334.768 618 254 c 5
 691 254 l 6
666 52 m 4
 717.542 52 748 93.4424 748 138 c 4
 748 170.8 729.6 220 656 220 c 6
 606 220 l 5
 599.333 205.333 596 183.333 596 154 c 4
 596 119.462 610 52 666 52 c 4
470 255 m 5
 470 301.919 447.952 393 370 393 c 4
 294 393 275 301.962 275 255 c 5
 470 255 l 5
368 39 m 4
 449.6 39 470 140.667 470 220 c 5
 275 220 l 5
 275 156 282 39 368 39 c 4
110 140 m 4
 110 98.9785 129.952 39 180 39 c 4
 221.333 39 242 71 242 135 c 6
 242 220 l 5
 209 220 l 6
 143 220 110 193.333 110 140 c 4
EndSplineSet
LCarets2: 2 0 0 
Ligature2: "FreeSerif-'haln' Halant Forms in Malay+AQEA-lam subtable" ka_mal chandrakkala zerojoin
Ligature2: "FreeSerif-'akhn' Akhand in Malay+AQEA-lam subtable" ka_mal chandrakkala zerojoin
Ligature2: "FreeSerif-'half' Half Forms in Malay+AQEA-lam subtable" ka_mal chandrakkala zerojoin
EndChar

StartChar: r4
Encoding: 59714 -1 95
Width: 241
Flags: HW
LayerCount: 2
Fore
SplineSet
38 70 m 4
 38 190.504 60.4043 335.693 93 440 c 5
 126 440 l 5
 88 304.667 69 187.333 69 88 c 4
 69 -2 109.667 -47 191 -47 c 4
 216.333 -47 243 -41.333 271 -30 c 5
 261 -116 l 5
 236.333 -125.333 212.333 -130 189 -130 c 4
 70.8691 -130 38 -50.9512 38 70 c 4
EndSplineSet
LCarets2: 1 0 
Ligature2: "FreeSerif-'pstf' Post Base Forms in Malay+AQEA-lam subtable" ra_mal chandrakkala
EndChar

StartChar: y2
Encoding: 59715 -1 96
Width: 384
Flags: HW
LayerCount: 2
Fore
SplineSet
200 271 m 6
 200 105.398 335 49.4277 335 -100 c 4
 335 -212.083 222.525 -260 126 -260 c 4
 43.7383 -260 -42 -224.679 -42 -150 c 4
 -42 -110.785 -16.1299 -80 22 -80 c 4
 35.5996 -80 45.7998 -84 56 -84 c 4
 82 -84 95 -70.667 95 -44 c 6
 95 -35 l 5
 150 -35 l 5
 152.667 -44.333 154 -52 154 -58 c 4
 154 -124.671 94.4209 -113.916 69 -119 c 4
 43.6123 -122.462 22 -139.871 22 -164 c 4
 22 -197.6 61.7002 -220 116 -220 c 4
 163.497 -220 262 -197.4 262 -107 c 4
 262 -58.333 239.333 -4.66699 194 54 c 4
 142.667 119.333 117 210.667 117 328 c 6
 117 436 l 5
 200 436 l 5
 200 271 l 6
EndSplineSet
LCarets2: 1 0 
Ligature2: "FreeSerif-'pstf' Post Base Forms in Malay+AQEA-lam subtable" ya_mal chandrakkala
EndChar

StartChar: y2u1
Encoding: 59716 -1 97
Width: 384
Flags: HW
LayerCount: 2
Fore
SplineSet
204 271 m 6
 204 105.398 339 49.4277 339 -100 c 4
 339 -150 316.667 -190 272 -220 c 5
 306.578 -236.693 337 -275.208 337 -323 c 4
 337 -392.318 281.5 -439 220.5 -439 c 132
 157.759 -439 104 -390.658 104 -323 c 4
 104 -299.667 110.667 -278.667 124 -260 c 5
 44.6357 -257.666 -38 -223.919 -38 -150 c 4
 -38 -110.785 -12.1299 -80 26 -80 c 4
 39.5996 -80 49.7998 -84 60 -84 c 4
 86 -84 99 -70.667 99 -44 c 6
 99 -35 l 5
 154 -35 l 5
 156.667 -44.333 158 -52 158 -58 c 4
 158 -124.671 98.4209 -113.916 73 -119 c 4
 47.6123 -122.462 26 -139.871 26 -164 c 4
 26 -197.6 65.7002 -220 120 -220 c 4
 167.497 -220 266 -197.4 266 -107 c 4
 266 -58.333 243.333 -4.66699 198 54 c 4
 146.667 119.333 121 210.667 121 328 c 6
 121 436 l 5
 204 436 l 5
 204 271 l 6
220.5 -371 m 132
 256.208 -371 281 -343.675 281 -311.5 c 132
 281 -278.969 256.135 -251 220.5 -251 c 132
 187.46 -251 161 -276.786 161 -312 c 4
 161 -343.573 184.537 -371 220.5 -371 c 132
EndSplineSet
LCarets2: 1 0 
Ligature2: "FreeSerif-'psts' Post Base Substitutions in Malay+AQEA-lam subtable" y2 u_sign_mal
EndChar

StartChar: y2u2
Encoding: 59717 -1 98
Width: 384
Flags: HW
LayerCount: 2
Fore
SplineSet
258 -229 m 5
 305.661 -247.814 341 -290.231 341 -354 c 4
 341 -434.619 283 -508 196 -508 c 4
 109.6 -508 52 -438.6 52 -357 c 4
 52 -315 65.667 -281.333 93 -256 c 5
 64.6543 -252.579 -38 -234.8 -38 -150 c 4
 -38 -110.785 -12.1299 -80 26 -80 c 4
 39.5996 -80 49.7998 -84 60 -84 c 4
 86 -84 99 -70.667 99 -44 c 6
 99 -35 l 5
 154 -35 l 5
 156.667 -44.333 158 -52 158 -58 c 4
 158 -124.671 98.4209 -113.916 73 -119 c 4
 47.6123 -122.462 26 -139.871 26 -164 c 4
 26 -197.6 65.7002 -220 120 -220 c 4
 167.497 -220 266 -197.4 266 -107 c 4
 266 -58.333 243.333 -4.66699 198 54 c 4
 146.667 119.333 121 210.667 121 328 c 6
 121 436 l 5
 204 436 l 5
 204 271 l 6
 204 105.398 339 49.4277 339 -100 c 4
 339 -156 312 -199 258 -229 c 5
182 -355 m 4
 212.747 -355 234 -331.643 234 -304 c 4
 234 -274.433 208.052 -255 182 -255 c 6
 175 -255 l 5
 172.845 -256.078 129 -263.152 129 -304 c 4
 129 -334.6 154.025 -355 182 -355 c 4
196 -443 m 4
 252.902 -443 294 -399.324 294 -346 c 4
 294 -322.667 286 -302 270 -284 c 5
 274 -293.333 276 -303 276 -313 c 4
 276 -361.975 240 -404 186 -404 c 4
 140.372 -404 107.502 -373.512 100 -336 c 5
 99 -346 l 5
 99 -350 l 6
 99 -401.443 142.213 -443 196 -443 c 4
EndSplineSet
LCarets2: 1 0 
Ligature2: "FreeSerif-'psts' Post Base Substitutions in Malay+AQEA-lam subtable" y2 uu_sign_mal
EndChar

StartChar: v2
Encoding: 59718 -1 99
Width: 283
Flags: HW
LayerCount: 2
Fore
SplineSet
240 -60 m 5
 -38 -60 l 5
 -38 -24 l 5
 158 -24 l 5
 158 426 l 5
 240 426 l 5
 240 -60 l 5
EndSplineSet
LCarets2: 1 0 
Ligature2: "FreeSerif-'pstf' Post Base Forms in Malay+AQEA-lam subtable" va_mal chandrakkala
EndChar

StartChar: NameMe_195551
Encoding: 59720 -1 100
Width: 375
Flags: HW
LayerCount: 2
Fore
SplineSet
296 602 m 0
 321.6 602 342 583.841 342 552 c 0
 342 526.667 333.333 514 316 514 c 0
 300.667 514 293 523.667 293 543 c 0
 293 553 299 560.5 299 568 c 0
 299 571.333 297.333 573 294 573 c 0
 255.21 573 226.351 140.755 173 -32 c 0
 147.667 -116 115.333 -158 76 -158 c 0
 48 -158 34 -142 34 -110 c 0
 34 -91.3203 43.1025 -67 60 -67 c 0
 77.333 -67 86 -77 86 -97 c 0
 86 -99 83.667 -107 79 -121 c 1
 80.333 -122.333 81.333 -123 82 -123 c 0
 93.4004 -123 119.003 -83.9775 139 61 c 2
 196 409 l 2
 203.245 457.905 225.282 545.163 256 581 c 0
 268 595 281.333 602 296 602 c 0
EndSplineSet
EndChar

StartChar: k1u1
Encoding: 59727 -1 101
Width: 768
Flags: HW
LayerCount: 2
Fore
SplineSet
710 135 m 1
 765 124 769 83 769 72 c 0
 769 8 702 -8 664 -8 c 0
 643 -8 624 -4 606 3 c 1
 600 36 l 1
 614 24 631 18 650 18 c 0
 682 18 704 38 704 68 c 0
 704 95 687 116 661 116 c 2
 631 116 l 1
 631 148 l 1
 661 148 l 2
 677 148 688 162 688 182 c 0
 688 195 679 221 645 221 c 2
 578 221 l 1
 578 139 547 -8 425 -8 c 0
 370 -8 330 19 304 72 c 1
 282 19 249 -8 206 -8 c 0
 121 -8 74 62 74 136 c 0
 74 191 97 228 142 245 c 0
 160 252 193 257 242 257 c 2
 278 257 l 1
 278 358 330 450 420 450 c 0
 529 450 574 333 574 257 c 1
 682 257 l 2
 721 257 765 235 765 192 c 0
 765 163 747 144 710 135 c 1
506 257 m 1
 506 326 469 395 406 395 c 0
 344 395 311 330 311 257 c 1
 506 257 l 1
404 41 m 0
 486 41 506 139 506 222 c 1
 311 222 l 1
 311 148 324 41 404 41 c 0
146 142 m 0
 146 98 173 41 216 41 c 0
 257 41 278 73 278 137 c 2
 278 222 l 1
 245 222 l 2
 179 222 146 195 146 142 c 0
EndSplineSet
LCarets2: 1 0 
Ligature2: "FreeSerif-'psts' Post Base Substitutions in Malay+AQEA-lam subtable" ka_mal u_sign_mal
EndChar

StartChar: k1u2
Encoding: 59728 -1 102
Width: 763
Flags: HW
LayerCount: 2
Fore
SplineSet
710 154 m 1
 741.34 146.478 766 118.931 766 78 c 0
 766 48.5289 747.6 -3 674 -3 c 2
 169 -3 l 2
 142.947 -3 122 -25.968 122 -54 c 0
 122 -68.4 132.3 -90 169 -90 c 2
 765 -90 l 1
 765 -161 l 1
 169 -161 l 2
 89.8 -161 70 -101.488 70 -68 c 0
 70 -19.8749 103.413 34 169 34 c 2
 620 34 l 2
 679.65 34 698 67 698 89 c 0
 698 113.555 676.698 134 646 134 c 2
 610 134 l 1
 610 170 l 1
 641 170 l 2
 668.851 170 690 184.202 690 208 c 0
 690 222.4 677 244 625 244 c 2
 578 244 l 1
 578 176.459 547.4 62 425 62 c 0
 371 62 330.667 84.6667 304 130 c 1
 281.333 84.6667 248.667 62 206 62 c 0
 131.947 62 74 110.8 74 184 c 0
 74 264 139.405 284 238 284 c 2
 278 284 l 1
 278 370.328 325.055 446 420 446 c 0
 518.037 446 574 370.234 574 282 c 1
 665 282 l 2
 729.575 282 764 267.6 764 210 c 0
 764 177.937 738.51 159.94 710 154 c 1
506 284 m 1
 506 347.975 466 400 406 400 c 0
 330 400 311 329.88 311 284 c 1
 506 284 l 1
404 104 m 0
 472 104 506 153 506 251 c 1
 311 251 l 1
 311 166 340.133 104 404 104 c 0
146 188 m 0
 146 145.3 174.831 104 216 104 c 0
 257.333 104 278 131 278 185 c 2
 278 251 l 1
 245 251 l 2
 179 251 146 230 146 188 c 0
EndSplineSet
LCarets2: 1 0 
Ligature2: "FreeSerif-'psts' Post Base Substitutions in Malay+AQEA-lam subtable" ka_mal uu_sign_mal
EndChar

StartChar: k1r1
Encoding: 59729 -1 103
Width: 775
Flags: HW
LayerCount: 2
Fore
SplineSet
621 255 m 2
 715.526 255 776 154.477 776 49 c 0
 776 -61.8 702.383 -228 442 -228 c 0
 292.601 -228 248 -183 248 -153 c 0
 248 -119.8 302.726 -70 461 -70 c 0
 524.333 -70 581 -82.3333 631 -107 c 1
 588 -136 l 1
 552.667 -114.667 511.333 -104 464 -104 c 0
 396.043 -104 336 -124.2 336 -153 c 0
 336 -167 355.6 -188 434 -188 c 0
 658.8 -188 715 -20.2803 715 64 c 0
 715 141.834 675.697 212 606 212 c 2
 578 212 l 1
 578 140.667 562.333 85.8333 531 47.5 c 128
 499.667 9.16667 463 -10 421 -10 c 0
 364.24 -10 323.465 27.3449 304 72 c 1
 277.333 17.3333 242 -10 198 -10 c 0
 136.605 -10 74 51.0359 74 138 c 0
 74 184.2 99.6 255 202 255 c 2
 276 255 l 1
 276 403.55 362.4 448 420 448 c 0
 497.505 448 571.791 381.279 576 255 c 1
 621 255 l 2
504 255 m 1
 504 359.998 445.2 394 406 394 c 0
 368.4 394 312 363.446 312 255 c 1
 504 255 l 1
404 42 m 0
 444 42 504 76.9125 504 190 c 2
 504 212 l 1
 312 212 l 1
 312 177 l 2
 312 72.45 367.2 42 404 42 c 0
218 40 m 0
 242 40 278 56.65 278 127 c 2
 278 212 l 1
 238 212 l 2
 160.382 212 146 167.6 146 138 c 0
 146 66.8 189.2 40 218 40 c 0
EndSplineSet
LCarets2: 1 0 
Ligature2: "FreeSerif-'psts' Post Base Substitutions in Malay+AQEA-lam subtable" ka_mal r_voc_mal
EndChar

StartChar: k1r2
Encoding: 59730 -1 104
Width: 794
Flags: HW
LayerCount: 2
Fore
SplineSet
621 255 m 2
 737 255 789 128 789 21 c 0
 789 -179 652 -312 446 -312 c 0
 367 -312 229 -276 229 -193 c 0
 229 -93 384 -68 448 -68 c 0
 530 -68 593 -90 637 -134 c 1
 598 -166 l 1
 577 -123 493 -105 448 -105 c 0
 406 -105 298 -122 298 -188 c 0
 298 -237 364 -270 455 -270 c 0
 629 -270 714 -132 714 22 c 0
 714 128 671 212 606 212 c 2
 578 212 l 1
 578 84 515 -10 421 -10 c 0
 364 -10 322 28 304 72 c 1
 278 17 243 -10 198 -10 c 0
 121 -10 74 68 74 138 c 0
 74 248 178 255 230 255 c 130
 230 255 262 255 276 255 c 1
 276 325 305 448 420 448 c 0
 528 448 573 337 576 255 c 1
 621 255 l 2
492 -140 m 128
 522 -140 545 -163 545 -190 c 0
 545 -215 533 -231 508 -239 c 1
 500 -229 l 1
 516 -222 524 -209 524 -190 c 0
 524 -171 511 -153 492 -153 c 0
 469 -153 465 -179 464 -184 c 0
 464 -197 465 -215 466 -236 c 1
 444 -236 l 1
 444 -178 l 2
 444 -158 426 -153 414 -153 c 0
 396 -153 385 -171 385 -190 c 0
 385 -211 394 -224 411 -229 c 1
 400 -238 l 1
 376 -231 364 -215 364 -190 c 0
 364 -161 388 -140 414 -140 c 0
 431 -140 445 -144 456 -153 c 1
 467 -144 479 -140 492 -140 c 128
504 255 m 1
 504 299 484 394 406 394 c 0
 326 394 312 291 312 255 c 1
 504 255 l 1
404 42 m 0
 456 42 504 82 504 212 c 1
 312 212 l 1
 312 130 330 42 404 42 c 0
218 40 m 0
 266 40 278 93 278 127 c 2
 278 212 l 1
 238 212 l 2
 196 212 146 197 146 138 c 0
 146 101 164 40 218 40 c 0
EndSplineSet
LCarets2: 1 0 
Ligature2: "FreeSerif-'psts' Post Base Substitutions in Malay+AQEA-lam subtable" ka_mal rr_voc_mal
EndChar

StartChar: k1l1
Encoding: 59731 -1 105
Width: 743
Flags: HW
LayerCount: 2
Fore
SplineSet
400 450 m 0
 520 450 544 343 550 303 c 1
 565 303 592 303 592 303 c 2
 702.888 303 742 260.2 742 196 c 0
 742 145 697 98 632 98 c 0
 629 98 623 99 614 100 c 1
 675 73 724 17 724 -60 c 0
 724 -128 676 -186 604 -186 c 0
 537 -186 492 -127 492 -63 c 0
 492 -10 518 34 570 70 c 1
 551 75 534 78 518 78 c 0
 481 78 436 61 436 28 c 2
 436 -180 l 1
 364 -180 l 1
 364 1 l 2
 364 47 341 78 303 78 c 0
 286 78 268 75 251 70 c 1
 302 34 328 -10 328 -63 c 0
 328 -132 279 -186 217 -186 c 0
 145 -186 97 -132 97 -60 c 0
 97 35 172 85 203 99 c 1
 197 98 195 98 187 98 c 0
 124 98 68 145 68 209 c 0
 68 292 154 303 265 303 c 1
 265 390 317 450 400 450 c 0
482 303 m 1
 482 354 447 406 387 406 c 0
 331 406 297 362 297 303 c 1
 482 303 l 1
604 139 m 0
 645 139 671 163 671 207 c 0
 671 247.2 648.336 274 590 274 c 2
 590 274 567 274 553 274 c 1
 553 176 501 98 404 98 c 0
 352 98 314 118 290 158 c 1
 277 137 261 121 242 110 c 1
 252 113 266 114 284 114 c 0
 331 114 371 99 402 70 c 1
 437 99 482 114 537 114 c 0
 550 114 561 113 568 112 c 1
 564 150 l 1
 583 143 596 139 604 139 c 0
385 138 m 0
 451 138 482 196 482 274 c 1
 297 274 l 1
 297 208 306 138 385 138 c 0
593 -140 m 0
 630 -140 660 -106 660 -60 c 0
 660 -16 640 22 600 53 c 1
 549 18 524 -21 524 -64 c 0
 524 -110 561 -140 593 -140 c 0
140 214 m 0
 140 177 164 138 206 138 c 0
 245 138 265 162 265 210 c 2
 265 274 l 1
 232 274 l 2
 171 274 140 254 140 214 c 0
228 -140 m 0
 263 -140 296 -105 296 -64 c 0
 296 -20 271 19 222 53 c 1
 181 22 161 -15 161 -60 c 0
 161 -107 189 -140 228 -140 c 0
EndSplineSet
LCarets2: 1 0 
Ligature2: "FreeSerif-'akhn' Akhand in Malay+AQEA-lam subtable" ka_mal vocalic_l_mal
EndChar

StartChar: k1k1
Encoding: 59732 -1 106
Width: 1067
Flags: W
HStem: -8 56<688.692 773.36> -8 49<173.042 258.885 352.484 458.583> 222 35<180.532 278 311 506 578 625 665 767.667> 395 55<352.912 458.764 743.616 890.116>
VStem: 74 72<67.3864 195.386> 278 32<104.51 222 257 331.891> 506 72<102.878 222 257 336.525> 623 31<97.8645 222> 632 33<257 302.306> 798 66<72.6441 196.437> 982 82<112.588 293.239>
LayerCount: 2
Fore
SplineSet
632 257 m 1x7ee0
 650.664 354.986 711.6 450 831 450 c 0
 959.47 450 1064 346.659 1064 219 c 0
 1064 163.228 1052.58 80.1281 940 -14 c 1
 891 8 l 1
 942.707 53.551 982 124.4 982 202 c 0
 982 297.994 916.507 395 814 395 c 0
 733.121 395 678.826 320.367 665 257 c 1x7ee0
 718 257 l 2
 798 257 864 240.339 864 121 c 0
 864 68.675 840.8 -8 748 -8 c 0
 662.575 -8 623 101.843 623 168 c 0xbf60
 623 180 623.667 198 625 222 c 1
 578 222 l 1
 578 84.5379 516.8 -8 425 -8 c 0
 370.333 -8 330 18.6667 304 72 c 1
 297.172 55.9045 264.8 -8 206 -8 c 0
 126.8 -8 74 57.1797 74 136 c 0
 74 252 177 257 250 257 c 2
 278 257 l 1
 278 324.992 306.4 450 420 450 c 0
 543.2 450 569.403 308.219 574 257 c 1
 632 257 l 1x7ee0
726 48 m 0xbf60
 765.778 48 798 85.2486 798 128 c 0
 798 177.963 771.753 222 721 222 c 2
 658 222 l 1
 655.333 200.667 654 184 654 172 c 0
 654 128.925 674.081 48 726 48 c 0xbf60
506 257 m 1
 506 312.3 476.62 395 406 395 c 0
 330 395 311 303.962 311 257 c 1
 506 257 l 1
310 184 m 0
 310 139.688 328.8 41 404 41 c 0x7e60
 485.6 41 506 142.667 506 222 c 1
 311 222 l 1
 310.333 213.333 310 200.667 310 184 c 0
146 142 m 0
 146 100.978 165.952 41 216 41 c 0
 265.6 41 278 95.2336 278 137 c 2
 278 222 l 1
 245 222 l 2
 202.369 222 146 206 146 142 c 0
EndSplineSet
LCarets2: 2 0 0 
Ligature2: "FreeSerif-'akhn' Akhand in Malay+AQEA-lam subtable" ka_mal chandrakkala ka_mal
EndChar

StartChar: k1k1u1
Encoding: 59733 -1 107
Width: 1109
Flags: HW
LayerCount: 2
Fore
SplineSet
1034 208 m 1
 1099.29 178.793 1110 149.974 1110 114 c 0
 1110 29.25 1035.81 -10 974 -10 c 0
 953.333 -10 932.667 -5.33333 912 4 c 1
 898 55 l 1
 912.667 38.3333 931.667 30 955 30 c 0
 988.947 30 1026 54.1555 1026 108 c 0
 1026 134.8 1014.4 175 968 175 c 2
 927 175 l 1
 927 227 l 1
 966 228 l 2
 993.351 229.44 1017 273.511 1017 310 c 0
 1017 376.591 948.263 406 896 406 c 0
 769.933 406 711.24 362.426 670 256 c 1
 751 256 l 2
 830.631 256 866 190.707 866 128 c 0
 866 26.2 800.766 -8 754 -8 c 0
 702 -8 624 34.9188 624 168 c 0
 624 180 624.667 198 626 222 c 1
 578 222 l 1
 578 142.317 549.061 -8 425 -8 c 0
 369.667 -8 329.333 18.6667 304 72 c 1
 282.667 18.6667 250 -8 206 -8 c 0
 126.8 -8 74 56.6641 74 136 c 0
 74 249 165 257 247 257 c 2
 278 257 l 1
 278 324.327 306.4 450 420 450 c 0
 543.2 450 569.403 308.219 574 257 c 1
 633 257 l 1
 663.667 387 747.667 450 885 450 c 0
 989.899 450 1104 392.854 1104 301 c 0
 1104 247.178 1072.34 225.615 1034 208 c 1
730 48 m 0
 768.341 48 797 82.3664 797 133 c 0
 797 181.73 768.218 222 721 222 c 2
 658 222 l 1
 655.333 211.333 654 194.667 654 172 c 0
 654 75.65 699.6 48 730 48 c 0
506 257 m 1
 506 303.919 483.952 395 406 395 c 0
 330 395 311 307.376 311 257 c 1
 506 257 l 1
310 185 m 0
 310 135.919 328.8 41 404 41 c 0
 485.6 41 506 142.667 506 222 c 1
 311 222 l 1
 310.333 214 310 201.667 310 185 c 0
146 142 m 0
 146 100.978 165.952 41 216 41 c 0
 257.333 41 278 73 278 137 c 2
 278 222 l 1
 245 222 l 2
 179 222 146 195.333 146 142 c 0
EndSplineSet
LCarets2: 1 0 
Ligature2: "FreeSerif-'psts' Post Base Substitutions in Malay+AQEA-lam subtable" k1k1 u_sign_mal
EndChar

StartChar: k1k1u2
Encoding: 59734 -1 108
Width: 1089
Flags: HW
LayerCount: 2
Fore
SplineSet
886 452 m 0
 987.635 452 1092 406.18 1092 316 c 0
 1092 277.333 1065.67 247.667 1013 227 c 1
 1063.67 206.333 1089 170.667 1089 120 c 0
 1089 36.9048 1026.99 -3 936 -3 c 2
 175 -3 l 2
 144.926 -3 123 -24.7299 123 -49.5 c 128
 123 -65.7 133.4 -90 175 -90 c 2
 1086 -90 l 1
 1086 -161 l 1
 175 -161 l 2
 92.6 -161 72 -99.8375 72 -65.5 c 128
 72 -21.7188 100.964 30 175 30 c 2
 870 30 l 2
 979.995 30 1006 84 1006 120 c 0
 1006 156.8 980.4 196 942 196 c 2
 906 196 l 1
 906 247 l 1
 938 247 l 2
 963.3 247 995 282.206 995 327 c 0
 995 385.111 937.75 411 874 411 c 0
 791.743 411 695.746 368.481 658 286 c 1
 725 286 l 2
 825.013 286 849 221.42 849 182 c 0
 849 100.639 788.849 64 732 64 c 0
 684.8 64 614 95.1359 614 210 c 0
 614 230 614.667 245.333 616 256 c 1
 578 256 l 1
 578 183.241 547.4 62 425 62 c 0
 369.667 62 329.333 84.6667 304 130 c 1
 281.333 84.6667 248.667 62 206 62 c 0
 130.994 62 74 110.8 74 184 c 0
 74 265.6 139.487 286 242 286 c 2
 278 286 l 1
 278 376.775 332.895 448 420 448 c 0
 543.2 448 569.026 330.148 574 286 c 1
 623 286 l 1
 659.034 418.672 803.176 452 886 452 c 0
712 110 m 0
 748.206 110 778 137.963 778 181 c 0
 778 218.688 752.425 256 700 256 c 2
 648 256 l 1
 646 246.667 645 232.667 645 214 c 0
 645 125.775 685.2 110 712 110 c 0
506 286 m 1
 506 338.202 474.333 400 406 400 c 0
 339.604 400 311 340.744 311 286 c 1
 506 286 l 1
310 225 m 0
 310 163.017 343.499 104 404 104 c 0
 472 104 506 154.667 506 256 c 1
 311 256 l 1
 310.333 249.333 310 239 310 225 c 0
146 188 m 0
 146 145.3 174.831 104 216 104 c 0
 257.333 104 278 131 278 185 c 2
 278 256 l 1
 245 256 l 2
 179 256 146 233.333 146 188 c 0
EndSplineSet
LCarets2: 1 0 
Ligature2: "FreeSerif-'psts' Post Base Substitutions in Malay+AQEA-lam subtable" k1k1 uu_sign_mal
EndChar

StartChar: k1k1r1
Encoding: 59735 -1 109
Width: 1067
Flags: HW
LayerCount: 2
Fore
SplineSet
632 257 m 1
 668.123 437.615 794.258 452 831 452 c 0
 933.844 452 1070 358.671 1070 145 c 0
 1070 -33.434 960.272 -228 717 -228 c 0
 682.3 -228 503 -211.8 503 -147 c 0
 503 -105.6 606.982 -78 717 -78 c 0
 773 -78 825.667 -86.6667 875 -104 c 1
 812 -123 l 1
 785.333 -115 754.667 -111 720 -111 c 0
 684.3 -111 594 -118 594 -146 c 0
 594 -179.6 694.373 -188 720 -188 c 0
 886.2 -188 997 -66.1215 997 124 c 0
 997 324.452 885.4 394 811 394 c 0
 752.6 394 685.576 354 665 257 c 1
 799.762 257 830.316 237.62 852.5 186.5 c 128
 860.167 168.833 864 147 864 121 c 0
 864 68.675 840.8 -8 748 -8 c 0
 662.575 -8 623 101.843 623 168 c 0
 623 180 623.667 198 625 222 c 1
 578 222 l 1
 578 136.335 547.4 -8 425 -8 c 0
 370.333 -8 330 18.6667 304 72 c 1
 282 18.6667 249.333 -8 206 -8 c 0
 126.8 -8 74 54.3438 74 136 c 0
 74 244 164.984 257 251 257 c 2
 278 257 l 1
 278 324.992 306.4 450 420 450 c 0
 481.6 450 561.76 406.938 574 257 c 1
 632 257 l 1
726 48 m 0
 766.957 48 798 85.2405 798 128 c 0
 798 177.963 771.753 222 721 222 c 2
 658 222 l 1
 655.333 211.333 654 194.667 654 172 c 0
 654 128.925 674.081 48 726 48 c 0
506 257 m 1
 506 303.919 483.952 395 406 395 c 0
 330 395 311 309.565 311 257 c 1
 506 257 l 1
404 41 m 0
 485.6 41 506 142.667 506 222 c 1
 311 222 l 1
 311 122 337.531 41 404 41 c 0
146 142 m 0
 146 100.978 165.952 41 216 41 c 0
 257.333 41 278 73 278 137 c 2
 278 222 l 1
 245 222 l 2
 179 222 146 195.333 146 142 c 0
EndSplineSet
LCarets2: 1 0 
Ligature2: "FreeSerif-'psts' Post Base Substitutions in Malay+AQEA-lam subtable" k1k1 r_voc_mal
EndChar

StartChar: k1k1r3
Encoding: 59736 -1 110
Width: 1207
Flags: HW
LayerCount: 2
Fore
SplineSet
978 450 m 0
 1133.1 450 1210 337.309 1210 212 c 0
 1210 -28 1066.3 -188 654 -188 c 0
 267.333 -188 74 -52.6667 74 218 c 0
 74 287.859 87.1882 350.81 176 448 c 1
 202 408 l 1
 126.63 326.077 114 273.762 114 215 c 0
 114 -47.5071 347.77 -132 636 -132 c 0
 884.2 -132 1132 -65.6 1132 200 c 0
 1132 309.811 1063.2 395 960 395 c 0
 871.2 395 823.426 309.369 812 257 c 1
 870 257 l 2
 929 257 1010 243 1010 121 c 0
 1010 68.6813 987 -8 895 -8 c 0
 810.908 -8 769 100.326 769 168 c 0
 769 178.8 771 211.2 771 222 c 1
 725 222 l 1
 725 139.264 694 -8 570 -8 c 0
 516 -8 476 18.6667 450 72 c 1
 429.333 18.6667 397 -8 353 -8 c 0
 270.575 -8 222 58.9645 222 136 c 0
 222 249 318 257 396 257 c 2
 425 257 l 1
 425 369.661 481.4 450 566 450 c 0
 690.8 450 715.973 310.574 722 257 c 1
 778 257 l 1
 797.97 355.675 858 450 978 450 c 0
873 48 m 0
 912.447 48 944 85.1955 944 128 c 0
 944 163.7 928.8 222 868 222 c 2
 806 222 l 1
 802.667 208.667 801 192 801 172 c 0
 801 137.75 815.787 48 873 48 c 0
652 257 m 1
 652 303.919 629.952 395 552 395 c 0
 495.6 395 458 339.8 458 257 c 1
 652 257 l 1
550 41 m 0
 631.6 41 652 142 652 222 c 1
 458 222 l 1
 458 136 472 41 550 41 c 0
293 142 m 0
 293 103.609 311.486 41 362 41 c 0
 404 41 425 73 425 137 c 2
 425 222 l 1
 392 222 l 2
 326 222 293 195.333 293 142 c 0
EndSplineSet
LCarets2: 2 0 0 
Ligature2: "FreeSerif-'pres' Pre Base Substitutions in Malay+AQEA-lam subtable" k1k1 r4
Ligature2: "FreeSerif-'pres' Pre Base Substitutions in Malay+AQEA-lam subtable" k1k1 chandrakkala ra_mal
EndChar

StartChar: k1k1r3u1
Encoding: 59737 -1 111
Width: 1207
Flags: HW
LayerCount: 2
Fore
SplineSet
978 450 m 0
 1133.1 450 1210 337.309 1210 212 c 0
 1210 91.3333 1172.67 -2 1098 -68 c 1
 1152.12 -75.9193 1194 -123.646 1194 -180 c 0
 1194 -244.574 1143.62 -292 1083 -292 c 0
 1015.96 -292 970 -240.967 970 -180 c 0
 970 -166 972.667 -152.667 978 -140 c 1
 892.667 -172 784.667 -188 654 -188 c 0
 267.333 -188 74 -52.6667 74 218 c 0
 74 287.859 87.1882 350.81 176 448 c 1
 202 408 l 1
 126.63 326.077 114 273.762 114 215 c 0
 114 -47.5071 347.77 -132 636 -132 c 0
 884.2 -132 1132 -65.6 1132 200 c 0
 1132 309.811 1063.2 395 960 395 c 0
 871.2 395 823.426 309.369 812 257 c 1
 869 257 l 2
 930 257 1010 250 1010 121 c 0
 1010 68.6813 987 -8 895 -8 c 0
 810.908 -8 769 100.326 769 168 c 0
 769 178.8 771 211.2 771 222 c 1
 725 222 l 1
 725 139.264 694 -8 570 -8 c 0
 516 -8 476 18.6667 450 72 c 1
 429.333 18.6667 397 -8 353 -8 c 0
 270.575 -8 222 58.9645 222 136 c 0
 222 246 315 257 396 257 c 2
 425 257 l 1
 425 369.661 481.4 450 566 450 c 0
 690.8 450 715.973 310.574 722 257 c 1
 778 257 l 1
 797.97 355.675 858 450 978 450 c 0
873 48 m 0
 912.447 48 944 85.1955 944 128 c 0
 944 163.7 928.8 222 868 222 c 2
 806 222 l 1
 802.667 208.667 801 192 801 172 c 0
 801 137.75 815.787 48 873 48 c 0
1072 -230 m 0
 1109.67 -230 1139 -200.015 1139 -165 c 0
 1139 -126 1109.75 -100 1074 -100 c 0
 1043.08 -100 1008 -120.116 1008 -164 c 0
 1008 -203.6 1038.55 -230 1072 -230 c 0
652 257 m 1
 652 303.919 629.952 395 552 395 c 0
 495.6 395 458 339.8 458 257 c 1
 652 257 l 1
550 41 m 0
 631.6 41 652 142.348 652 222 c 1
 458 222 l 1
 458 162 460 41 550 41 c 0
293 142 m 0
 293 103.609 311.486 41 362 41 c 0
 404 41 425 73 425 137 c 2
 425 222 l 1
 392 222 l 2
 326 222 293 195.333 293 142 c 0
EndSplineSet
LCarets2: 1 0 
Ligature2: "FreeSerif-'psts' Post Base Substitutions in Malay+AQEA-lam subtable" k1k1r3 u_sign_mal
EndChar

StartChar: k1k1r3u2
Encoding: 59738 -1 112
Width: 1207
Flags: HW
LayerCount: 2
Fore
SplineSet
978 450 m 0
 1133.1 450 1210 337.309 1210 212 c 0
 1210 84.6667 1169 -12 1087 -78 c 1
 1154.95 -89.7599 1208 -147.941 1208 -222 c 0
 1208 -303.892 1142.93 -368 1061.5 -368 c 128
 980.716 -368 916 -307.427 916 -222 c 0
 916 -197.333 921.667 -174.667 933 -154 c 1
 860.333 -176.667 767.333 -188 654 -188 c 0
 267.333 -188 74 -52.6667 74 218 c 0
 74 287.859 87.1882 350.81 176 448 c 1
 202 408 l 1
 126.63 326.077 114 273.762 114 215 c 0
 114 -47.5071 347.77 -132 636 -132 c 0
 884.2 -132 1132 -65.6 1132 200 c 0
 1132 309.811 1063.2 395 960 395 c 0
 871.2 395 823.426 309.369 812 257 c 1
 869 257 l 2
 939 257 1010 251 1010 121 c 0
 1010 68.6813 987 -8 895 -8 c 0
 810.908 -8 769 100.326 769 168 c 0
 769 178.8 771 211.2 771 222 c 1
 725 222 l 1
 725 139.264 694 -8 570 -8 c 0
 516 -8 476 18.6667 450 72 c 1
 429.333 18.6667 397 -8 353 -8 c 0
 270.575 -8 222 58.9645 222 136 c 0
 222 234 312 257 396 257 c 2
 425 257 l 1
 425 369.661 481.4 450 566 450 c 0
 690.8 450 715.973 310.574 722 257 c 1
 778 257 l 1
 797.97 355.675 858 450 978 450 c 0
873 48 m 0
 912.447 48 944 85.1955 944 128 c 0
 944 163.7 928.8 222 868 222 c 2
 806 222 l 1
 802.667 208.667 801 192 801 172 c 0
 801 137.75 815.787 48 873 48 c 0
1051 -220 m 0
 1079.2 -220 1103 -196.918 1103 -167 c 0
 1103 -144.74 1077.68 -119 1052 -119 c 0
 1016.67 -119 999 -135 999 -167 c 0
 999 -196.959 1022.83 -220 1051 -220 c 0
652 257 m 1
 652 303.919 629.952 395 552 395 c 0
 495.6 395 458 339.8 458 257 c 1
 652 257 l 1
1049 -317 m 128
 1104.06 -317 1148 -273.238 1148 -220 c 0
 1148 -196.667 1141.33 -176.333 1128 -159 c 1
 1128.67 -161.667 1129 -166 1129 -172 c 0
 1129 -221.526 1089.77 -258 1044 -258 c 0
 999.87 -258 963.605 -226.843 958 -182 c 1
 952.667 -196.667 950 -208.667 950 -218 c 0
 950 -274.889 995.855 -317 1049 -317 c 128
550 41 m 0
 631.6 41 652 142.348 652 222 c 1
 458 222 l 1
 458 130 474 41 550 41 c 0
293 142 m 0
 293 103.609 311.486 41 362 41 c 0
 404 41 425 73 425 137 c 2
 425 222 l 1
 392 222 l 2
 326 222 293 195.333 293 142 c 0
EndSplineSet
LCarets2: 1 0 
Ligature2: "FreeSerif-'psts' Post Base Substitutions in Malay+AQEA-lam subtable" k1k1r3 uu_sign_mal
EndChar

StartChar: k1t1u1
Encoding: 59740 -1 114
Width: 775
Flags: HWO
LayerCount: 2
Fore
SplineSet
641 255 m 2
 726.693 255 776 198.942 776 118 c 0
 776 55.9234 734.55 -10 660 -10 c 0
 634.667 -10 613.667 -3.66667 597 9 c 1
 592 56 l 1
 608.667 45.3333 622 40 632 40 c 0
 679.63 40 704 84.3812 704 130 c 0
 704 213.812 649.168 220 634 220 c 2
 578 220 l 1
 578 124.122 540.626 -10 425 -10 c 0
 369.667 -10 329.333 16.6667 304 70 c 1
 282.667 16.6667 250 -10 206 -10 c 0
 126.8 -10 74 55.1797 74 134 c 0
 74 249 165 255 242 255 c 2
 278 255 l 1
 278 322.992 306.4 448 420 448 c 0
 543.2 448 569.403 306.219 574 255 c 1
 641 255 l 2
711 -306 m 5
 730.642 -316.185 771 -345.2 771 -404 c 4
 771 -469.788 718.756 -516 658 -516 c 4
 598.444 -516 547 -469.655 547 -404 c 4
 547 -366.667 561 -337.667 589 -317 c 5
 552.333 -309 524.333 -295 505 -275 c 5
 522 -253 l 5
 543.418 -274.418 593.184 -291 635 -291 c 4
 677.128 -291 718 -276.472 718 -238 c 4
 718 -222 703.6 -198 656 -198 c 6
 592 -198 l 6
 538.48 -198 505 -162.163 505 -117 c 4
 505 -39.4 581.812 -20 631 -20 c 4
 687 -20 731 -36 763 -68 c 5
 742 -88 l 5
 720 -64 686 -52 640 -52 c 4
 595.861 -52 551 -67.9377 551 -108 c 4
 551 -130.8 569 -146 596 -146 c 6
 658 -146 l 6
 738.763 -146 762 -192.8 762 -224 c 4
 762 -260 745 -287.333 711 -306 c 5
506 255 m 1
 506 301.919 483.952 393 406 393 c 128
 330 393 311 301.962 311 255 c 1
 506 255 l 1
404 39 m 0
 485.6 39 506 140.667 506 220 c 1
 311 220 l 1
 311 129 333 39 404 39 c 0
146 140 m 0
 146 98.9781 165.952 39 216 39 c 0
 257.333 39 278 71 278 135 c 2
 278 220 l 1
 245 220 l 2
 179 220 146 193.333 146 140 c 0
658.5 -456 m 132
 693.482 -456 723 -430.016 723 -392 c 4
 723 -358.17 695.779 -328 658.5 -328 c 132
 621.216 -328 595 -357.727 595 -392 c 4
 595 -425.638 620.4 -456 658.5 -456 c 132
EndSplineSet
LCarets2: 1 0 
Ligature2: "FreeSerif-'psts' Post Base Substitutions in Malay+AQEA-lam subtable" k1t1 u_sign_mal
EndChar

StartChar: k1t1u2
Encoding: 59741 -1 115
Width: 775
Flags: HW
LayerCount: 2
Fore
SplineSet
641 255 m 2
 726.693 255 776 198.942 776 118 c 0
 776 55.9234 734.55 -10 660 -10 c 0
 634.667 -10 613.667 -3.66667 597 9 c 1
 592 56 l 1
 608.667 45.3333 622 40 632 40 c 0
 679.63 40 704 84.3812 704 130 c 0
 704 189 662.6 220 635 220 c 2
 578 220 l 1
 578 124.122 540.626 -10 425 -10 c 0
 369.667 -10 329.333 16.6667 304 70 c 1
 282.667 16.6667 250 -10 206 -10 c 0
 126.8 -10 74 55.1797 74 134 c 0
 74 240 162 255 242 255 c 2
 278 255 l 1
 278 322.992 306.4 448 420 448 c 0
 543.2 448 569.403 306.219 574 255 c 1
 641 255 l 2
706 -304 m 1
 722.394 -313.368 769 -346.8 769 -411 c 0
 769 -480.716 712.401 -534 646 -534 c 0
 578.438 -534 522 -480.822 522 -411 c 0
 522 -368.333 540 -334.667 576 -310 c 1
 544.667 -301.333 521 -288.333 505 -271 c 1
 522 -249 l 1
 543.418 -270.418 593.184 -287 635 -287 c 0
 677.128 -287 718 -272.472 718 -234 c 0
 718 -218 703.6 -194 656 -194 c 2
 592 -194 l 2
 538.48 -194 505 -158.163 505 -113 c 0
 505 -35.4 578.175 -16 631 -16 c 0
 687 -16 731 -32 763 -64 c 1
 742 -84 l 1
 718.667 -59.3333 684.667 -47 640 -47 c 0
 596.032 -47 551 -63.5831 551 -104 c 0
 551 -126.8 569 -142 596 -142 c 2
 658 -142 l 2
 741.2 -142 762 -188.8 762 -220 c 0
 762 -258.667 743.333 -286.667 706 -304 c 1
506 255 m 1
 506 301.919 483.952 393 406 393 c 128
 330 393 311 301.962 311 255 c 1
 506 255 l 1
404 39 m 0
 485.6 39 506 140.667 506 220 c 1
 311 220 l 1
 311 180.688 315 39 404 39 c 0
146 140 m 0
 146 98.9781 165.952 39 216 39 c 0
 257.333 39 278 71 278 135 c 2
 278 220 l 1
 245 220 l 2
 179 220 146 193.333 146 140 c 0
632 -402 m 0
 652.7 -402 675 -385.003 675 -358 c 0
 675 -338 666.333 -323.667 647 -317 c 1
 642.333 -317.667 637.636 -318.334 632.668 -318.334 c 1
 625.333 -318.334 621.333 -317.667 618 -317 c 1
 598 -324.333 588 -338 588 -358 c 0
 588 -383.499 608.716 -402 632 -402 c 0
636 -482 m 128
 682 -482 726 -450 726 -402 c 0
 726 -382.667 720 -364.667 708 -348 c 1
 708.667 -352 709 -357 709 -363 c 0
 709 -404.674 675.481 -436 637 -436 c 0
 594.49 -436 564 -401.836 564 -363 c 0
 564 -354.333 564.667 -348 566 -344 c 1
 556 -356 551 -375.333 551 -402 c 0
 551 -450 591 -482 636 -482 c 128
EndSplineSet
LCarets2: 1 0 
Ligature2: "FreeSerif-'psts' Post Base Substitutions in Malay+AQEA-lam subtable" k1t1 uu_sign_mal
EndChar

StartChar: k1t1r3
Encoding: 59742 -1 116
Width: 775
Flags: HW
LayerCount: 2
Fore
SplineSet
641 255 m 2
 726.693 255 776 198.942 776 118 c 0
 776 55.9234 734.55 -10 660 -10 c 0
 634.667 -10 613.667 -3.66667 597 9 c 1
 592 56 l 1
 608.667 45.3333 622 40 632 40 c 0
 679.63 40 704 84.3812 704 130 c 0
 704 198 669 220 634 220 c 2
 578 220 l 1
 578 124.122 540.626 -10 425 -10 c 0
 369.667 -10 329.333 16.6667 304 70 c 1
 282.667 16.6667 250 -10 206 -10 c 0
 126.8 -10 74 55.1797 74 134 c 0
 74 234 156 255 242 255 c 2
 278 255 l 1
 278 322.992 306.4 448 420 448 c 0
 543.2 448 569.403 306.219 574 255 c 1
 641 255 l 2
652 -149 m 2
 720.041 -149 760 -192.024 760 -235 c 0
 760 -297.041 692.895 -324 623 -324 c 0
 493.761 -324 398 -236.056 398 -142 c 0
 398 -98 416.667 -57.3333 454 -20 c 1
 476 -39 l 1
 446.667 -68.3333 432 -101.333 432 -138 c 0
 432 -217.203 510.956 -290 616 -290 c 0
 670.35 -290 711 -268.8 711 -237 c 0
 711 -223 694.9 -202 648 -202 c 2
 616 -202 l 2
 535.333 -202 495 -176 495 -124 c 0
 495 -40.8 581.281 -20 630 -20 c 0
 684.667 -20 727.667 -36 759 -68 c 1
 738 -88 l 1
 714.667 -64 680.667 -52 636 -52 c 0
 601.925 -52 541 -62.8703 541 -116 c 128
 541 -138 566.667 -149 618 -149 c 2
 652 -149 l 2
506 255 m 1
 506 301.919 483.952 393 406 393 c 128
 330 393 311 301.962 311 255 c 1
 506 255 l 1
404 39 m 0
 485.6 39 506 140.667 506 220 c 1
 311 220 l 1
 311 160 322.5 39 404 39 c 0
146 140 m 0
 146 98.9781 165.952 39 216 39 c 0
 257.333 39 278 71 278 135 c 2
 278 220 l 1
 245 220 l 2
 179 220 146 193.333 146 140 c 0
EndSplineSet
LCarets2: 2 0 0 
Ligature2: "FreeSerif-'pres' Pre Base Substitutions in Malay+AQEA-lam subtable" k1t1 r4
Ligature2: "FreeSerif-'pres' Pre Base Substitutions in Malay+AQEA-lam subtable" k1t1 chandrakkala ra_mal
EndChar

StartChar: k1t1r3u1
Encoding: 59743 -1 117
Width: 775
Flags: HW
LayerCount: 2
Fore
SplineSet
641 255 m 2
 726.693 255 776 198.942 776 118 c 0
 776 55.9234 734.55 -10 660 -10 c 0
 634.667 -10 613.667 -3.66667 597 9 c 1
 592 56 l 1
 608.667 45.3333 622 40 632 40 c 0
 679.63 40 704 84.3812 704 130 c 0
 704 198 669 220 634 220 c 2
 578 220 l 1
 578 124.122 540.626 -10 425 -10 c 0
 369.667 -10 329.333 16.6667 304 70 c 1
 282.667 16.6667 250 -10 206 -10 c 0
 126.8 -10 74 55.1797 74 134 c 0
 74 234 156 255 242 255 c 2
 278 255 l 1
 278 322.992 306.4 448 420 448 c 0
 543.2 448 569.403 306.219 574 255 c 1
 641 255 l 2
506 255 m 1
 506 301.919 483.952 393 406 393 c 128
 330 393 311 301.962 311 255 c 1
 506 255 l 1
404 39 m 0
 485.6 39 506 140.667 506 220 c 1
 311 220 l 1
 311 160 322.5 39 404 39 c 0
146 140 m 0
 146 98.9781 165.952 39 216 39 c 0
 257.333 39 278 71 278 135 c 2
 278 220 l 1
 245 220 l 2
 179 220 146 193.333 146 140 c 0
652 -149 m 2
 720.041 -149 760 -192.024 760 -235 c 0
 760 -265 743 -289.333 709 -308 c 1
 743.667 -329.333 761 -360.333 761 -401 c 0
 761 -465.34 710.109 -514 648.5 -514 c 128
 588.018 -514 537 -467.768 537 -401 c 0
 537 -368.333 548.667 -341 572 -319 c 1
 481.745 -302.152 398 -235.525 398 -142 c 0
 398 -98 416.667 -57.3333 454 -20 c 1
 476 -39 l 1
 446.667 -68.3333 432 -101.333 432 -138 c 0
 432 -217.203 510.956 -290 616 -290 c 0
 670.35 -290 711 -268.8 711 -237 c 0
 711 -223 694.9 -202 648 -202 c 2
 616 -202 l 2
 535.333 -202 495 -176 495 -124 c 0
 495 -40.8 581.281 -20 630 -20 c 0
 684.667 -20 727.667 -36 759 -68 c 1
 738 -88 l 1
 714.667 -64 680.667 -52 636 -52 c 0
 601.925 -52 541 -62.8703 541 -116 c 128
 541 -138 566.667 -149 618 -149 c 2
 652 -149 l 2
648 -453 m 0
 682.275 -453 713 -427.8 713 -390 c 0
 713 -351 682.125 -325 648 -325 c 0
 610.2 -325 585 -355.725 585 -390 c 0
 585 -427.8 613.35 -453 648 -453 c 0
EndSplineSet
LCarets2: 1 0 
Ligature2: "FreeSerif-'psts' Post Base Substitutions in Malay+AQEA-lam subtable" k1t1r3 u_sign_mal
EndChar

StartChar: k1t1r3u2
Encoding: 59744 -1 118
Width: 775
Flags: HW
LayerCount: 2
Fore
SplineSet
641 255 m 2
 726.693 255 776 198.942 776 118 c 0
 776 55.9234 734.55 -10 660 -10 c 0
 634.667 -10 613.667 -3.66667 597 9 c 1
 592 56 l 1
 608.667 45.3333 622 40 632 40 c 0
 679.63 40 704 84.3812 704 130 c 0
 704 198 669 220 634 220 c 2
 578 220 l 1
 578 124.122 540.626 -10 425 -10 c 0
 369.667 -10 329.333 16.6667 304 70 c 1
 282.667 16.6667 250 -10 206 -10 c 0
 126.8 -10 74 55.1797 74 134 c 0
 74 234 156 255 242 255 c 2
 278 255 l 1
 278 322.992 306.4 448 420 448 c 0
 543.2 448 569.403 306.219 574 255 c 1
 641 255 l 2
506 255 m 1
 506 301.919 483.952 393 406 393 c 128
 330 393 311 301.962 311 255 c 1
 506 255 l 1
404 39 m 0
 485.6 39 506 140.667 506 220 c 1
 311 220 l 1
 311 160 322.5 39 404 39 c 0
146 140 m 0
 146 98.9781 165.952 39 216 39 c 0
 257.333 39 278 71 278 135 c 2
 278 220 l 1
 245 220 l 2
 179 220 146 193.333 146 140 c 0
652 -149 m 2
 720.041 -149 760 -192.024 760 -235 c 0
 760 -269 740.667 -294 702 -310 c 1
 740 -334.667 759 -369 759 -413 c 0
 759 -484.54 700.969 -536 636 -536 c 0
 567.333 -536 512 -480.933 512 -413 c 0
 512 -373 528 -340.667 560 -316 c 1
 476.038 -295.896 398 -232.638 398 -142 c 0
 398 -98 416.667 -57.3333 454 -20 c 1
 476 -39 l 1
 446.667 -68.3333 432 -101.333 432 -138 c 0
 432 -217.203 510.956 -290 616 -290 c 0
 670.35 -290 711 -268.8 711 -237 c 0
 711 -223 694.9 -202 648 -202 c 2
 616 -202 l 2
 535.333 -202 495 -176 495 -124 c 0
 495 -40.8 581.281 -20 630 -20 c 0
 684.667 -20 727.667 -36 759 -68 c 1
 738 -88 l 1
 714.667 -64 680.667 -52 636 -52 c 0
 601.925 -52 541 -62.8703 541 -116 c 128
 541 -138 566.667 -149 618 -149 c 2
 652 -149 l 2
622 -404 m 0
 642.7 -404 665 -387.003 665 -360 c 0
 665 -344.667 658 -332.333 644 -323 c 1
 640 -323.667 633 -324 623 -324 c 0
 611.667 -324 604 -323.667 600 -323 c 1
 585.333 -331 578 -343.333 578 -360 c 0
 578 -385.499 598.716 -404 622 -404 c 0
626 -484 m 128
 672 -484 716 -452 716 -404 c 0
 716 -384.667 710 -366.667 698 -350 c 1
 698 -365 l 2
 698 -407.968 665.488 -438 627 -438 c 128
 588.681 -438 554 -408.024 554 -365 c 0
 554 -360.333 554.667 -354 556 -346 c 1
 546 -358 541 -377.333 541 -404 c 0
 541 -452 581 -484 626 -484 c 128
EndSplineSet
LCarets2: 1 0 
Ligature2: "FreeSerif-'psts' Post Base Substitutions in Malay+AQEA-lam subtable" k1t1r3 uu_sign_mal
EndChar

StartChar: k1nh
Encoding: 59745 -1 119
Width: 775
Flags: HW
LayerCount: 2
Fore
SplineSet
641 255 m 2
 726.693 255 776 198.942 776 118 c 0
 776 55.9234 734.55 -10 660 -10 c 0
 634.667 -10 613.667 -3.66667 597 9 c 1
 592 56 l 1
 608.667 45.3333 622 40 632 40 c 0
 679.63 40 704 84.3812 704 130 c 0
 704 198 669 220 634 220 c 2
 578 220 l 1
 578 124.122 540.626 -10 425 -10 c 0
 369.667 -10 329.333 16.6667 304 70 c 1
 282.667 16.6667 250 -10 206 -10 c 0
 126.8 -10 74 55.1797 74 134 c 0
 74 234 156 255 242 255 c 2
 278 255 l 1
 278 322.992 306.4 448 420 448 c 0
 543.2 448 569.403 306.219 574 255 c 1
 641 255 l 2
506 255 m 1
 506 301.919 483.952 393 406 393 c 128
 330 393 311 301.962 311 255 c 1
 506 255 l 1
404 39 m 0
 485.6 39 506 140.667 506 220 c 1
 311 220 l 1
 311 160 322.5 39 404 39 c 0
146 140 m 0
 146 98.9781 165.952 39 216 39 c 0
 257.333 39 278 71 278 135 c 2
 278 220 l 1
 245 220 l 2
 179 220 146 193.333 146 140 c 0
639.5 -14 m 0
 702.062 -14 774 -67.6568 774 -167 c 0
 774 -210.206 758.972 -282.869 677 -318 c 1
 641 -302 l 1
 689 -272 713 -228 713 -170 c 0
 713 -81.3613 663.2 -56 630 -56 c 0
 599.329 -56 574 -75.0247 574 -104 c 2
 574 -312 l 1
 513 -312 l 1
 513 -130 l 2
 513 -90.4405 483.823 -60 442 -60 c 0
 423.8 -60 386 -68.4 386 -102 c 2
 386 -312 l 1
 324 -312 l 1
 324 -115 l 2
 324 -82.574 283.894 -58 246 -58 c 0
 177 -58 141.148 -95.3567 131 -174 c 1
 149.667 -148.667 171.333 -136 196 -136 c 0
 241.983 -136 276 -176.831 276 -231 c 0
 276 -287.109 236.865 -319 194 -319 c 0
 132.67 -319 100 -261.502 100 -195 c 0
 100 -75.416 173.408 -14 271 -14 c 0
 315.667 -14 349 -30 371 -62 c 1
 391.667 -31.3333 421 -16 459 -16 c 0
 503.667 -16 536.667 -30.6667 558 -60 c 1
 577.333 -29.3333 604.5 -14 639.5 -14 c 0
181 -273 m 0
 203.169 -273 226 -258.17 226 -228 c 0
 226 -184.25 198.9 -176 183 -176 c 0
 158.026 -176 140 -194.241 140 -224 c 0
 140 -263.2 164.6 -273 181 -273 c 0
EndSplineSet
LCarets2: 2 0 0 
Ligature2: "FreeSerif-'akhn' Akhand in Malay+AQEA-lam subtable" ka_mal chandrakkala nna_mal
EndChar

StartChar: k1nhu1
Encoding: 59746 -1 120
Width: 796
Flags: HW
LayerCount: 2
Fore
SplineSet
641 255 m 2
 726.693 255 776 198.942 776 118 c 0
 776 55.9234 734.55 -10 660 -10 c 0
 634.667 -10 613.667 -3.66667 597 9 c 1
 592 56 l 1
 608.667 45.3333 622 40 632 40 c 0
 679.63 40 704 84.3812 704 130 c 0
 704 198 669 220 634 220 c 2
 578 220 l 1
 578 124.122 540.626 -10 425 -10 c 0
 369.667 -10 329.333 16.6667 304 70 c 1
 282.667 16.6667 250 -10 206 -10 c 0
 126.8 -10 74 55.1797 74 134 c 0
 74 234 156 255 242 255 c 2
 278 255 l 1
 278 322.992 306.4 448 420 448 c 0
 543.2 448 569.403 306.219 574 255 c 1
 641 255 l 2
506 255 m 1
 506 301.919 483.952 393 406 393 c 128
 330 393 311 301.962 311 255 c 1
 506 255 l 1
404 39 m 0
 485.6 39 506 140.667 506 220 c 1
 311 220 l 1
 311 160 322.5 39 404 39 c 0
146 140 m 0
 146 98.9781 165.952 39 216 39 c 0
 257.333 39 278 71 278 135 c 2
 278 220 l 1
 245 220 l 2
 179 220 146 193.333 146 140 c 0
635 -20 m 0
 741.4 -20 794 -112.138 794 -196 c 0
 794 -290.185 735.2 -320 696 -320 c 128
 650.149 -320 597 -281.721 597 -198 c 0
 597 -178.159 600.862 -114.655 665 -65 c 1
 651.667 -59 637.333 -56 622 -56 c 0
 579.4 -56 545 -75.2 545 -104 c 2
 545 -314 l 1
 482 -314 l 1
 482 -134 l 2
 482 -76.4 440.9 -62 412 -62 c 0
 381.715 -62 356 -77.0156 356 -104 c 2
 356 -314 l 1
 294 -314 l 1
 294 -118 l 2
 294 -84.4 257.9 -62 216 -62 c 0
 189.178 -62 114.077 -73.9417 100 -176 c 1
 116.667 -150.667 138.667 -138 166 -138 c 0
 214.6 -138 247 -185.7 247 -237 c 0
 247 -270.6 231.2 -321 168 -321 c 0
 89.6 -321 70 -243.563 70 -198 c 0
 70 -91.4254 147.42 -18 232 -18 c 0
 272.667 -18 308.667 -34 340 -66 c 1
 364 -34 396.667 -18 438 -18 c 0
 477.333 -18 508.667 -33 532 -63 c 1
 561.333 -34.3333 595.667 -20 635 -20 c 0
685 -274 m 0
 706.2 -274 738 -259.4 738 -201 c 0
 738 -167.781 724.802 -110.638 690 -79 c 1
 647.333 -113 626 -153.333 626 -200 c 0
 626 -256.25 661.4 -274 685 -274 c 0
152 -277 m 0
 187.2 -277 196 -245.1 196 -227.5 c 128
 196 -199.9 179.2 -178 154 -178 c 0
 127.6 -178 110 -197.2 110 -226 c 0
 110 -252.747 129.273 -277 152 -277 c 0
EndSplineSet
LCarets2: 1 0 
Ligature2: "FreeSerif-'psts' Post Base Substitutions in Malay+AQEA-lam subtable" k1nh u_sign_mal
EndChar

StartChar: k1nhu2
Encoding: 59747 -1 121
Width: 870
Flags: HW
LayerCount: 2
Fore
SplineSet
641 255 m 2
 726.693 255 776 198.942 776 118 c 0
 776 55.9234 734.55 -10 660 -10 c 0
 634.667 -10 613.667 -3.66667 597 9 c 1
 592 56 l 1
 608.667 45.3333 622 40 632 40 c 0
 679.63 40 704 84.3812 704 130 c 0
 704 198 669 220 634 220 c 2
 578 220 l 1
 578 124.122 540.626 -10 425 -10 c 0
 369.667 -10 329.333 16.6667 304 70 c 1
 282.667 16.6667 250 -10 206 -10 c 0
 126.8 -10 74 55.1797 74 134 c 0
 74 234 156 255 242 255 c 2
 278 255 l 1
 278 322.992 306.4 448 420 448 c 0
 543.2 448 569.403 306.219 574 255 c 1
 641 255 l 2
506 255 m 1
 506 301.919 483.952 393 406 393 c 128
 330 393 311 301.962 311 255 c 1
 506 255 l 1
404 39 m 0
 485.6 39 506 140.667 506 220 c 1
 311 220 l 1
 311 160 322.5 39 404 39 c 0
146 140 m 0
 146 98.9781 165.952 39 216 39 c 0
 257.333 39 278 71 278 135 c 2
 278 220 l 1
 245 220 l 2
 179 220 146 193.333 146 140 c 0
79 -199 m 0
 79 -86.5887 159.368 -18 240 -18 c 0
 281.333 -18 317.667 -34 349 -66 c 1
 371.667 -34 403.333 -18 444 -18 c 0
 482 -18 513 -33 537 -63 c 1
 563 -33 596.667 -18 638 -18 c 0
 667.82 -18 725.397 -29.0391 757 -94 c 1
 838.854 -107.155 873 -178.65 873 -243 c 0
 873 -352.181 791.562 -420 705 -420 c 0
 676.333 -420 649.333 -413.333 624 -400 c 1
 638 -365 l 1
 654.667 -371.667 671 -375 687 -375 c 0
 761.937 -375 828 -308.132 828 -226 c 0
 828 -180 809.333 -149.333 772 -134 c 1
 778.667 -152.667 782 -171.667 782 -191 c 0
 782 -291.253 723.8 -322 685 -322 c 0
 649 -322 595 -297.5 595 -222 c 0
 595 -153.632 638.145 -104.804 696 -96 c 1
 682.667 -70.6667 659.333 -58 626 -58 c 0
 587.6 -58 554 -77.2 554 -106 c 2
 554 -316 l 1
 490 -316 l 1
 490 -134 l 2
 490 -76.4 446.2 -62 420 -62 c 0
 388.5 -62 364 -78.8 364 -104 c 2
 364 -316 l 1
 303 -316 l 1
 303 -118 l 2
 303 -83.1788 265.251 -62 224 -62 c 0
 196.136 -62 123.656 -73.6284 108 -178 c 1
 126.667 -152.667 148.667 -140 174 -140 c 0
 224.161 -140 255 -189.063 255 -238 c 0
 255 -269.6 239 -322 175 -322 c 0
 98.2 -322 79 -249.7 79 -199 c 0
677 -275 m 0
 695.8 -275 724 -258.433 724 -194 c 0
 724 -168 719.667 -145.333 711 -126 c 1
 665.245 -132.536 631 -162.6 631 -211 c 0
 631 -246.734 649.515 -275 677 -275 c 0
162.5 -279 m 128
 188.3 -279 203 -256.957 203 -229 c 0
 203 -200.4 187 -178 163 -178 c 0
 136 -178 118 -200.25 118 -228 c 0
 118 -250.625 135.8 -279 162.5 -279 c 128
EndSplineSet
LCarets2: 1 0 
Ligature2: "FreeSerif-'psts' Post Base Substitutions in Malay+AQEA-lam subtable" k1nh uu_sign_mal
EndChar

StartChar: k1th1
Encoding: 59748 -1 122
Width: 1186
Flags: HW
LayerCount: 2
Fore
SplineSet
960 450 m 0
 1110.85 450 1179 327.712 1179 214 c 0
 1179 116 1143.33 42 1072 -8 c 1
 1024 10 l 1
 1075.33 54 1101 118 1101 202 c 0
 1101 304.254 1048.55 404 932 404 c 0
 914.667 404 898.667 401 884 395 c 1
 946.667 333.667 978 262.667 978 182 c 0
 978 81.9065 927.125 -8 843 -8 c 0
 757.675 -8 719 100.281 719 177 c 0
 719 251.632 746.667 325.372 808 381 c 1
 794.667 388.333 775.667 392 751 392 c 0
 669.095 392 602 301.193 602 213 c 2
 602 2 l 1
 561 2 l 1
 561 210 l 1
 546.305 219.508 529.624 221 516 221 c 1
 516 107.773 475.409 -8 380 -8 c 0
 332.667 -8 297.333 17.3333 274 68 c 1
 254 17.3333 225.5 -8 188.5 -8 c 128
 111.764 -8 70 65.8787 70 137 c 0
 70 245.077 137.691 259 250 259 c 1
 252.724 358.417 292.055 450 376 450 c 0
 486.4 450 509.522 305.975 514 258 c 1
 531 258 550.5 256.5 562 250 c 1
 573.947 357.525 647.632 450 751 450 c 0
 785.667 450 819.333 440.333 852 421 c 1
 885.333 440.333 921.333 450 960 450 c 0
831 57 m 0
 888.056 57 911 133.65 911 183 c 0
 911 255 886.333 314.667 837 362 c 1
 779 312 750 250 750 176 c 0
 750 129.305 775.105 57 831 57 c 0
448 259 m 1
 448 326.731 418.04 392 364 392 c 128
 298.4 392 282 304 282 259 c 1
 448 259 l 1
362 44 m 0
 430.8 44 448 136.7 448 220 c 1
 282 220 l 1
 282 141 298 44 362 44 c 0
139 143 m 0
 139 94.9447 160.889 44 196 44 c 0
 232 44 250 75.3333 250 138 c 2
 250 220 l 1
 223 220 l 2
 167 220 139 194.333 139 143 c 0
EndSplineSet
LCarets2: 1 0 
Ligature2: "FreeSerif-'pres' Pre Base Substitutions in Malay+AQEA-lam subtable" k1xx ta_mal
EndChar

StartChar: k1th1u1
Encoding: 59749 -1 123
Width: 1155
Flags: HW
LayerCount: 2
Fore
SplineSet
167 -4 m 2
 132.6 -4 124 -36.15 124 -54 c 0
 124 -75.3333 138.333 -86 167 -86 c 2
 1156 -86 l 1
 1156 -163 l 1
 167 -163 l 2
 108.75 -163 74 -122.637 74 -65 c 0
 74 -8.77976 114.39 34 167 34 c 2
 920 34 l 2
 1019.63 34 1080 117.982 1080 220 c 128
 1080 322.433 1019.59 408 919 408 c 0
 897 408 881 405.333 871 400 c 1
 933.667 348.667 965 289.333 965 222 c 0
 965 134.25 914.043 62 830 62 c 0
 747.2 62 705 146.812 705 218 c 0
 705 291.514 746.881 355.672 794 389 c 1
 775.333 396.333 758 400 742 400 c 0
 666.779 400 608 332.317 608 248 c 2
 608 81 l 1
 566 81 l 1
 566 245 l 1
 549 249 l 2
 537.667 252.333 528.667 254 522 254 c 1
 522 128.972 461.375 62 386 62 c 0
 338.667 62 303.333 83 280 125 c 1
 259.333 83 230.667 62 194 62 c 0
 124.019 62 78 113.791 78 184 c 0
 78 266.4 132.68 287 232 287 c 2
 256 287 l 1
 256.873 342.858 281.2 446 382 446 c 0
 492.4 446 515.404 324.493 520 286 c 1
 530.667 286 546.667 283.333 568 278 c 1
 580.91 377.41 652.285 450 744 450 c 0
 777.333 450 808.667 441 838 423 c 1
 869.333 438.333 905.333 446 946 446 c 0
 1114 446 1156 308.677 1156 220 c 0
 1156 122.126 1102.72 -4 978 -4 c 2
 167 -4 l 2
816 116 m 0
 880 116 896 185.2 896 223 c 0
 896 284.333 871.333 334.667 822 374 c 1
 764.667 329.333 736 277 736 217 c 0
 736 170.462 763.66 116 816 116 c 0
456 287 m 1
 455.146 322.002 435.156 396 370 396 c 0
 305.2 396 289 328.828 289 287 c 1
 456 287 l 1
288 224 m 0
 288 184.019 304 106 368 106 c 0
 425.333 106 454.667 155 456 253 c 1
 289 253 l 1
 288.333 247 288 237.333 288 224 c 0
145 188 m 0
 145 147.863 165.766 106 203 106 c 0
 238.333 106 256 132 256 184 c 2
 256 253 l 1
 229 253 l 2
 173 253 145 231.333 145 188 c 0
EndSplineSet
LCarets2: 1 0 
Ligature2: "FreeSerif-'psts' Post Base Substitutions in Malay+AQEA-lam subtable" k1th1 u_sign_mal
EndChar

StartChar: k1th1u2
Encoding: 59750 -1 124
Width: 1161
Flags: HW
LayerCount: 2
Fore
SplineSet
955 446 m 0
 1078.91 446 1162 386.859 1162 322 c 0
 1162 286.667 1139.33 256.667 1094 232 c 1
 1140 206.667 1163 171.667 1163 127 c 0
 1163 74.6 1118.27 -4 990 -4 c 2
 171 -4 l 2
 142.2 -4 123 -26.4 123 -54 c 0
 123 -75.3333 139 -86 171 -86 c 2
 1158 -86 l 1
 1158 -163 l 1
 171 -163 l 2
 109.606 -163 74 -123.233 74 -65 c 0
 74 -10.45 112.8 34 171 34 c 2
 932 34 l 2
 1056.35 34 1085 92.8 1085 132 c 0
 1085 169.692 1059.79 202 1026 202 c 2
 988 202 l 1
 988 254 l 1
 1026 254 l 2
 1055.27 254 1080 283.488 1080 316 c 0
 1080 352.8 1052.26 408 928 408 c 0
 899.333 408 880 405.333 870 400 c 1
 932.667 348.667 964 289.333 964 222 c 0
 964 134.25 913.043 62 829 62 c 0
 746.2 62 704 146.812 704 218 c 0
 704 290 733.667 347 793 389 c 1
 775 396.333 758 400 742 400 c 0
 667.966 400 608 332.627 608 248 c 2
 608 81 l 1
 566 81 l 1
 566 245 l 1
 551.333 250.333 536.667 253.333 522 254 c 1
 521.333 204 509.667 159.333 487 120 c 0
 465 81.3333 431.333 62 386 62 c 0
 338 62 302.667 83 280 125 c 1
 259.333 83 230.667 62 194 62 c 0
 125.92 62 77 110.277 77 184 c 0
 77 266.4 132.316 287 234 287 c 2
 256 287 l 1
 256 343.715 281 446 381 446 c 0
 491.4 446 514.008 327.811 519 286 c 1
 533 286 548.667 283.333 566 278 c 1
 580.496 382.106 651.645 448 740 448 c 0
 773.333 448 805.667 439.667 837 423 c 1
 867.667 438.333 907 446 955 446 c 0
816 116 m 0
 880 116 896 185.2 896 223 c 0
 896 283.667 871.333 334 822 374 c 1
 764.667 330 736 277.667 736 217 c 0
 736 172.087 761.766 116 816 116 c 0
455 287 m 1
 454.149 322.731 436.065 396 369 396 c 0
 304.2 396 288 328.828 288 287 c 1
 455 287 l 1
287 224 m 0
 287 184.546 302.8 106 366 106 c 0
 424 106 453.667 155 455 253 c 1
 288 253 l 1
 287.333 247 287 237.333 287 224 c 0
144 188 m 0
 144 162.575 155.8 106 203 106 c 0
 238.333 106 256 132 256 184 c 2
 256 253 l 1
 228 253 l 2
 172 253 144 231.333 144 188 c 0
EndSplineSet
LCarets2: 1 0 
Ligature2: "FreeSerif-'psts' Post Base Substitutions in Malay+AQEA-lam subtable" k1th1 uu_sign_mal
EndChar

StartChar: k1th1r1
Encoding: 59751 -1 125
Width: 1187
Flags: HW
LayerCount: 2
Fore
SplineSet
966 450 m 0
 1113 450 1187 314 1187 161 c 0
 1187 -28.4541 1091.99 -228 856 -228 c 0
 786 -228 658 -212 658 -146 c 0
 658 -83 782 -75 848 -75 c 0
 913 -75 953 -81 1010 -110 c 1
 957 -136 l 1
 925 -120 890 -112 851 -112 c 0
 778 -112 742 -123 742 -144 c 0
 742 -173 820 -186 858 -186 c 0
 1037 -186 1112 -15 1112 142 c 0
 1112 296.413 1042.4 404 938 404 c 0
 918 404 902 401 890 395 c 1
 953 334 984 263 984 182 c 0
 984 103 946 -10 849 -10 c 0
 758 -10 725 111 725 177 c 0
 725 249 753 328 814 381 c 1
 800 388 781 392 757 392 c 0
 677 392 608 301 608 212 c 2
 608 0 l 1
 566 0 l 1
 566 209 l 1
 552 217 538 220 522 220 c 1
 522 138 495 -10 386 -10 c 0
 339 -10 303 15 280 66 c 1
 260 15 232 -10 194 -10 c 128
 113 -10 77 68 77 136 c 0
 77 219.526 121.888 258 207 258 c 2
 207 258 252 258 256 258 c 1
 256 323 281 450 382 450 c 128
 492 450 516 306 520 258 c 1
 541 258 557 255 568 249 c 1
 579 343 644 450 757 450 c 0
 794 450 827 440 858 421 c 1
 891 440 927 450 966 450 c 0
837 56 m 0
 901 56 917 143 917 183 c 0
 917 255 892 315 843 362 c 1
 785 309 756 247 756 176 c 0
 756 135 776 56 837 56 c 0
455 258 m 1
 455 300 438 392 370 392 c 0
 337 392 292 366 288 258 c 1
 455 258 l 1
368 43 m 0
 438 43 455 135 455 219 c 1
 288 219 l 1
 288 132 309 43 368 43 c 0
145 142 m 0
 145 114 157 43 203 43 c 0
 238 43 256 74 256 137 c 2
 256 219 l 1
 229 219 l 2
 173 219 145 193 145 142 c 0
EndSplineSet
LCarets2: 1 0 
Ligature2: "FreeSerif-'psts' Post Base Substitutions in Malay+AQEA-lam subtable" k1th1 r_voc_mal
EndChar

StartChar: k1th1r2
Encoding: 59752 -1 126
Width: 1197
Flags: HW
LayerCount: 2
Fore
SplineSet
568 249 m 1
 578.578 343.03 643.6 450 757 450 c 0
 793.667 450 827.333 440.333 858 421 c 1
 890.667 440.333 926.667 450 966 450 c 0
 1151.6 450 1198 264.403 1198 94 c 0
 1198 -119.03 1083.78 -312 848 -312 c 0
 772.217 -312 631 -277.764 631 -193 c 0
 631 -118 728.863 -68 851 -68 c 0
 931.667 -68 994.333 -90 1039 -134 c 1
 1000 -166 l 1
 980.058 -121.515 892.232 -105 851 -105 c 0
 809.128 -105 700 -121.6 700 -188 c 0
 700 -253.6 798.853 -270 856 -270 c 0
 1070.4 -270 1124 -60.25 1124 74 c 0
 1124 196.527 1093.03 404 938 404 c 0
 918 404 902 401 890 395 c 1
 952.667 334.333 984 263.333 984 182 c 0
 984 102.742 945.953 -10 849 -10 c 0
 758.346 -10 725 110.973 725 177 c 0
 725 248.518 753.481 327.686 814 381 c 1
 800 388.333 781 392 757 392 c 0
 677.584 392 608 301.985 608 212 c 2
 608 0 l 1
 566 0 l 1
 566 209 l 1
 553.333 216.333 536.333 220 522 220 c 1
 522 136.553 494.8 -10 386 -10 c 0
 338.667 -10 303.333 15.3333 280 66 c 1
 260 15.3333 231.5 -10 194.5 -10 c 128
 112.708 -10 77 68.2281 77 136 c 0
 77 234 162 258 256 258 c 1
 256 323.135 281.2 450 382 450 c 128
 492.4 450 515.614 306.251 520 258 c 1
 540.667 258 556.667 255 568 249 c 1
894 -140 m 0
 923.623 -140 946 -162.716 946 -190 c 0
 946 -215.333 934 -231.667 910 -239 c 1
 902 -229 l 1
 918 -222.333 926 -209.333 926 -190 c 0
 926 -171 913.2 -153 894 -153 c 0
 870.8 -153 865.671 -177.287 865 -184 c 0
 865 -215.2 868 -230.8 868 -236 c 1
 847 -236 l 1
 847 -178 l 2
 847 -158 828.4 -153 816 -153 c 0
 798.132 -153 787 -171.312 787 -190 c 0
 787 -210.667 795.333 -223.667 812 -229 c 1
 802 -238 l 1
 778.667 -231.333 767 -215.333 767 -190 c 0
 767 -160.686 789.692 -140 816 -140 c 0
 834 -140 848 -144.333 858 -153 c 1
 868.667 -144.333 880.667 -140 894 -140 c 0
837 56 m 0
 901 56 917 143.387 917 183 c 0
 917 255 892.333 314.667 843 362 c 1
 785 311.333 756 249.333 756 176 c 0
 756 135.23 775.856 56 837 56 c 0
455 258 m 1
 455 300.477 438 392 370 392 c 0
 337.2 392 291.591 365.729 288 258 c 1
 455 258 l 1
368 43 m 0
 437.6 43 455 136.841 455 219 c 1
 288 219 l 1
 288 146.543 296.37 43 368 43 c 0
145 142 m 0
 145 114.044 156.6 43 203 43 c 0
 238.333 43 256 74.3333 256 137 c 2
 256 219 l 1
 229 219 l 2
 173 219 145 193.333 145 142 c 0
EndSplineSet
LCarets2: 1 0 
Ligature2: "FreeSerif-'psts' Post Base Substitutions in Malay+AQEA-lam subtable" k1th1 rr_voc_mal
EndChar

StartChar: k1th1r3
Encoding: 59753 -1 127
Width: 1319
Flags: HW
LayerCount: 2
Fore
SplineSet
700 249 m 1
 710.629 343.476 776 450 890 450 c 0
 926 450 959.333 440.333 990 421 c 1
 1022.67 440.333 1059 450 1099 450 c 0
 1159.67 450 1212 423.333 1256 370 c 0
 1300 316.667 1322 254.667 1322 184 c 2
 1322 154 l 2
 1322 17.2 1240.95 -188 713 -188 c 0
 178.653 -188 72 -30.4 72 206 c 0
 72 303.6 102.471 369.976 172 450 c 1
 204 423 l 1
 143.503 353.681 112 288 112 198 c 0
 112 -67.6 375.775 -134 704 -134 c 0
 1012.94 -134 1134.1 -59.6905 1192 4 c 0
 1249.98 67.7775 1250 131.869 1250 179 c 0
 1247.18 304.408 1156.22 404 1070 404 c 0
 1052.67 404 1036.67 401 1022 395 c 1
 1082 337.667 1112 266.667 1112 182 c 0
 1112 84.5381 1064.57 -10 978 -10 c 0
 901.163 -10 853 85.3091 853 177 c 0
 853 243.252 884.581 326.892 946 381 c 1
 932.667 388.333 914 392 890 392 c 0
 793.133 392 740 297.57 740 212 c 2
 740 0 l 1
 698 0 l 1
 698 209 l 1
 683 215 l 2
 672.333 218.333 663.333 220 656 220 c 2
 654 220 l 1
 654 101.227 610.993 -10 519 -10 c 0
 470.333 -10 435 15.3333 413 66 c 1
 391.667 15.3333 363 -10 327 -10 c 0
 256.2 -10 209 56.5586 209 136 c 0
 209 244.064 271.259 258 389 258 c 1
 389 357.648 430.733 450 514 450 c 0
 606.658 450 640.478 353.63 652 258 c 1
 674 258 690 255 700 249 c 1
965 56 m 0
 1017.48 56 1046 120.472 1046 183 c 0
 1046 255.667 1022.67 315.333 976 362 c 1
 915.333 308 885 246 885 176 c 0
 885 117.417 915.06 56 965 56 c 0
588 258 m 1
 588 310.824 561.393 392 502 392 c 0
 445.808 392 422.596 324.195 420 258 c 1
 588 258 l 1
419 184 m 0
 419 118.415 444.959 43 500 43 c 0
 570.4 43 588 146.538 588 219 c 1
 420 219 l 1
 420 198 l 2
 419.333 190 419 185.333 419 184 c 0
276 142 m 0
 276 90.8711 301.621 43 335 43 c 0
 371 43 389 74.3333 389 137 c 2
 389 219 l 1
 360 219 l 2
 304 219 276 193.333 276 142 c 0
EndSplineSet
LCarets2: 2 0 0 
Ligature2: "FreeSerif-'pres' Pre Base Substitutions in Malay+AQEA-lam subtable" k1th1 r4
Ligature2: "FreeSerif-'pres' Pre Base Substitutions in Malay+AQEA-lam subtable" k1th1 chandrakkala ra_mal
EndChar

StartChar: k1th1r3u1
Encoding: 59754 -1 128
Width: 1319
Flags: HW
LayerCount: 2
Fore
SplineSet
1224 -62 m 1
 1279.75 -68.6372 1322 -115.214 1322 -173 c 0
 1322 -218.85 1285.86 -285 1210 -285 c 0
 1142.2 -285 1097 -233.137 1097 -173 c 0
 1097 -160.333 1099.33 -146 1104 -130 c 1
 1006.67 -168.667 876.333 -188 713 -188 c 0
 180.038 -188 72 -30.4 72 206 c 0
 72 303.6 102.471 369.976 172 450 c 1
 204 423 l 1
 143.503 353.681 112 288 112 198 c 0
 112 -1.2 257.764 -134 704 -134 c 0
 1025.09 -134 1150.51 -51.7794 1201 15 c 0
 1233.67 60.3333 1250 115 1250 179 c 0
 1250 296.492 1159.46 404 1070 404 c 0
 1052.67 404 1036.67 401 1022 395 c 1
 1082 337.667 1112 266.667 1112 182 c 0
 1112 84.5381 1064.57 -10 978 -10 c 0
 901.163 -10 853 85.3091 853 177 c 0
 853 243.252 884.581 326.892 946 381 c 1
 932.667 388.333 914 392 890 392 c 0
 793.133 392 740 297.57 740 212 c 2
 740 0 l 1
 698 0 l 1
 698 209 l 1
 684.667 215 670 218.667 654 220 c 1
 654 101.227 610.993 -10 519 -10 c 0
 470.333 -10 435 15.3333 413 66 c 1
 391.667 15.3333 363 -10 327 -10 c 0
 256.2 -10 209 56.5586 209 136 c 0
 209 244.064 271.259 258 389 258 c 1
 389 357.648 430.733 450 514 450 c 0
 606.658 450 640.478 353.63 652 258 c 1
 674 258 690 255 700 249 c 1
 710.629 343.476 776 450 890 450 c 0
 926 450 959.333 440.333 990 421 c 1
 1022.67 440.333 1059 450 1099 450 c 0
 1159.67 450 1212 423.333 1256 370 c 0
 1300 316.667 1322 254.667 1322 184 c 0
 1322 70.9436 1295.22 -0.955388 1224 -62 c 1
965 56 m 0
 1017.48 56 1046 120.472 1046 183 c 0
 1046 255.667 1022.67 315.333 976 362 c 1
 915.333 308 885 246 885 176 c 0
 885 117.417 915.06 56 965 56 c 0
1200 -224 m 0
 1238.25 -224 1266 -192.926 1266 -158 c 0
 1266 -120.752 1235.46 -92 1200 -92 c 0
 1161 -92 1135 -123.075 1135 -157.5 c 128
 1135 -194.681 1165.21 -224 1200 -224 c 0
588 258 m 1
 588 310.824 561.393 392 502 392 c 0
 445.808 392 422.596 324.195 420 258 c 1
 588 258 l 1
420 184 m 2
 420 114.882 444.879 43 500 43 c 0
 570.4 43 588 149.012 588 219 c 1
 420 219 l 1
 420 184 l 2
276 142 m 0
 276 90.8711 301.621 43 335 43 c 0
 371 43 389 74.3333 389 137 c 2
 389 219 l 1
 360 219 l 2
 304 219 276 193.333 276 142 c 0
EndSplineSet
LCarets2: 1 0 
Ligature2: "FreeSerif-'psts' Post Base Substitutions in Malay+AQEA-lam subtable" k1th1r3 u_sign_mal
EndChar

StartChar: k1th1r3u2
Encoding: 59755 -1 129
Width: 1319
Flags: HW
LayerCount: 2
Fore
SplineSet
1211 -72 m 1
 1273.88 -86.4089 1322 -144.474 1322 -214 c 0
 1322 -298.555 1255.83 -360 1177 -360 c 0
 1097.98 -360 1030 -298.414 1030 -214 c 0
 1030 -191.333 1035.33 -170 1046 -150 c 1
 954.667 -175.333 843.667 -188 713 -188 c 0
 178.653 -188 72 -30.4 72 206 c 0
 72 303.6 102.471 369.976 172 450 c 1
 204 423 l 1
 143.503 353.681 112 288 112 198 c 0
 112 -67.6 375.775 -134 704 -134 c 0
 906.667 -134 1054 -101.667 1146 -37 c 0
 1215.33 16.3333 1250 88.3333 1250 179 c 0
 1250 299.516 1158.22 404 1070 404 c 0
 1052.67 404 1036.67 401 1022 395 c 1
 1082 337.667 1112 266.667 1112 182 c 0
 1112 84.5381 1064.57 -10 978 -10 c 0
 901.163 -10 853 85.3091 853 177 c 0
 853 243.252 884.581 326.892 946 381 c 1
 932.667 388.333 914 392 890 392 c 0
 793.133 392 740 297.57 740 212 c 2
 740 0 l 1
 698 0 l 1
 698 209 l 1
 684.667 215 670 218.667 654 220 c 1
 654 101.227 610.993 -10 519 -10 c 0
 470.333 -10 435 15.3333 413 66 c 1
 391.667 15.3333 363 -10 327 -10 c 0
 256.2 -10 209 56.5586 209 136 c 0
 209 244.064 271.259 258 389 258 c 1
 389 357.648 430.733 450 514 450 c 0
 606.658 450 640.478 353.63 652 258 c 1
 674 258 690 255 700 249 c 1
 710.629 343.476 776 450 890 450 c 0
 926 450 959.333 440.333 990 421 c 1
 1022.67 440.333 1059 450 1099 450 c 0
 1159.67 450 1212 423.333 1256 370 c 0
 1300 316.667 1322 254.667 1322 184 c 0
 1322 71.3333 1285 -14 1211 -72 c 1
965 56 m 0
 1017.48 56 1046 120.472 1046 183 c 0
 1046 255.667 1022.67 315.333 976 362 c 1
 915.333 308 885 246 885 176 c 0
 885 117.417 915.06 56 965 56 c 0
1166 -211 m 0
 1196.15 -211 1218 -186.728 1218 -159 c 0
 1218 -136.657 1192.24 -111 1167 -111 c 0
 1135.8 -111 1114 -129.936 1114 -159 c 0
 1114 -190.2 1137.4 -211 1166 -211 c 0
1164 -310 m 128
 1220.89 -310 1263 -264.145 1263 -211 c 0
 1263 -187 1256 -167 1242 -151 c 1
 1243.33 -153.667 1244 -158 1244 -164 c 0
 1244 -213.998 1204.75 -250 1158 -250 c 0
 1112.75 -250 1078.5 -215.899 1072 -173 c 1
 1068 -185.667 1066 -198 1066 -210 c 0
 1066 -265.921 1109.01 -310 1164 -310 c 128
588 258 m 1
 588 310.824 561.393 392 502 392 c 0
 445.808 392 422.596 324.195 420 258 c 1
 588 258 l 1
588 219 m 1
 420 219 l 1
 420 157 425.333 116 436 96 c 0
 453.333 60.6667 474.667 43 500 43 c 0
 552.8 43 588 111.2 588 219 c 1
276 142 m 0
 276 90.8711 301.621 43 335 43 c 0
 371 43 389 74.3333 389 137 c 2
 389 219 l 1
 360 219 l 2
 304 219 276 193.333 276 142 c 0
EndSplineSet
LCarets2: 1 0 
Ligature2: "FreeSerif-'psts' Post Base Substitutions in Malay+AQEA-lam subtable" k1th1r3 uu_sign_mal
EndChar

StartChar: k1n1
Encoding: 59756 -1 130
Width: 775
Flags: HW
LayerCount: 2
Fore
SplineSet
641 255 m 2
 726.693 255 776 198.942 776 118 c 0
 776 55.9234 734.55 -10 660 -10 c 0
 634.667 -10 613.667 -3.66667 597 9 c 1
 592 56 l 1
 608.667 45.3333 622 40 632 40 c 0
 679.63 40 704 84.3812 704 130 c 0
 704 198 669 220 634 220 c 2
 578 220 l 1
 578 124.122 540.626 -10 425 -10 c 0
 369.667 -10 329.333 16.6667 304 70 c 1
 282.667 16.6667 250 -10 206 -10 c 0
 126.8 -10 74 55.1797 74 134 c 0
 74 234 156 255 242 255 c 2
 278 255 l 1
 278 322.992 306.4 448 420 448 c 0
 543.2 448 569.403 306.219 574 255 c 1
 641 255 l 2
506 255 m 1
 506 301.919 483.952 393 406 393 c 128
 330 393 311 301.962 311 255 c 1
 506 255 l 1
404 39 m 0
 485.6 39 506 140.667 506 220 c 1
 311 220 l 1
 311 160 322.5 39 404 39 c 0
146 140 m 0
 146 98.9781 165.952 39 216 39 c 0
 257.333 39 278 71 278 135 c 2
 278 220 l 1
 245 220 l 2
 179 220 146 193.333 146 140 c 0
641 -22 m 0
 716.866 -22 767 -93.4041 767 -176 c 0
 767 -245.43 725.9 -300.138 673 -326 c 1
 648 -304 l 1
 690 -276 711 -232 711 -172 c 0
 711 -114.273 682.331 -60 625 -60 c 0
 591.32 -60 566 -79.7544 566 -110 c 2
 566 -319 l 1
 510 -319 l 1
 510 -138 l 2
 510 -95.934 483.874 -67 446 -67 c 0
 391.382 -67 358 -120.231 358 -180 c 0
 358 -240.667 383 -283.333 433 -308 c 1
 412 -326 l 1
 355.333 -294.667 327 -244.667 327 -176 c 0
 327 -101.859 370.149 -21 460 -21 c 0
 498 -21 529 -37.3333 553 -70 c 1
 577.667 -38 607 -22 641 -22 c 0
EndSplineSet
LCarets2: 2 0 0 
Ligature2: "FreeSerif-'akhn' Akhand in Malay+AQEA-lam subtable" ka_mal chandrakkala na_mal
EndChar

StartChar: k1n1u1
Encoding: 59757 -1 131
Width: 775
Flags: HW
LayerCount: 2
Fore
SplineSet
641 255 m 2
 726.693 255 776 198.942 776 118 c 0
 776 55.9234 734.55 -10 660 -10 c 0
 634.667 -10 613.667 -3.66667 597 9 c 1
 592 56 l 1
 608.667 45.3333 622 40 632 40 c 0
 679.63 40 704 84.3812 704 130 c 0
 704 198 669 220 634 220 c 2
 578 220 l 1
 578 124.122 540.626 -10 425 -10 c 0
 369.667 -10 329.333 16.6667 304 70 c 1
 282.667 16.6667 250 -10 206 -10 c 0
 126.8 -10 74 55.1797 74 134 c 0
 74 234 156 255 242 255 c 2
 278 255 l 1
 278 322.992 306.4 448 420 448 c 0
 543.2 448 569.403 306.219 574 255 c 1
 641 255 l 2
506 255 m 1
 506 301.919 483.952 393 406 393 c 128
 330 393 311 301.962 311 255 c 1
 506 255 l 1
404 39 m 0
 485.6 39 506 140.667 506 220 c 1
 311 220 l 1
 311 160 322.5 39 404 39 c 0
146 140 m 0
 146 98.9781 165.952 39 216 39 c 0
 257.333 39 278 71 278 135 c 2
 278 220 l 1
 245 220 l 2
 179 220 146 193.333 146 140 c 0
614 -22 m 0
 724.672 -22 772 -120.509 772 -201 c 0
 772 -283.471 724.094 -325 675 -325 c 0
 636.2 -325 578 -295.144 578 -203 c 0
 578 -149.667 600.667 -104.333 646 -67 c 1
 633.333 -59.6667 617.667 -56 599 -56 c 0
 561.239 -56 524 -74.3662 524 -109 c 2
 524 -318 l 1
 468 -318 l 1
 468 -138 l 2
 468 -79.6 435 -65 413 -65 c 0
 355.948 -65 322 -121.078 322 -184 c 0
 322 -211.4 332.578 -275.941 398 -306 c 1
 379 -325 l 1
 300.52 -285.76 290 -211.284 290 -176 c 0
 290 -99.1484 334.129 -21 420 -21 c 0
 454.667 -21 485 -37 511 -69 c 1
 541.667 -37.6667 576 -22 614 -22 c 0
665 -282 m 0
 687.8 -282 722 -265.575 722 -207 c 0
 722 -157 695.913 -106.424 668 -82 c 1
 624 -118 602 -158.333 602 -203 c 0
 602 -261.475 639.8 -282 665 -282 c 0
EndSplineSet
LCarets2: 1 0 
Ligature2: "FreeSerif-'psts' Post Base Substitutions in Malay+AQEA-lam subtable" k1n1 u_sign_mal
EndChar

StartChar: k1n1u2
Encoding: 59758 -1 132
Width: 775
Flags: HW
LayerCount: 2
Fore
SplineSet
641 255 m 2
 726.693 255 776 198.942 776 118 c 0
 776 55.9234 734.55 -10 660 -10 c 0
 634.667 -10 613.667 -3.66667 597 9 c 1
 592 56 l 1
 608.667 45.3333 622 40 632 40 c 0
 679.63 40 704 84.3812 704 130 c 0
 704 198 669 220 634 220 c 2
 578 220 l 1
 578 124.122 540.626 -10 425 -10 c 0
 369.667 -10 329.333 16.6667 304 70 c 1
 282.667 16.6667 250 -10 206 -10 c 0
 126.8 -10 74 55.1797 74 134 c 0
 74 234 156 255 242 255 c 2
 278 255 l 1
 278 322.992 306.4 448 420 448 c 0
 543.2 448 569.403 306.219 574 255 c 1
 641 255 l 2
506 255 m 1
 506 301.919 483.952 393 406 393 c 128
 330 393 311 301.962 311 255 c 1
 506 255 l 1
404 39 m 0
 485.6 39 506 140.667 506 220 c 1
 311 220 l 1
 311 160 322.5 39 404 39 c 0
146 140 m 0
 146 98.9781 165.952 39 216 39 c 0
 257.333 39 278 71 278 135 c 2
 278 220 l 1
 245 220 l 2
 179 220 146 193.333 146 140 c 0
200 -176 m 0
 200 -78.2512 267.261 -21 331 -21 c 0
 366.333 -21 396.667 -37 422 -69 c 1
 448.667 -38.3333 482.667 -23 524 -23 c 0
 582.139 -23 628.906 -58.0784 654 -98 c 1
 742.302 -120.45 772 -189.288 772 -247 c 0
 772 -330.08 713.386 -424 602 -424 c 0
 576 -424 550.667 -417.333 526 -404 c 1
 538 -374 l 1
 556.667 -383.333 574.333 -388 591 -388 c 0
 681.237 -388 728 -298.422 728 -226 c 0
 728 -171.333 708.333 -137.333 669 -124 c 1
 677 -144 681 -166 681 -190 c 0
 681 -293.415 622.8 -325 584 -325 c 0
 537.205 -325 496 -287.082 496 -222 c 128
 496 -154.874 542.706 -105.069 601 -100 c 1
 583 -70.6667 554 -56 514 -56 c 0
 471.767 -56 436 -77.3839 436 -116 c 2
 436 -319 l 1
 379 -319 l 1
 379 -138 l 2
 379 -79.6 344.8 -65 322 -65 c 0
 285.36 -65 232 -104.304 232 -184 c 0
 232 -213.434 242.993 -276.26 310 -308 c 1
 290 -326 l 1
 210.905 -287.331 200 -209.668 200 -176 c 0
576.5 -282 m 128
 597.9 -282 630 -262.125 630 -196 c 0
 630 -166 624 -141.667 612 -123 c 1
 563.07 -125.645 524 -161.668 524 -210 c 0
 524 -264.975 555.5 -282 576.5 -282 c 128
EndSplineSet
LCarets2: 1 0 
Ligature2: "FreeSerif-'psts' Post Base Substitutions in Malay+AQEA-lam subtable" k1n1 uu_sign_mal
EndChar

StartChar: k1m1
Encoding: 59759 -1 133
Width: 775
Flags: W
HStem: -314 25<559 720> -47 29<628 677.058> -10 49<173.042 260.453 354.168 457.362 597.567 679.933> 220 35<175.777 278 311 506 578 678.454> 393 55<352.912 461.666>
VStem: 74 72<65.3864 196.258> 278 33<107 220 255 333.915> 480 31<-287 -100.716> 506 72<100.41 220 255 334.525> 620 50<-193.817 -66.5139> 704 72<63.4224 199.384> 720 47<-289 -86.75>
LayerCount: 2
Fore
SplineSet
641 255 m 2xfee0
 726.693 255 776 198.942 776 118 c 0
 776 55.9234 734.55 -10 660 -10 c 0
 634.667 -10 613.667 -3.66667 597 9 c 1
 592 56 l 1
 608.667 45.3333 622 40 632 40 c 0
 679.63 40 704 84.3812 704 130 c 0
 704 198 669 220 634 220 c 2
 578 220 l 1
 578 124.122 540.626 -10 425 -10 c 0
 369.667 -10 329.333 16.6667 304 70 c 1
 282.667 16.6667 250 -10 206 -10 c 0
 126.8 -10 74 55.1797 74 134 c 0
 74 234 156 255 242 255 c 2
 278 255 l 1
 278 322.992 306.4 448 420 448 c 0
 543.2 448 569.403 306.219 574 255 c 1
 641 255 l 2xfee0
506 255 m 1
 506 301.919 483.952 393 406 393 c 0
 330 393 311 301.962 311 255 c 1
 506 255 l 1
404 39 m 0
 485.6 39 506 140.667 506 220 c 1
 311 220 l 1
 311 160 322.5 39 404 39 c 0
146 140 m 0
 146 98.9781 165.952 39 216 39 c 0
 257.333 39 278 71 278 135 c 2
 278 220 l 1
 245 220 l 2
 179 220 146 193.333 146 140 c 0
480 -210 m 2xff50
 480 -82.0634 504.894 -18 622 -18 c 0
 718.667 -18 767 -76.6667 767 -194 c 2
 767 -314 l 1
 480 -314 l 1
 480 -210 l 2xff50
670 -124 m 0
 670 -184.473 623.449 -235.293 559 -289 c 1
 720 -289 l 1
 720 -186 l 2
 720 -81.6954 686.156 -49.1147 628 -47 c 1
 656 -69 670 -94.6667 670 -124 c 0
620 -114 m 0
 620 -81.6 602.4 -60 576 -60 c 0
 532.667 -60 511 -107.667 511 -203 c 2
 511 -287 l 1
 583.667 -235 620 -177.333 620 -114 c 0
EndSplineSet
LCarets2: 2 0 0 
Ligature2: "FreeSerif-'akhn' Akhand in Malay+AQEA-lam subtable" ka_mal chandrakkala ma_mal
EndChar

StartChar: k1m1u1
Encoding: 59760 -1 134
Width: 775
Flags: HW
LayerCount: 2
Fore
SplineSet
641 255 m 2
 726.693 255 776 198.942 776 118 c 0
 776 55.9234 734.55 -10 660 -10 c 0
 634.667 -10 613.667 -3.66667 597 9 c 1
 592 56 l 1
 608.667 45.3333 622 40 632 40 c 0
 679.63 40 704 84.3812 704 130 c 0
 704 169.333 694.667 194 676 204 c 0
 656.667 214.667 626.333 220 585 220 c 2
 578 220 l 1
 578 124.122 540.626 -10 425 -10 c 0
 369.667 -10 329.333 16.6667 304 70 c 1
 282.667 16.6667 250 -10 206 -10 c 0
 126.8 -10 74 55.1797 74 134 c 0
 74 243 168 255 242 255 c 2
 278 255 l 1
 278 322.992 306.4 448 420 448 c 0
 543.2 448 569.403 306.219 574 255 c 1
 641 255 l 2
467 -210 m 2
 467 -106.244 477.072 -18 608 -18 c 0
 704.667 -18 753 -76.6667 753 -194 c 2
 753 -314 l 1
 726 -314 l 1
 751.333 -331.333 764 -356 764 -388 c 0
 764 -449.994 713.994 -500 652 -500 c 0
 584.992 -500 540 -449.417 540 -388 c 0
 540 -356 552.667 -331.333 578 -314 c 1
 467 -314 l 1
 467 -210 l 2
506 255 m 1
 506 301.919 483.952 393 406 393 c 128
 330 393 311 301.962 311 255 c 1
 506 255 l 1
310 182 m 0
 310 135.559 328.8 39 404 39 c 0
 485.6 39 506 140.667 506 220 c 1
 311 220 l 1
 310.333 211.333 310 198.667 310 182 c 0
706 -289 m 1
 706 -186 l 2
 706 -132.248 701.306 -98.6534 673 -69 c 0
 659 -55 639.333 -47.6667 614 -47 c 1
 642 -68.3333 656 -94 656 -124 c 0
 656 -171.6 628.896 -209.104 595 -243 c 2
 570 -267 l 2
 561.333 -275 553 -282.333 545 -289 c 1
 706 -289 l 1
606 -114 m 0
 606 -81.6 588.4 -60 562 -60 c 0
 518.667 -60 497 -107.667 497 -203 c 2
 497 -287 l 1
 569.667 -235 606 -177.333 606 -114 c 0
146 140 m 0
 146 98.9781 165.952 39 216 39 c 0
 257.333 39 278 71 278 135 c 2
 278 220 l 1
 245 220 l 2
 179 220 146 193.333 146 140 c 0
652 -440 m 0
 686.487 -440 716 -413.765 716 -376 c 0
 716 -345.549 693.834 -320.389 667 -314 c 1
 637 -314 l 1
 610.38 -320.05 588 -345.523 588 -376 c 0
 588 -414.4 618.4 -440 652 -440 c 0
EndSplineSet
LCarets2: 1 0 
Ligature2: "FreeSerif-'psts' Post Base Substitutions in Malay+AQEA-lam subtable" k1m1 u_sign_mal
EndChar

StartChar: k1m1u2
Encoding: 59761 -1 135
Width: 775
Flags: HW
LayerCount: 2
Fore
SplineSet
641 255 m 2
 726.693 255 776 198.942 776 118 c 0
 776 55.9234 734.55 -10 660 -10 c 0
 634.667 -10 613.667 -3.66667 597 9 c 1
 592 56 l 1
 608.667 45.3333 622 40 632 40 c 0
 679.63 40 704 84.3812 704 130 c 0
 704 169.333 694.667 194 676 204 c 0
 656.667 214.667 626.333 220 585 220 c 2
 578 220 l 1
 578 124.122 540.626 -10 425 -10 c 0
 369.667 -10 329.333 16.6667 304 70 c 1
 282.667 16.6667 250 -10 206 -10 c 0
 126.8 -10 74 55.1797 74 134 c 0
 74 240 159 255 242 255 c 2
 278 255 l 1
 278 322.992 306.4 448 420 448 c 0
 543.2 448 569.403 306.219 574 255 c 1
 641 255 l 2
469 -210 m 2
 469 -106.244 479.072 -18 610 -18 c 0
 706.667 -18 755 -76.6667 755 -194 c 2
 755 -314 l 1
 713 -314 l 1
 747 -337.333 764 -369.333 764 -410 c 0
 764 -479.716 707.401 -533 641 -533 c 0
 569.331 -533 517 -477.031 517 -410 c 0
 517 -369.333 534 -337.333 568 -314 c 1
 469 -314 l 1
 469 -210 l 2
506 255 m 1
 506 301.919 483.952 393 406 393 c 128
 330 393 311 301.962 311 255 c 1
 506 255 l 1
310 182 m 0
 310 135.559 328.8 39 404 39 c 0
 485.6 39 506 140.667 506 220 c 1
 311 220 l 1
 310.333 211.333 310 198.667 310 182 c 0
708 -289 m 1
 708 -186 l 2
 708 -132.248 703.306 -98.6534 675 -69 c 0
 661 -55 641.333 -47.6667 616 -47 c 1
 644 -68.3333 658 -94 658 -124 c 0
 658 -171.6 630.896 -209.104 597 -243 c 2
 572 -267 l 2
 563.333 -275 555 -282.333 547 -289 c 1
 708 -289 l 1
608 -114 m 0
 608 -81.6 590.4 -60 564 -60 c 0
 520.667 -60 499 -107.667 499 -203 c 2
 499 -287 l 1
 571.667 -235 608 -177.333 608 -114 c 0
146 140 m 0
 146 98.9781 165.952 39 216 39 c 0
 257.333 39 278 71 278 135 c 2
 278 220 l 1
 245 220 l 2
 179 220 146 193.333 146 140 c 0
627 -401 m 0
 649.304 -401 670 -381.985 670 -357 c 0
 670 -335 654.8 -314 632 -314 c 2
 622 -314 l 2
 600.659 -314 583 -333.674 583 -357.5 c 128
 583 -380.303 601.766 -401 627 -401 c 0
631 -481 m 128
 677 -481 721 -449 721 -401 c 0
 721 -381 715 -363.333 703 -348 c 1
 703.667 -350.667 704 -355.333 704 -362 c 0
 704 -404.373 670.926 -436 632 -436 c 128
 593.25 -436 559 -404.85 559 -362 c 0
 559 -358 559.667 -352 561 -344 c 1
 551 -355.333 546 -374.333 546 -401 c 0
 546 -449 586 -481 631 -481 c 128
EndSplineSet
LCarets2: 1 0 
Ligature2: "FreeSerif-'psts' Post Base Substitutions in Malay+AQEA-lam subtable" k1m1 uu_sign_mal
EndChar

StartChar: k1r3
Encoding: 59762 -1 136
Width: 922
Flags: HW
LayerCount: 2
Fore
SplineSet
788 257 m 2
 865.461 257 922 199.499 922 110 c 0
 922 -88.6667 792 -188 532 -188 c 0
 263.134 -188 74 -62.3373 74 190 c 0
 74 291.333 102.667 377.333 160 448 c 1
 188 415 l 1
 141.333 343.667 118 266.667 118 184 c 0
 118 -22.9864 291.179 -128 514 -128 c 0
 626 -128 710.333 -109 767 -71 c 0
 823 -33 851 31.3333 851 122 c 0
 851 176.625 816.6 222 765 222 c 2
 725 222 l 1
 725 73.1016 655.094 -8 570 -8 c 0
 517.333 -8 477.333 18.6667 450 72 c 1
 428 18.6667 395.667 -8 353 -8 c 0
 297.951 -8 222 30.7342 222 136 c 0
 222 216.667 266.667 257 356 257 c 2
 425 257 l 1
 425 349.888 467.528 450 566 450 c 0
 663.491 450 710.16 360.931 722 257 c 1
 788 257 l 2
652 257 m 1
 652 316.685 621.589 395 552 395 c 0
 489.671 395 458 332.607 458 257 c 1
 652 257 l 1
456 184 m 0
 456 102.9 493.6 41 550 41 c 0
 624.547 41 652 125.827 652 222 c 1
 458 222 l 1
 457 194 l 1
 456.333 191.333 456 188 456 184 c 0
293 142 m 0
 293 102.355 314.445 41 362 41 c 0
 404 41 425 73 425 137 c 2
 425 222 l 1
 392 222 l 2
 326 222 293 195.333 293 142 c 0
EndSplineSet
LCarets2: 1 0 
Ligature2: "FreeSerif-'pres' Pre Base Substitutions in Malay+AQEA-lam subtable" k1xx ra_mal
Ligature2: "FreeSerif-'pres' Pre Base Substitutions in Malay+AQEA-lam subtable" ka_mal r4
EndChar

StartChar: k1r3u1
Encoding: 59763 -1 137
Width: 922
Flags: HW
LayerCount: 2
Fore
SplineSet
827 -111 m 1
 888.663 -118.341 925 -170.698 925 -222 c 0
 925 -281.812 878.616 -335 812 -335 c 0
 746.435 -335 700 -283.545 700 -224 c 0
 700 -205.333 705 -186 715 -166 c 1
 667.667 -180.667 606.667 -188 532 -188 c 0
 263.134 -188 74 -62.3373 74 190 c 0
 74 291.333 102.667 377.333 160 448 c 1
 188 415 l 1
 141.333 343.667 118 266.667 118 184 c 0
 118 -22.9864 291.179 -128 514 -128 c 0
 777.838 -128 851 -28 851 122 c 0
 851 178.368 815.986 222 765 222 c 2
 725 222 l 1
 725 73.1016 655.094 -8 570 -8 c 0
 517.333 -8 477.333 18.6667 450 72 c 1
 428 18.6667 395.667 -8 353 -8 c 0
 297.951 -8 222 30.7342 222 136 c 0
 222 216.667 266.667 257 356 257 c 2
 425 257 l 1
 425 348.026 468.118 450 566 450 c 0
 663.491 450 710.16 360.931 722 257 c 1
 788 257 l 2
 863.894 257 922 202.326 922 110 c 0
 922 12.6667 890.333 -61 827 -111 c 1
652 257 m 1
 652 316.685 621.589 395 552 395 c 0
 489.671 395 458 332.607 458 257 c 1
 652 257 l 1
456 184 m 0
 456 102.9 493.6 41 550 41 c 0
 624.547 41 652 125.827 652 222 c 1
 458 222 l 1
 457 194 l 1
 456.333 191.333 456 188 456 184 c 0
803 -273 m 0
 837.725 -273 869 -247 869 -208 c 0
 869 -168.486 839.452 -142 803.5 -142 c 128
 764.2 -142 738 -172.913 738 -207 c 0
 738 -241.725 764 -273 803 -273 c 0
293 142 m 0
 293 102.355 314.445 41 362 41 c 0
 404 41 425 73 425 137 c 2
 425 222 l 1
 392 222 l 2
 326 222 293 195.333 293 142 c 0
EndSplineSet
LCarets2: 1 0 
Ligature2: "FreeSerif-'psts' Post Base Substitutions in Malay+AQEA-lam subtable" k1r3 u_sign_mal
EndChar

StartChar: k1r3u2
Encoding: 59764 -1 138
Width: 922
Flags: HW
LayerCount: 2
Fore
SplineSet
822 -115 m 1
 876.265 -131.882 923 -184.373 923 -254 c 0
 923 -336.936 856.402 -400 776.5 -400 c 128
 697.954 -400 631 -337.38 631 -254 c 0
 631 -228 637.333 -203.333 650 -180 c 1
 618 -185.333 578.667 -188 532 -188 c 0
 263.134 -188 74 -62.3373 74 190 c 0
 74 291.333 102.667 377.333 160 448 c 1
 188 415 l 1
 141.333 343.667 118 266.667 118 184 c 0
 118 -22.9864 291.179 -128 514 -128 c 0
 626 -128 710.333 -109 767 -71 c 0
 823 -33 851 31.3333 851 122 c 0
 851 176.625 816.6 222 765 222 c 2
 725 222 l 1
 725 73.1016 655.094 -8 570 -8 c 0
 517.333 -8 477.333 18.6667 450 72 c 1
 428 18.6667 395.667 -8 353 -8 c 0
 297.951 -8 222 30.7342 222 136 c 0
 222 216.667 266.667 257 356 257 c 2
 425 257 l 1
 425 349.888 467.528 450 566 450 c 0
 663.491 450 710.16 360.931 722 257 c 1
 788 257 l 2
 865.461 257 922 199.499 922 110 c 0
 922 10 888.667 -65 822 -115 c 1
652 257 m 1
 652 316.685 621.589 395 552 395 c 0
 489.671 395 458 332.607 458 257 c 1
 652 257 l 1
456 184 m 0
 456 102.9 493.6 41 550 41 c 0
 624.547 41 652 125.827 652 222 c 1
 458 222 l 1
 457 194 l 1
 456.333 191.333 456 188 456 184 c 0
766 -251 m 0
 797.2 -251 818 -227.6 818 -199 c 0
 818 -179.8 797.6 -151 767 -151 c 2
 757 -151 l 1
 727 -163 l 1
 718.333 -169.667 714 -181.667 714 -199 c 0
 714 -230.2 737.4 -251 766 -251 c 0
764 -350 m 128
 817.151 -350 862 -309.499 862 -251 c 0
 862 -226.333 855.667 -206.333 843 -191 c 1
 843.667 -193.667 844 -198 844 -204 c 0
 844 -253.526 804.772 -290 759 -290 c 0
 720.261 -290 679.137 -263.628 673 -213 c 1
 668.333 -228.333 666 -240.667 666 -250 c 0
 666 -309.497 710.404 -350 764 -350 c 128
293 142 m 0
 293 102.355 314.445 41 362 41 c 0
 404 41 425 73 425 137 c 2
 425 222 l 1
 392 222 l 2
 326 222 293 195.333 293 142 c 0
EndSplineSet
LCarets2: 1 0 
Ligature2: "FreeSerif-'psts' Post Base Substitutions in Malay+AQEA-lam subtable" k1r3 uu_sign_mal
EndChar

StartChar: k1l3
Encoding: 59765 -1 139
Width: 775
Flags: HW
LayerCount: 2
Fore
SplineSet
641 255 m 2
 726.693 255 776 198.942 776 118 c 0
 776 55.9234 734.55 -10 660 -10 c 0
 634.667 -10 613.667 -3.66667 597 9 c 1
 592 56 l 1
 608.667 45.3333 622 40 632 40 c 0
 679.63 40 704 84.3812 704 130 c 0
 704 169.333 694.667 194 676 204 c 0
 656.667 214.667 626.333 220 585 220 c 2
 578 220 l 1
 578 124.122 540.626 -10 425 -10 c 0
 369.667 -10 329.333 16.6667 304 70 c 1
 282.667 16.6667 250 -10 206 -10 c 0
 126.8 -10 74 55.1797 74 134 c 0
 74 246 153 255 242 255 c 2
 278 255 l 1
 278 322.992 306.4 448 420 448 c 0
 543.2 448 569.403 306.219 574 255 c 1
 641 255 l 2
670 -21 m 1
 753.1 -58.1296 766 -140.911 766 -178 c 0
 766 -287.766 694 -323 646 -323 c 0
 596.326 -323 538 -287.729 538 -204 c 2
 538 -156 l 2
 538 -99.9641 505.809 -48 459 -48 c 0
 444.333 -48 427.333 -55 408 -69 c 1
 460 -111 486 -160.667 486 -218 c 0
 486 -291.763 434.025 -323 395 -323 c 0
 332.451 -323 298 -262.59 298 -194 c 0
 298 -72.0349 388.584 -20 463 -20 c 0
 521.724 -20 589 -54.6415 589 -149 c 2
 589 -192 l 2
 589 -265.525 625.6 -282 650 -282 c 0
 685.314 -282 734 -243.788 734 -171 c 0
 734 -136.996 722.951 -69.304 654 -40 c 1
 670 -21 l 1
506 255 m 1
 506 301.919 483.952 393 406 393 c 128
 330 393 311 301.962 311 255 c 1
 506 255 l 1
310 182 m 0
 310 135.559 328.8 39 404 39 c 0
 485.6 39 506 140.667 506 220 c 1
 311 220 l 1
 310.333 211.333 310 198.667 310 182 c 0
146 140 m 0
 146 98.9781 165.952 39 216 39 c 0
 257.333 39 278 71 278 135 c 2
 278 220 l 1
 245 220 l 2
 179 220 146 193.333 146 140 c 0
400 -280 m 0
 431.782 -280 458 -246.327 458 -207 c 0
 458 -163.667 435 -123.333 389 -86 c 1
 358.6 -116.4 352 -178 352 -201 c 0
 352 -235 361.6 -280 400 -280 c 0
EndSplineSet
LCarets2: 1 0 
Ligature2: "FreeSerif-'blws' Below Base Substitutions in Malay+AQEA-lam subtable" k1xx la_mal
Ligature2: "FreeSerif-'blws' Below Base Substitutions in Malay+AQEA-lam subtable" ka_mal l4
EndChar

StartChar: k1l3u1
Encoding: 59766 -1 140
Width: 775
Flags: HW
LayerCount: 2
Fore
SplineSet
641 255 m 2
 726.693 255 776 198.942 776 118 c 0
 776 55.9234 734.55 -10 660 -10 c 0
 634.667 -10 613.667 -3.66667 597 9 c 1
 592 56 l 1
 608.667 45.3333 622 40 632 40 c 0
 679.63 40 704 84.3812 704 130 c 0
 704 168.667 694.667 193.333 676 204 c 0
 657.333 214.667 628 220 588 220 c 2
 578 220 l 1
 578 124.122 540.626 -10 425 -10 c 0
 369.667 -10 329.333 16.6667 304 70 c 1
 282.667 16.6667 250 -10 206 -10 c 0
 126.8 -10 74 55.1797 74 134 c 0
 74 249 165 255 242 255 c 2
 278 255 l 1
 278 322.992 306.4 448 420 448 c 0
 543.2 448 569.403 306.219 574 255 c 1
 641 255 l 2
713 -302 m 1
 744.376 -317.688 771 -353.662 771 -398 c 0
 771 -463.788 718.756 -510 658 -510 c 0
 597.578 -510 547 -464.513 547 -398 c 0
 547 -359.333 562 -329.333 592 -308 c 1
 556 -287.333 538 -252.667 538 -204 c 2
 538 -156 l 2
 538 -99.9641 505.809 -48 459 -48 c 0
 444.333 -48 427.333 -55 408 -69 c 1
 460 -111 486 -160.667 486 -218 c 0
 486 -291.763 434.025 -323 395 -323 c 0
 332.451 -323 298 -262.59 298 -194 c 0
 298 -72.0349 388.584 -20 463 -20 c 0
 521.724 -20 589 -54.6415 589 -149 c 2
 589 -192 l 2
 589 -265.525 625.6 -282 650 -282 c 0
 685.314 -282 734 -243.788 734 -171 c 0
 734 -136.996 722.951 -69.304 654 -40 c 1
 670 -21 l 1
 753.1 -58.1296 766 -140.911 766 -178 c 0
 766 -233.333 748.333 -274.667 713 -302 c 1
506 255 m 1
 506 301.919 483.952 393 406 393 c 128
 330 393 311 301.962 311 255 c 1
 506 255 l 1
310 182 m 0
 310 135.559 328.8 39 404 39 c 0
 485.6 39 506 140.667 506 220 c 1
 311 220 l 1
 310.333 211.333 310 198.667 310 182 c 0
146 140 m 0
 146 98.9781 165.952 39 216 39 c 0
 257.333 39 278 71 278 135 c 2
 278 220 l 1
 245 220 l 2
 179 220 146 193.333 146 140 c 0
658.5 -450 m 128
 693.482 -450 723 -424.016 723 -386 c 0
 723 -351.956 695.765 -322 658 -322 c 0
 632.1 -322 595 -344.05 595 -386 c 0
 595 -419.638 620.4 -450 658.5 -450 c 128
400 -280 m 0
 431.782 -280 458 -246.327 458 -207 c 0
 458 -163.667 435 -123.333 389 -86 c 1
 358.6 -116.4 352 -178 352 -201 c 0
 352 -235 361.6 -280 400 -280 c 0
EndSplineSet
LCarets2: 1 0 
Ligature2: "FreeSerif-'psts' Post Base Substitutions in Malay+AQEA-lam subtable" k1l3 u_sign_mal
EndChar

StartChar: k1l3u2
Encoding: 59767 -1 141
Width: 775
Flags: HW
LayerCount: 2
Fore
SplineSet
641 255 m 2
 726.693 255 776 198.942 776 118 c 0
 776 55.9234 734.55 -10 660 -10 c 0
 634.667 -10 613.667 -3.66667 597 9 c 1
 592 56 l 1
 608.667 45.3333 622 40 632 40 c 0
 679.63 40 704 84.3812 704 130 c 0
 704 168.667 694.667 193.333 676 204 c 0
 657.333 214.667 628 220 588 220 c 2
 578 220 l 1
 578 124.122 540.626 -10 425 -10 c 0
 369.667 -10 329.333 16.6667 304 70 c 1
 282.667 16.6667 250 -10 206 -10 c 0
 126.8 -10 74 55.1797 74 134 c 0
 74 243 162 255 242 255 c 2
 278 255 l 1
 278 322.992 306.4 448 420 448 c 0
 543.2 448 569.403 306.219 574 255 c 1
 641 255 l 2
712 -302 m 1
 748.058 -320.029 778 -359.422 778 -410 c 0
 778 -478.634 723.427 -533 656 -533 c 0
 590.043 -533 532 -481.994 532 -410 c 0
 532 -364.667 551 -330.667 589 -308 c 1
 555 -284.667 538 -250 538 -204 c 2
 538 -156 l 2
 538 -99.9641 505.809 -48 459 -48 c 0
 444.333 -48 427.333 -55 408 -69 c 1
 460 -111 486 -160.667 486 -218 c 0
 486 -291.763 434.025 -323 395 -323 c 0
 332.451 -323 298 -262.59 298 -194 c 0
 298 -72.0349 388.584 -20 463 -20 c 0
 521.724 -20 589 -54.6415 589 -149 c 2
 589 -192 l 2
 589 -265.525 625.6 -282 650 -282 c 0
 685.314 -282 734 -243.788 734 -171 c 0
 734 -136.996 722.951 -69.304 654 -40 c 1
 670 -21 l 1
 753.1 -58.1296 766 -140.911 766 -178 c 0
 766 -232 748 -273.333 712 -302 c 1
506 255 m 1
 506 301.919 483.952 393 406 393 c 128
 330 393 311 301.962 311 255 c 1
 506 255 l 1
310 182 m 0
 310 135.559 328.8 39 404 39 c 0
 485.6 39 506 140.667 506 220 c 1
 311 220 l 1
 310.333 211.333 310 198.667 310 182 c 0
146 140 m 0
 146 98.9781 165.952 39 216 39 c 0
 257.333 39 278 71 278 135 c 2
 278 220 l 1
 245 220 l 2
 179 220 146 193.333 146 140 c 0
642 -401 m 0
 665.274 -401 685 -382.892 685 -357 c 0
 685 -341.667 678.667 -329.667 666 -321 c 1
 658 -322.333 651.333 -323 646 -323 c 0
 638 -323 629.333 -322 620 -320 c 1
 605.333 -327.333 598 -339.667 598 -357 c 0
 598 -382.499 618.716 -401 642 -401 c 0
646 -481 m 0
 694 -481 736 -449 736 -401 c 0
 736 -381 730 -363.333 718 -348 c 1
 718.667 -350.667 719 -355.333 719 -362 c 0
 719 -403.08 684.919 -436 646 -436 c 0
 607.052 -436 574 -404.347 574 -362 c 0
 574 -354 574.667 -348 576 -344 c 1
 566 -354.667 561 -373.667 561 -401 c 0
 561 -449 601 -481 646 -481 c 0
400 -280 m 0
 431.782 -280 458 -246.327 458 -207 c 0
 458 -163.667 435 -123.333 389 -86 c 1
 358.6 -116.4 352 -178 352 -201 c 0
 352 -235 361.6 -280 400 -280 c 0
EndSplineSet
LCarets2: 1 0 
Ligature2: "FreeSerif-'psts' Post Base Substitutions in Malay+AQEA-lam subtable" k1l3 uu_sign_mal
EndChar

StartChar: k1sh
Encoding: 59768 -1 142
Width: 1233
Flags: HW
LayerCount: 2
Fore
SplineSet
986 217 m 1
 1077.27 243.498 1176.47 359.996 1203 442 c 1
 1234 442 l 1
 1234 2 l 1
 598 2 l 1
 598 19 l 1
 663.97 46.3536 680 98.7028 680 132 c 0
 680 180.55 649.441 222 606 222 c 2
 578 222 l 1
 578 84.5379 516.8 -8 425 -8 c 0
 370.333 -8 330 18.6667 304 72 c 1
 281.333 18.6667 246.667 -8 200 -8 c 0
 126.591 -8 77 67.5004 77 142 c 0
 77 188 100.409 257 221 257 c 2
 278 257 l 1
 278 324.992 306.4 450 420 450 c 0
 543.2 450 569.403 308.219 574 257 c 1
 616 257 l 2
 710.514 257 753 184.732 753 122 c 0
 753 87.3333 741 58.6667 717 36 c 1
 904 36 l 1
 904 180 l 1
 793.69 180 748 259.972 748 326 c 0
 748 387.537 788.294 448 875 448 c 0
 920.2 448 988 415.407 988 274 c 0
 988 251.2 986 234.1 986 217 c 1
1150 294 m 1
 1077.8 207.364 1007.68 189.942 986 186 c 1
 986 36 l 1
 1150 36 l 1
 1150 294 l 1
852 390 m 0
 816.051 390 796 358.545 796 320 c 0
 796 290.125 811.726 220.964 904 214 c 1
 904 328 l 2
 904 375 872.8 390 852 390 c 0
506 257 m 1
 506 312.3 476.62 395 406 395 c 0
 330 395 311 303.962 311 257 c 1
 506 257 l 1
310 184 m 0
 310 139.688 328.8 41 404 41 c 0
 485.6 41 506 142.667 506 222 c 1
 311 222 l 1
 310.333 213.333 310 200.667 310 184 c 0
217 41 m 0
 241.4 41 278 60.2 278 137 c 2
 278 222 l 1
 250 222 l 2
 170 222 150 171 150 137 c 0
 150 90.4287 177.089 41 217 41 c 0
EndSplineSet
LCarets2: 2 0 0 
Ligature2: "FreeSerif-'akhn' Akhand in Malay+AQEA-lam subtable" ka_mal chandrakkala ssa_mal
EndChar

StartChar: k1shu1
Encoding: 59769 -1 143
Width: 1233
Flags: HW
LayerCount: 2
Fore
SplineSet
986 217 m 1
 1077.27 243.498 1176.47 359.996 1203 442 c 1
 1234 442 l 1
 1234 2 l 1
 1204 2 l 1
 1222.67 -16.6667 1232 -41 1232 -71 c 0
 1232 -133.542 1184.5 -188 1116 -188 c 0
 1053.35 -188 1001 -140.383 1001 -71 c 0
 1001 -41.6667 1010.67 -17.3333 1030 2 c 1
 598 2 l 1
 598 19 l 1
 663.97 46.3536 680 98.7028 680 132 c 0
 680 180.55 649.441 222 606 222 c 2
 578 222 l 1
 578 84.5379 516.8 -8 425 -8 c 0
 370.333 -8 330 18.6667 304 72 c 1
 281.333 18.6667 246.667 -8 200 -8 c 0
 126.591 -8 77 67.5004 77 142 c 0
 77 188 100.409 257 221 257 c 2
 278 257 l 1
 278 324.992 306.4 450 420 450 c 0
 543.2 450 569.403 308.219 574 257 c 1
 616 257 l 2
 710.514 257 753 184.732 753 122 c 0
 753 87.3333 741 58.6667 717 36 c 1
 904 36 l 1
 904 180 l 1
 793.69 180 748 259.972 748 326 c 0
 748 387.537 788.294 448 875 448 c 0
 920.2 448 988 415.407 988 274 c 0
 988 251.2 986 234.1 986 217 c 1
1150 294 m 1
 1077.8 207.364 1009.99 190.363 986 186 c 1
 986 36 l 1
 1150 36 l 1
 1150 294 l 1
852 390 m 0
 816.051 390 796 358.545 796 320 c 0
 796 290.125 811.726 220.964 904 214 c 1
 904 328 l 2
 904 375 872.8 390 852 390 c 0
1116.5 -119 m 128
 1151.33 -119 1177 -91.1538 1177 -60 c 0
 1177 -23.4 1149.55 1 1116 1 c 0
 1084.11 1 1057 -24.096 1057 -60 c 0
 1057 -91.2507 1082.05 -119 1116.5 -119 c 128
506 257 m 1
 506 312.3 476.62 395 406 395 c 0
 330 395 311 303.962 311 257 c 1
 506 257 l 1
310 184 m 0
 310 139.688 328.8 41 404 41 c 0
 485.6 41 506 142.667 506 222 c 1
 311 222 l 1
 310.333 213.333 310 200.667 310 184 c 0
217 41 m 0
 241.4 41 278 60.2 278 137 c 2
 278 222 l 1
 250 222 l 2
 170 222 150 171 150 137 c 0
 150 90.4287 177.089 41 217 41 c 0
EndSplineSet
LCarets2: 1 0 
Ligature2: "FreeSerif-'psts' Post Base Substitutions in Malay+AQEA-lam subtable" k1sh u_sign_mal
EndChar

StartChar: k1shu2
Encoding: 59770 -1 144
Width: 1233
Flags: HW
LayerCount: 2
Fore
SplineSet
986 217 m 1
 1077.27 243.498 1176.47 359.996 1203 442 c 1
 1234 442 l 1
 1234 2 l 1
 1194 2 l 1
 1222 -20.6667 1236 -52.6667 1236 -94 c 0
 1236 -178.106 1175.36 -248 1092 -248 c 0
 1005.6 -248 948 -178.325 948 -98 c 0
 948 -54.6667 963.333 -21.3333 994 2 c 1
 598 2 l 1
 598 19 l 1
 663.97 46.3536 680 98.7028 680 132 c 0
 680 180.55 649.441 222 606 222 c 2
 578 222 l 1
 578 84.5379 516.8 -8 425 -8 c 0
 370.333 -8 330 18.6667 304 72 c 1
 281.333 18.6667 246.667 -8 200 -8 c 0
 126.591 -8 77 67.5004 77 142 c 0
 77 188 100.409 257 221 257 c 2
 278 257 l 1
 278 324.992 306.4 450 420 450 c 0
 543.2 450 569.403 308.219 574 257 c 1
 616 257 l 2
 710.514 257 753 184.732 753 122 c 0
 753 87.3333 741 58.6667 717 36 c 1
 904 36 l 1
 904 180 l 1
 793.69 180 748 259.972 748 326 c 0
 748 387.537 788.294 448 875 448 c 0
 920.2 448 988 415.407 988 274 c 0
 988 251.2 986 234.1 986 217 c 1
1150 294 m 1
 1077.8 207.364 1009.99 190.363 986 186 c 1
 986 36 l 1
 1150 36 l 1
 1150 294 l 1
852 390 m 0
 816.051 390 796 358.545 796 320 c 0
 796 290.125 811.726 220.964 904 214 c 1
 904 328 l 2
 904 375 872.8 390 852 390 c 0
1078 -96 m 0
 1105.23 -96 1130 -72.0218 1130 -43 c 0
 1130 -21.7112 1111.3 -3.7653 1094 2 c 1
 1061 2 l 1
 1043.52 -3.82783 1024 -21.2833 1024 -43 c 0
 1024 -74.8 1049.57 -96 1078 -96 c 0
1092 -184 m 0
 1145.81 -184 1190 -143.045 1190 -86 c 0
 1190 -63.3333 1182.67 -42.6667 1168 -24 c 1
 1170.67 -32.6667 1172 -42.6667 1172 -54 c 0
 1172 -106.342 1131.44 -144 1083 -144 c 0
 1050.33 -144 1007.59 -126.675 996 -77 c 1
 995 -86 l 1
 995 -92 l 2
 995 -146.017 1041.96 -184 1092 -184 c 0
506 257 m 1
 506 312.3 476.62 395 406 395 c 0
 330 395 311 303.962 311 257 c 1
 506 257 l 1
310 184 m 0
 310 139.688 328.8 41 404 41 c 0
 485.6 41 506 142.667 506 222 c 1
 311 222 l 1
 310.333 213.333 310 200.667 310 184 c 0
217 41 m 0
 241.4 41 278 60.2 278 137 c 2
 278 222 l 1
 250 222 l 2
 170 222 150 171 150 137 c 0
 150 90.4287 177.089 41 217 41 c 0
EndSplineSet
LCarets2: 1 0 
Ligature2: "FreeSerif-'psts' Post Base Substitutions in Malay+AQEA-lam subtable" k1sh uu_sign_mal
EndChar

StartChar: k1shr1
Encoding: 59771 -1 145
Width: 1304
Flags: HW
LayerCount: 2
Fore
SplineSet
1016 217 m 1
 1097.38 240.427 1236.27 346.876 1266 442 c 1
 1298 442 l 1
 1298 -10 l 2
 1298 -136.761 1282.1 -192.402 1143 -216 c 0
 1103.67 -224 1047 -228 973 -228 c 0
 865.394 -228 736 -208.029 736 -146 c 0
 736 -88.0103 868.058 -73 964 -73 c 0
 1018.67 -73 1072 -85 1124 -109 c 1
 1052 -128 l 1
 1021.33 -114 986.667 -107 948 -107 c 0
 870 -107 831 -118 831 -140 c 0
 831 -168.8 889.4 -188 965 -188 c 0
 1097.67 -188 1176 -168 1200 -128 c 0
 1210 -112 1215 -87.3333 1215 -54 c 0
 1215 -32 l 0
 1214.33 -28.6667 1214 -26.3333 1214 -25 c 2
 1214 2 l 1
 622 2 l 1
 622 9 l 1
 669.195 26.5297 704 79.1505 704 132 c 0
 704 210.251 664.456 222 578 222 c 1
 578 136.813 547.4 -8 425 -8 c 0
 370.333 -8 330 18.6667 304 72 c 1
 282 18.6667 249.333 -8 206 -8 c 0
 126.8 -8 74 56.2 74 136 c 0
 74 248.498 154.986 257 278 257 c 1
 278 346.12 320.928 450 420 450 c 0
 516.026 450 565.852 361.566 574 257 c 1
 641 257 l 2
 749 257 776 176.013 776 120 c 0
 776 84 764 56 740 36 c 1
 933 36 l 1
 933 180 l 1
 846.063 180 774 248.259 774 330 c 0
 774 398.494 832.763 450 900 450 c 0
 994.873 450 1017 382.938 1017 278 c 2
 1017 248 l 2
 1016.33 238.667 1016 228.333 1016 217 c 1
1214 314 m 1
 1171.69 261.436 1077.25 197.137 1016 186 c 1
 1016 36 l 1
 1214 36 l 1
 1214 314 l 1
878 395 m 0
 834.8 395 824 339.3 824 322 c 0
 824 265.521 876.203 218.057 933 214 c 1
 933 333 l 2
 933 374.333 914.667 395 878 395 c 0
506 257 m 1
 506 325.503 469.019 395 406 395 c 0
 343.698 395 311 329.812 311 257 c 1
 506 257 l 1
310 185 m 0
 310 101.868 347.6 41 404 41 c 0
 478.547 41 506 125.827 506 222 c 1
 311 222 l 1
 310.333 209.333 310 197 310 185 c 0
146 142 m 0
 146 97.5461 172.586 41 216 41 c 0
 257.333 41 278 73 278 137 c 2
 278 222 l 1
 245 222 l 2
 179 222 146 195.333 146 142 c 0
EndSplineSet
LCarets2: 1 0 
Ligature2: "FreeSerif-'psts' Post Base Substitutions in Malay+AQEA-lam subtable" k1sh r_voc_mal
EndChar

StartChar: k1shnh
Encoding: 59772 -1 146
Width: 1233
Flags: HW
LayerCount: 2
Fore
SplineSet
986 217 m 1
 1077.27 243.498 1176.47 359.996 1203 442 c 1
 1234 442 l 1
 1234 2 l 1
 598 2 l 1
 598 19 l 1
 663.97 46.3536 680 98.7028 680 132 c 0
 680 180.55 649.441 222 606 222 c 2
 578 222 l 1
 578 84.5379 516.8 -8 425 -8 c 0
 370.333 -8 330 18.6667 304 72 c 1
 281.333 18.6667 246.667 -8 200 -8 c 0
 126.591 -8 77 67.5004 77 142 c 0
 77 188 100.409 257 221 257 c 2
 278 257 l 1
 278 324.992 306.4 450 420 450 c 0
 543.2 450 569.403 308.219 574 257 c 1
 616 257 l 2
 710.514 257 753 184.732 753 122 c 0
 753 87.3333 741 58.6667 717 36 c 1
 904 36 l 1
 904 180 l 1
 793.69 180 748 259.972 748 326 c 0
 748 387.537 788.294 448 875 448 c 0
 920.2 448 988 415.407 988 274 c 0
 988 251.2 986 234.1 986 217 c 1
560 -199 m 0
 560 -78.4381 632.146 -18 730 -18 c 0
 775.333 -18 808.667 -34.6667 830 -68 c 1
 850.667 -36 880.333 -20 919 -20 c 0
 966.333 -20 1000 -35 1020 -65 c 1
 1037.33 -33.6667 1064.67 -18 1102 -18 c 0
 1136 -18 1166.33 -32.3333 1193 -61 c 0
 1220.33 -89 1234 -125.667 1234 -171 c 0
 1234 -212.267 1220.11 -286.513 1139 -322 c 1
 1108 -306 l 1
 1152.05 -278.791 1178 -227.818 1178 -173 c 0
 1178 -81.1305 1125.8 -54 1091 -54 c 0
 1059.4 -54 1034 -74.8 1034 -106 c 2
 1034 -315 l 1
 976 -315 l 1
 976 -134 l 2
 976 -92.1 946.4 -58 902 -58 c 0
 870.65 -58 844 -76.4 844 -104 c 2
 844 -315 l 1
 786 -315 l 1
 786 -118 l 2
 786 -83.2985 746.666 -58 705 -58 c 0
 633 -58 593 -101.333 585 -188 c 1
 602.333 -157.333 626 -142 656 -142 c 0
 688.825 -142 732 -170.656 732 -236 c 0
 732 -304.8 680.775 -322 652 -322 c 0
 591.965 -322 560 -263.389 560 -199 c 0
1150 294 m 1
 1077.8 207.364 1009.99 190.363 986 186 c 1
 986 36 l 1
 1150 36 l 1
 1150 294 l 1
852 390 m 0
 816.051 390 796 358.545 796 320 c 0
 796 290.125 811.726 220.964 904 214 c 1
 904 328 l 2
 904 375 872.8 390 852 390 c 0
506 257 m 1
 506 312.3 476.62 395 406 395 c 0
 330 395 311 303.962 311 257 c 1
 506 257 l 1
310 184 m 0
 310 139.688 328.8 41 404 41 c 0
 485.6 41 506 142.667 506 222 c 1
 311 222 l 1
 310.333 213.333 310 200.667 310 184 c 0
640 -281 m 0
 666.273 -281 687 -261.825 687 -231 c 0
 687 -187 659.7 -176 641.5 -176 c 128
 623.3 -176 596 -188.675 596 -228 c 0
 596 -270.4 622.4 -281 640 -281 c 0
217 41 m 0
 241.4 41 278 60.2 278 137 c 2
 278 222 l 1
 250 222 l 2
 170 222 150 171 150 137 c 0
 150 90.4287 177.089 41 217 41 c 0
EndSplineSet
LCarets2: 4 0 0 0 0 
Ligature2: "FreeSerif-'akhn' Akhand in Malay+AQEA-lam subtable" ka_mal chandrakkala ssa_mal chandrakkala nna_mal
EndChar

StartChar: k1shnhu1
Encoding: 59773 -1 147
Width: 1233
Flags: HW
LayerCount: 2
Fore
SplineSet
986 217 m 1
 1077.27 243.498 1176.47 359.996 1203 442 c 1
 1234 442 l 1
 1234 2 l 1
 598 2 l 1
 598 19 l 1
 663.97 46.3536 680 98.7028 680 132 c 0
 680 180.55 649.441 222 606 222 c 2
 578 222 l 1
 578 84.5379 516.8 -8 425 -8 c 0
 370.333 -8 330 18.6667 304 72 c 1
 281.333 18.6667 246.667 -8 200 -8 c 0
 126.591 -8 77 67.5004 77 142 c 0
 77 188 100.409 257 221 257 c 2
 278 257 l 1
 278 324.992 306.4 450 420 450 c 0
 543.2 450 569.403 308.219 574 257 c 1
 616 257 l 2
 710.514 257 753 184.732 753 122 c 0
 753 87.3333 741 58.6667 717 36 c 1
 904 36 l 1
 904 180 l 1
 793.69 180 748 259.972 748 326 c 0
 748 387.537 788.294 448 875 448 c 0
 920.2 448 988 415.407 988 274 c 0
 988 251.2 986 234.1 986 217 c 1
1077 -21 m 0
 1193.56 -21 1234 -129.456 1234 -199 c 0
 1234 -292.9 1176.4 -322 1138 -322 c 128
 1098.8 -322 1040 -291.437 1040 -200 c 0
 1040 -143.86 1074.98 -92.1096 1110 -65 c 1
 1098.67 -57.6667 1083.33 -54 1064 -54 c 0
 1025.78 -54 982 -69.8562 982 -105 c 2
 984 -316 l 1
 926 -316 l 1
 926 -134 l 2
 926 -74.8 879.75 -60 852 -60 c 0
 819.639 -60 793 -75.6565 793 -104 c 2
 793 -316 l 1
 736 -316 l 1
 736 -119 l 2
 736 -83.6 700.25 -60 654 -60 c 0
 621.051 -60 546.002 -76.554 534 -188 c 1
 553.333 -157.333 576.667 -142 604 -142 c 0
 655.173 -142 683 -192.616 683 -240 c 0
 683 -272.237 667.6 -323 606 -323 c 0
 529.2 -323 510 -248.975 510 -200 c 0
 510 -95.3791 587.72 -20 670.5 -20 c 128
 712.833 -20 749.333 -36.6667 780 -70 c 1
 803.333 -36.6667 836 -20 878 -20 c 0
 916.667 -20 948.333 -35.6667 973 -67 c 1
 1003.67 -36.3333 1038.33 -21 1077 -21 c 0
1150 294 m 1
 1077.8 207.364 1009.99 190.363 986 186 c 1
 986 36 l 1
 1150 36 l 1
 1150 294 l 1
852 390 m 0
 816.051 390 796 358.545 796 320 c 0
 796 290.125 811.726 220.964 904 214 c 1
 904 328 l 2
 904 375 872.8 390 852 390 c 0
1127 -280 m 0
 1149.8 -280 1184 -266.225 1184 -204 c 0
 1184 -165.402 1168.5 -108.246 1131 -77 c 1
 1086.33 -113 1064 -155 1064 -203 c 0
 1064 -258.3 1100.84 -280 1127 -280 c 0
506 257 m 1
 506 312.3 476.62 395 406 395 c 0
 330 395 311 303.962 311 257 c 1
 506 257 l 1
310 184 m 0
 310 139.688 328.8 41 404 41 c 0
 485.6 41 506 142.667 506 222 c 1
 311 222 l 1
 310.333 213.333 310 200.667 310 184 c 0
591 -283 m 0
 619.946 -283 637 -260.795 637 -231.5 c 128
 637 -201.625 619.2 -178 592.5 -178 c 128
 565.736 -178 545 -198.553 545 -227.5 c 128
 545 -255.184 565.764 -283 591 -283 c 0
217 41 m 0
 241.4 41 278 60.2 278 137 c 2
 278 222 l 1
 250 222 l 2
 170 222 150 171 150 137 c 0
 150 90.4287 177.089 41 217 41 c 0
EndSplineSet
LCarets2: 1 0 
Ligature2: "FreeSerif-'psts' Post Base Substitutions in Malay+AQEA-lam subtable" k1shnh u_sign_mal
EndChar

StartChar: k1shnhu2
Encoding: 59774 -1 148
Width: 1233
Flags: HW
LayerCount: 2
Fore
SplineSet
986 217 m 1
 1077.27 243.498 1176.47 359.996 1203 442 c 1
 1234 442 l 1
 1234 2 l 1
 598 2 l 1
 598 19 l 1
 663.97 46.3536 680 98.7028 680 132 c 0
 680 180.55 649.441 222 606 222 c 2
 578 222 l 1
 578 84.5379 516.8 -8 425 -8 c 0
 370.333 -8 330 18.6667 304 72 c 1
 281.333 18.6667 246.667 -8 200 -8 c 0
 126.591 -8 77 67.5004 77 142 c 0
 77 188 100.409 257 221 257 c 2
 278 257 l 1
 278 324.992 306.4 450 420 450 c 0
 543.2 450 569.403 308.219 574 257 c 1
 616 257 l 2
 710.514 257 753 184.732 753 122 c 0
 753 87.3333 741 58.6667 717 36 c 1
 904 36 l 1
 904 180 l 1
 793.69 180 748 259.972 748 326 c 0
 748 387.537 788.294 448 875 448 c 0
 920.2 448 988 415.407 988 274 c 0
 988 251.2 986 234.1 986 217 c 1
448 -202 m 0
 448 -90.1159 526.856 -20 608 -20 c 0
 650 -20 686.667 -37 718 -71 c 1
 742 -37 774 -20 814 -20 c 0
 852.667 -20 884 -36 908 -68 c 1
 935.333 -36 969 -20 1009 -20 c 0
 1064.52 -20 1107.24 -54.1562 1127 -96 c 1
 1209.55 -110.74 1242 -181.359 1242 -247 c 0
 1242 -352.884 1164.09 -423 1076 -423 c 0
 1047.33 -423 1021.33 -416.667 998 -404 c 1
 1010 -373 l 1
 1025.33 -379 1041.67 -382 1059 -382 c 0
 1139.24 -382 1203 -311.294 1203 -229 c 0
 1203 -199.36 1192.6 -150.921 1141 -132 c 1
 1147 -147.333 1150 -168 1150 -194 c 0
 1150 -294.071 1093.6 -324 1056 -324 c 0
 1006.86 -324 968 -286.534 968 -226 c 0
 968 -156.071 1011.71 -106.414 1072 -100 c 1
 1057.33 -70.6667 1032.33 -56 997 -56 c 0
 959.638 -56 922 -75.7881 922 -108 c 2
 922 -318 l 1
 864 -318 l 1
 864 -136 l 2
 864 -76.8 819.6 -62 790 -62 c 0
 756.793 -62 732 -76.1438 732 -106 c 2
 732 -318 l 1
 674 -318 l 1
 674 -120 l 2
 674 -84 636.7 -60 592 -60 c 0
 554.261 -60 482.827 -82.5409 473 -189 c 1
 491.667 -159 514.667 -144 542 -144 c 0
 597.773 -144 621 -199.608 621 -241 c 0
 621 -274.2 605.6 -324 544 -324 c 0
 467.2 -324 448 -247.575 448 -202 c 0
1150 294 m 1
 1077.8 207.364 1009.99 190.363 986 186 c 1
 986 36 l 1
 1150 36 l 1
 1150 294 l 1
852 390 m 0
 816.051 390 796 358.545 796 320 c 0
 796 290.125 811.726 220.964 904 214 c 1
 904 328 l 2
 904 375 872.8 390 852 390 c 0
1048 -281 m 0
 1068 -281 1098 -261.7 1098 -197 c 0
 1098 -169 1093.33 -145 1084 -125 c 1
 1036.01 -131.485 999 -164.018 999 -214 c 0
 999 -262.7 1028.4 -281 1048 -281 c 0
506 257 m 1
 506 312.3 476.62 395 406 395 c 0
 330 395 311 303.962 311 257 c 1
 506 257 l 1
310 184 m 0
 310 139.688 328.8 41 404 41 c 0
 485.6 41 506 142.667 506 222 c 1
 311 222 l 1
 310.333 213.333 310 200.667 310 184 c 0
217 41 m 0
 241.4 41 278 60.2 278 137 c 2
 278 222 l 1
 250 222 l 2
 170 222 150 171 150 137 c 0
 150 90.4287 177.089 41 217 41 c 0
530.5 -285 m 128
 565.3 -285 574 -251.025 574 -232 c 0
 574 -203.62 558.284 -178 530.5 -178 c 128
 502.6 -178 484 -201.125 484 -230 c 0
 484 -256.65 502.6 -285 530.5 -285 c 128
EndSplineSet
LCarets2: 1 0 
Ligature2: "FreeSerif-'psts' Post Base Substitutions in Malay+AQEA-lam subtable" k1shnh uu_sign_mal
EndChar

StartChar: k1shm1
Encoding: 59775 -1 149
Width: 1233
Flags: HW
LayerCount: 2
Fore
SplineSet
934 -210 m 2
 934 -108.435 943.107 -18 1074 -18 c 0
 1171.33 -18 1220 -76.6667 1220 -194 c 2
 1220 -314 l 1
 934 -314 l 1
 934 -210 l 2
986 217 m 1
 1077.27 243.498 1176.47 359.996 1203 442 c 1
 1234 442 l 1
 1234 2 l 1
 598 2 l 1
 598 19 l 1
 663.97 46.3536 680 98.7028 680 132 c 0
 680 180.55 649.441 222 606 222 c 2
 578 222 l 1
 578 84.5379 516.8 -8 425 -8 c 0
 370.333 -8 330 18.6667 304 72 c 1
 281.333 18.6667 246.667 -8 200 -8 c 0
 126.591 -8 77 67.5004 77 142 c 0
 77 188 100.409 257 221 257 c 2
 278 257 l 1
 278 324.992 306.4 450 420 450 c 0
 543.2 450 569.403 308.219 574 257 c 1
 616 257 l 2
 710.514 257 753 184.732 753 122 c 0
 753 87.3333 741 58.6667 717 36 c 1
 904 36 l 1
 904 180 l 1
 793.69 180 748 259.972 748 326 c 0
 748 387.537 788.294 448 875 448 c 0
 920.2 448 988 415.407 988 274 c 0
 988 251.2 986 234.1 986 217 c 1
1150 294 m 1
 1077.8 207.364 1009.99 190.363 986 186 c 1
 986 36 l 1
 1150 36 l 1
 1150 294 l 1
852 390 m 0
 816.051 390 796 358.545 796 320 c 0
 796 290.125 811.726 220.964 904 214 c 1
 904 328 l 2
 904 375 872.8 390 852 390 c 0
1173 -289 m 1
 1173 -186 l 2
 1173 -143.333 1166.67 -110 1154 -86 c 0
 1142 -61.3333 1117.67 -48.3333 1081 -47 c 1
 1109 -68.3333 1123 -94 1123 -124 c 0
 1123 -171.6 1095.9 -209.104 1062 -243 c 2
 1037 -267 l 2
 1028.33 -275 1020 -282.333 1012 -289 c 1
 1173 -289 l 1
1072 -114 m 0
 1072 -90.2 1063.2 -60 1028 -60 c 0
 985.333 -60 964 -107.667 964 -203 c 2
 964 -287 l 1
 1036 -235 1072 -177.333 1072 -114 c 0
506 257 m 1
 506 312.3 476.62 395 406 395 c 0
 330 395 311 303.962 311 257 c 1
 506 257 l 1
310 184 m 0
 310 139.688 328.8 41 404 41 c 0
 485.6 41 506 142.667 506 222 c 1
 311 222 l 1
 310.333 213.333 310 200.667 310 184 c 0
217 41 m 0
 241.4 41 278 60.2 278 137 c 2
 278 222 l 1
 250 222 l 2
 170 222 150 171 150 137 c 0
 150 90.4287 177.089 41 217 41 c 0
EndSplineSet
LCarets2: 4 0 0 0 0 
Ligature2: "FreeSerif-'akhn' Akhand in Malay+AQEA-lam subtable" ka_mal chandrakkala ssa_mal chandrakkala ma_mal
EndChar

StartChar: k1shm1u1
Encoding: 59776 -1 150
Width: 1233
Flags: HW
LayerCount: 2
Fore
SplineSet
986 217 m 1
 1077.27 243.498 1176.47 359.996 1203 442 c 1
 1234 442 l 1
 1234 2 l 1
 598 2 l 1
 598 19 l 1
 663.97 46.3536 680 98.7028 680 132 c 0
 680 180.55 649.441 222 606 222 c 2
 578 222 l 1
 578 84.5379 516.8 -8 425 -8 c 0
 370.333 -8 330 18.6667 304 72 c 1
 281.333 18.6667 246.667 -8 200 -8 c 0
 126.591 -8 77 67.5004 77 142 c 0
 77 188 100.409 257 221 257 c 2
 278 257 l 1
 278 324.992 306.4 450 420 450 c 0
 543.2 450 569.403 308.219 574 257 c 1
 616 257 l 2
 710.514 257 753 184.732 753 122 c 0
 753 87.3333 741 58.6667 717 36 c 1
 904 36 l 1
 904 180 l 1
 793.69 180 748 259.972 748 326 c 0
 748 387.537 788.294 448 875 448 c 0
 920.2 448 988 415.407 988 274 c 0
 988 251.2 986 234.1 986 217 c 1
924 -210 m 2
 924 -107.667 933.688 -18 1064 -18 c 0
 1161.33 -18 1210 -76.6667 1210 -194 c 2
 1210 -314 l 1
 1183 -314 l 1
 1208.33 -331.333 1221 -356 1221 -388 c 0
 1221 -453.68 1169.43 -500 1108.5 -500 c 128
 1047.58 -500 997 -454.765 997 -388 c 128
 997 -356.667 1009.33 -332 1034 -314 c 1
 924 -314 l 1
 924 -210 l 2
1150 294 m 1
 1077.8 207.364 1009.99 190.363 986 186 c 1
 986 36 l 1
 1150 36 l 1
 1150 294 l 1
852 390 m 0
 816.051 390 796 358.545 796 320 c 0
 796 290.125 811.726 220.964 904 214 c 1
 904 328 l 2
 904 375 872.8 390 852 390 c 0
1163 -289 m 1
 1163 -186 l 2
 1163 -103.8 1145.64 -85.3358 1131 -70 c 0
 1116.33 -55.3333 1096 -47.6667 1070 -47 c 1
 1098 -67.6667 1112 -93.3333 1112 -124 c 0
 1112 -148.804 1100.13 -176.74 1089 -199 c 0
 1084.33 -207.667 1074.67 -219.333 1060 -234 c 2
 1033 -261 l 2
 1029.67 -263.667 1019.33 -273 1002 -289 c 1
 1163 -289 l 1
1062 -114 m 0
 1062 -92.4 1053.4 -60 1019 -60 c 0
 975.667 -60 954 -107.667 954 -203 c 2
 954 -287 l 1
 1026 -235 1062 -177.333 1062 -114 c 0
506 257 m 1
 506 312.3 476.62 395 406 395 c 0
 330 395 311 303.962 311 257 c 1
 506 257 l 1
1108 -440 m 0
 1146.67 -440 1173 -411.017 1173 -376 c 0
 1173 -345.549 1150.83 -320.389 1124 -314 c 1
 1094 -314 l 1
 1065.33 -320.825 1045 -348.099 1045 -376 c 0
 1045 -411.25 1070.2 -440 1108 -440 c 0
310 184 m 0
 310 139.688 328.8 41 404 41 c 0
 485.6 41 506 142.667 506 222 c 1
 311 222 l 1
 310.333 213.333 310 200.667 310 184 c 0
217 41 m 0
 241.4 41 278 60.2 278 137 c 2
 278 222 l 1
 250 222 l 2
 170 222 150 171 150 137 c 0
 150 90.4287 177.089 41 217 41 c 0
EndSplineSet
LCarets2: 1 0 
Ligature2: "FreeSerif-'psts' Post Base Substitutions in Malay+AQEA-lam subtable" k1shm1 u_sign_mal
EndChar

StartChar: k1shm1u2
Encoding: 59777 -1 151
Width: 1233
Flags: HW
LayerCount: 2
Fore
SplineSet
986 217 m 1
 1077.27 243.498 1176.47 359.996 1203 442 c 1
 1234 442 l 1
 1234 2 l 1
 598 2 l 1
 598 19 l 1
 663.97 46.3536 680 98.7028 680 132 c 0
 680 180.55 649.441 222 606 222 c 2
 578 222 l 1
 578 84.5379 516.8 -8 425 -8 c 0
 370.333 -8 330 18.6667 304 72 c 1
 281.333 18.6667 246.667 -8 200 -8 c 0
 126.591 -8 77 67.5004 77 142 c 0
 77 188 100.409 257 221 257 c 2
 278 257 l 1
 278 324.992 306.4 450 420 450 c 0
 543.2 450 569.403 308.219 574 257 c 1
 616 257 l 2
 710.514 257 753 184.732 753 122 c 0
 753 87.3333 741 58.6667 717 36 c 1
 904 36 l 1
 904 180 l 1
 793.69 180 748 259.972 748 326 c 0
 748 387.537 788.294 448 875 448 c 0
 920.2 448 988 415.407 988 274 c 0
 988 251.2 986 234.1 986 217 c 1
929 -210 m 2
 929 -106.244 939.072 -18 1070 -18 c 0
 1166.67 -18 1215 -76.6667 1215 -194 c 2
 1215 -314 l 1
 1173 -314 l 1
 1207 -337.333 1224 -369.333 1224 -410 c 0
 1224 -479.716 1167.4 -533 1101 -533 c 0
 1029.33 -533 977 -477.031 977 -410 c 0
 977 -369.333 994 -337.333 1028 -314 c 1
 929 -314 l 1
 929 -210 l 2
1150 294 m 1
 1077.8 207.364 1009.99 190.363 986 186 c 1
 986 36 l 1
 1150 36 l 1
 1150 294 l 1
852 390 m 0
 816.051 390 796 358.545 796 320 c 0
 796 290.125 811.726 220.964 904 214 c 1
 904 328 l 2
 904 375 872.8 390 852 390 c 0
1168 -289 m 1
 1168 -186 l 2
 1168 -132.248 1163.31 -98.6535 1135 -69 c 0
 1121 -55 1101.33 -47.6667 1076 -47 c 1
 1104 -68.3333 1118 -94 1118 -124 c 0
 1118 -171.6 1090.9 -209.104 1057 -243 c 2
 1032 -267 l 2
 1023.33 -275 1015 -282.333 1007 -289 c 1
 1168 -289 l 1
1068 -114 m 0
 1068 -81.6 1050.4 -60 1024 -60 c 0
 980.667 -60 959 -107.667 959 -203 c 2
 959 -287 l 1
 1031.67 -235 1068 -177.333 1068 -114 c 0
506 257 m 1
 506 312.3 476.62 395 406 395 c 0
 330 395 311 303.962 311 257 c 1
 506 257 l 1
1087 -401 m 0
 1109.3 -401 1130 -381.985 1130 -357 c 128
 1130 -335 1114.8 -314 1092 -314 c 2
 1082 -314 l 2
 1060.57 -314 1043 -334.126 1043 -357.5 c 128
 1043 -379.203 1060.61 -401 1087 -401 c 0
1091 -481 m 128
 1137 -481 1181 -449 1181 -401 c 0
 1181 -381 1175 -363.333 1163 -348 c 1
 1163.67 -350.667 1164 -355.333 1164 -362 c 0
 1164 -404.373 1130.93 -436 1092 -436 c 128
 1053.25 -436 1019 -404.85 1019 -362 c 0
 1019 -358 1019.67 -352 1021 -344 c 1
 1011 -355.333 1006 -374.333 1006 -401 c 0
 1006 -449 1046 -481 1091 -481 c 128
310 184 m 0
 310 139.688 328.8 41 404 41 c 0
 485.6 41 506 142.667 506 222 c 1
 311 222 l 1
 310.333 213.333 310 200.667 310 184 c 0
217 41 m 0
 241.4 41 278 60.2 278 137 c 2
 278 222 l 1
 250 222 l 2
 170 222 150 171 150 137 c 0
 150 90.4287 177.089 41 217 41 c 0
EndSplineSet
LCarets2: 1 0 
Ligature2: "FreeSerif-'psts' Post Base Substitutions in Malay+AQEA-lam subtable" k1shm1 uu_sign_mal
EndChar

StartChar: k1shm1r1
Encoding: 59778 -1 152
Width: 1233
Flags: HW
LayerCount: 2
Fore
SplineSet
986 217 m 1
 1077.27 243.498 1176.47 359.996 1203 442 c 1
 1234 442 l 1
 1234 2 l 1
 598 2 l 1
 598 19 l 1
 663.97 46.3536 680 98.7028 680 132 c 0
 680 180.55 649.441 222 606 222 c 2
 578 222 l 1
 578 84.5379 516.8 -8 425 -8 c 0
 370.333 -8 330 18.6667 304 72 c 1
 281.333 18.6667 246.667 -8 200 -8 c 0
 126.591 -8 77 67.5004 77 142 c 0
 77 188 100.409 257 221 257 c 2
 278 257 l 1
 278 324.992 306.4 450 420 450 c 0
 543.2 450 569.403 308.219 574 257 c 1
 616 257 l 2
 710.514 257 753 184.732 753 122 c 0
 753 87.3333 741 58.6667 717 36 c 1
 904 36 l 1
 904 180 l 1
 793.69 180 748 259.972 748 326 c 0
 748 387.537 788.294 448 875 448 c 0
 920.2 448 988 415.407 988 274 c 0
 988 251.2 986 234.1 986 217 c 1
1081 -440 m 0
 1179.55 -440 1181 -380.139 1181 -328 c 2
 1181 -310 l 1
 938 -310 l 1
 938 -174 l 2
 938 -113.105 948.242 -73.9869 985 -44 c 0
 1011 -22.6667 1042.33 -12 1079 -12 c 0
 1176.33 -12 1225 -71 1225 -189 c 2
 1225 -317 l 2
 1225 -364.333 1214.83 -401.333 1194.5 -428 c 128
 1174.17 -454.667 1133.33 -468 1072 -468 c 0
 1022.51 -468 946 -453.427 946 -411 c 0
 946 -365.4 1027.3 -354 1072 -354 c 0
 1111.72 -354 1153.78 -362.828 1169 -375 c 1
 1154 -401 l 1
 1144.83 -388.776 1104.07 -380 1081 -380 c 0
 1056.18 -380 1003 -387.731 1003 -409 c 0
 1003 -429.667 1029 -440 1081 -440 c 0
1150 294 m 1
 1077.8 207.364 1009.99 190.363 986 186 c 1
 986 36 l 1
 1150 36 l 1
 1150 294 l 1
852 390 m 0
 816.051 390 796 358.545 796 320 c 0
 796 290.125 811.726 220.964 904 214 c 1
 904 328 l 2
 904 375 872.8 390 852 390 c 0
1126 -119 m 0
 1126 -160.358 1107.89 -208.589 1015 -286 c 1
 1181 -286 l 1
 1181 -188 l 2
 1181 -72.4375 1141.4 -42 1082 -42 c 1
 1111.33 -66 1126 -91.6667 1126 -119 c 0
1030 -54 m 0
 978 -54 965 -126.469 965 -170 c 2
 965 -286 l 1
 1042.33 -230.667 1081 -172.667 1081 -112 c 0
 1081 -84.975 1060.6 -54 1030 -54 c 0
506 257 m 1
 506 312.3 476.62 395 406 395 c 0
 330 395 311 303.962 311 257 c 1
 506 257 l 1
310 184 m 0
 310 139.688 328.8 41 404 41 c 0
 485.6 41 506 142.667 506 222 c 1
 311 222 l 1
 310.333 213.333 310 200.667 310 184 c 0
217 41 m 0
 241.4 41 278 60.2 278 137 c 2
 278 222 l 1
 250 222 l 2
 170 222 150 171 150 137 c 0
 150 90.4287 177.089 41 217 41 c 0
EndSplineSet
LCarets2: 1 0 
Ligature2: "FreeSerif-'psts' Post Base Substitutions in Malay+AQEA-lam subtable" k1shm1 r_voc_mal
EndChar

StartChar: k1s1
Encoding: 59779 -1 153
Width: 775
Flags: HW
LayerCount: 2
Fore
SplineSet
641 255 m 2
 726.693 255 776 198.942 776 118 c 0
 776 55.9234 734.55 -10 660 -10 c 0
 634.667 -10 613.667 -3.66667 597 9 c 1
 592 56 l 1
 608.667 45.3333 622 40 632 40 c 0
 679.63 40 704 84.3812 704 130 c 0
 704 168.667 694.667 193.333 676 204 c 0
 657.333 214.667 628 220 588 220 c 2
 578 220 l 1
 578 124.122 540.626 -10 425 -10 c 0
 369.667 -10 329.333 16.6667 304 70 c 1
 282.667 16.6667 250 -10 206 -10 c 0
 126.8 -10 74 55.1797 74 134 c 0
 74 243 159 255 242 255 c 2
 278 255 l 1
 278 322.992 306.4 448 420 448 c 0
 543.2 448 569.403 306.219 574 255 c 1
 641 255 l 2
674 -18 m 1
 757.747 -58.1286 768 -141.796 768 -180 c 0
 768 -250.905 731.061 -320 652 -320 c 0
 596.912 -320 540 -281.75 540 -206 c 2
 540 -157 l 2
 540 -71.4602 496.2 -52 467 -52 c 0
 433.07 -52 404 -75.2661 404 -105 c 2
 404 -314 l 1
 347 -314 l 1
 347 -134 l 2
 347 -88.15 323.8 -60 289 -60 c 0
 251.719 -60 203 -95.2055 203 -168 c 0
 203 -234 228 -278.667 278 -302 c 1
 258 -321 l 1
 200 -291 171 -237 171 -159 c 0
 171 -67.2164 235.97 -18 297 -18 c 0
 334.333 -18 365.333 -33.6667 390 -65 c 1
 412.667 -33.6667 442 -18 478 -18 c 0
 530.987 -18 590 -58.65 590 -131 c 2
 590 -188 l 2
 590 -256.6 630.8 -278 658 -278 c 0
 703.6 -278 734 -232.9 734 -170 c 0
 734 -138.402 724.004 -67.5018 654 -36 c 1
 674 -18 l 1
506 255 m 1
 506 301.919 483.952 393 406 393 c 128
 330 393 311 301.962 311 255 c 1
 506 255 l 1
310 182 m 0
 310 135.559 328.8 39 404 39 c 0
 485.6 39 506 140.667 506 220 c 1
 311 220 l 1
 310.333 211.333 310 198.667 310 182 c 0
146 140 m 0
 146 98.9781 165.952 39 216 39 c 0
 257.333 39 278 71 278 135 c 2
 278 220 l 1
 245 220 l 2
 179 220 146 193.333 146 140 c 0
EndSplineSet
LCarets2: 1 0 
Ligature2: "FreeSerif-'pres' Pre Base Substitutions in Malay+AQEA-lam subtable" k1xx sa_mal
EndChar

StartChar: k1s1u1
Encoding: 59780 -1 154
Width: 775
Flags: HW
LayerCount: 2
Fore
SplineSet
641 255 m 2
 726.693 255 776 198.942 776 118 c 0
 776 55.9234 734.55 -10 660 -10 c 0
 634.667 -10 613.667 -3.66667 597 9 c 1
 592 56 l 1
 608.667 45.3333 622 40 632 40 c 0
 679.63 40 704 84.3812 704 130 c 0
 704 168.667 694.667 193.333 676 204 c 0
 657.333 214.667 628 220 588 220 c 2
 578 220 l 1
 578 124.122 540.626 -10 425 -10 c 0
 369.667 -10 329.333 16.6667 304 70 c 1
 282.667 16.6667 250 -10 206 -10 c 0
 126.8 -10 74 55.1797 74 134 c 0
 74 249 162 255 242 255 c 2
 278 255 l 1
 278 322.992 306.4 448 420 448 c 0
 543.2 448 569.403 306.219 574 255 c 1
 641 255 l 2
674 -18 m 1
 757.747 -58.1286 768 -141.796 768 -180 c 0
 768 -235.333 750.333 -276 715 -302 c 1
 752.333 -323.333 771 -355.333 771 -398 c 0
 771 -463.788 718.756 -510 658 -510 c 0
 597.578 -510 547 -464.513 547 -398 c 0
 547 -358.667 563.333 -328 596 -306 c 1
 558.667 -284.667 540 -251.333 540 -206 c 2
 540 -157 l 2
 540 -71.4602 496.2 -52 467 -52 c 0
 433.07 -52 404 -75.2661 404 -105 c 2
 404 -314 l 1
 347 -314 l 1
 347 -134 l 2
 347 -88.15 323.8 -60 289 -60 c 0
 251.719 -60 203 -95.2055 203 -168 c 0
 203 -234 228 -278.667 278 -302 c 1
 258 -321 l 1
 200 -291 171 -237 171 -159 c 0
 171 -67.2164 235.97 -18 297 -18 c 0
 334.333 -18 365.333 -33.6667 390 -65 c 1
 412.667 -33.6667 442 -18 478 -18 c 0
 530.987 -18 590 -58.65 590 -131 c 2
 590 -188 l 2
 590 -256.6 630.8 -278 658 -278 c 0
 703.6 -278 734 -232.9 734 -170 c 0
 734 -138.402 724.004 -67.5018 654 -36 c 1
 674 -18 l 1
506 255 m 1
 506 301.919 483.952 393 406 393 c 128
 330 393 311 301.962 311 255 c 1
 506 255 l 1
310 182 m 0
 310 135.559 328.8 39 404 39 c 0
 485.6 39 506 140.667 506 220 c 1
 311 220 l 1
 310.333 211.333 310 198.667 310 182 c 0
146 140 m 0
 146 98.9781 165.952 39 216 39 c 0
 257.333 39 278 71 278 135 c 2
 278 220 l 1
 245 220 l 2
 179 220 146 193.333 146 140 c 0
658.5 -450 m 128
 693.482 -450 723 -424.016 723 -386 c 0
 723 -352.17 695.779 -322 658.5 -322 c 128
 621.216 -322 595 -351.727 595 -386 c 0
 595 -419.638 620.4 -450 658.5 -450 c 128
EndSplineSet
LCarets2: 1 0 
Ligature2: "FreeSerif-'psts' Post Base Substitutions in Malay+AQEA-lam subtable" k1s1 u_sign_mal
EndChar

StartChar: k1s1u2
Encoding: 59781 -1 155
Width: 775
Flags: HW
LayerCount: 2
Fore
SplineSet
641 255 m 2
 726.693 255 776 198.942 776 118 c 0
 776 55.9234 734.55 -10 660 -10 c 0
 634.667 -10 613.667 -3.66667 597 9 c 1
 592 56 l 1
 608.667 45.3333 622 40 632 40 c 0
 679.63 40 704 84.3812 704 130 c 0
 704 168.667 694.667 193.333 676 204 c 0
 657.333 214.667 628 220 588 220 c 2
 578 220 l 1
 578 124.122 540.626 -10 425 -10 c 0
 369.667 -10 329.333 16.6667 304 70 c 1
 282.667 16.6667 250 -10 206 -10 c 0
 126.8 -10 74 55.1797 74 134 c 0
 74 246 165 255 242 255 c 2
 278 255 l 1
 278 322.992 306.4 448 420 448 c 0
 543.2 448 569.403 306.219 574 255 c 1
 641 255 l 2
714 -302 m 1
 732.949 -312.455 778 -345.2 778 -410 c 0
 778 -478.634 723.427 -533 656 -533 c 0
 590.043 -533 532 -481.994 532 -410 c 0
 532 -364 552.333 -328.667 593 -304 c 1
 557.667 -283.333 540 -250.667 540 -206 c 2
 540 -157 l 2
 540 -71.4602 496.2 -52 467 -52 c 0
 433.07 -52 404 -75.2661 404 -105 c 2
 404 -314 l 1
 347 -314 l 1
 347 -134 l 2
 347 -88.15 323.8 -60 289 -60 c 0
 251.719 -60 203 -95.2055 203 -168 c 0
 203 -234 228 -278.667 278 -302 c 1
 258 -321 l 1
 200 -291 171 -237 171 -159 c 0
 171 -67.2164 235.97 -18 297 -18 c 0
 334.333 -18 365.333 -33.6667 390 -65 c 1
 412.667 -33.6667 442 -18 478 -18 c 0
 530.987 -18 590 -58.65 590 -131 c 2
 590 -188 l 2
 590 -256.6 630.8 -278 658 -278 c 0
 703.6 -278 734 -232.9 734 -170 c 0
 734 -138.402 724.004 -67.5018 654 -36 c 1
 674 -18 l 1
 757.747 -58.1286 768 -141.796 768 -180 c 0
 768 -236 750 -276.667 714 -302 c 1
506 255 m 1
 506 301.919 483.952 393 406 393 c 128
 330 393 311 301.962 311 255 c 1
 506 255 l 1
310 182 m 0
 310 135.559 328.8 39 404 39 c 0
 485.6 39 506 140.667 506 220 c 1
 311 220 l 1
 310.333 211.333 310 198.667 310 182 c 0
146 140 m 0
 146 98.9781 165.952 39 216 39 c 0
 257.333 39 278 71 278 135 c 2
 278 220 l 1
 245 220 l 2
 179 220 146 193.333 146 140 c 0
642 -401 m 0
 665.274 -401 685 -382.892 685 -357 c 0
 685 -341 678 -328.667 664 -320 c 1
 652 -320 l 2
 643.333 -320 634.333 -319 625 -317 c 1
 607 -324.333 598 -337.667 598 -357 c 0
 598 -382.499 618.716 -401 642 -401 c 0
646 -481 m 0
 694 -481 736 -449 736 -401 c 0
 736 -381 730 -363.333 718 -348 c 1
 718.667 -350.667 719 -355.333 719 -362 c 0
 719 -403.08 684.919 -436 646 -436 c 0
 607.052 -436 574 -404.347 574 -362 c 0
 574 -354 574.667 -348 576 -344 c 1
 566 -354.667 561 -373.667 561 -401 c 0
 561 -449 601 -481 646 -481 c 0
EndSplineSet
LCarets2: 1 0 
Ligature2: "FreeSerif-'psts' Post Base Substitutions in Malay+AQEA-lam subtable" k1s1 uu_sign_mal
EndChar

StartChar: k1s1r1
Encoding: 59782 -1 156
Width: 775
Flags: HW
LayerCount: 2
Fore
SplineSet
641 255 m 2
 726.693 255 776 198.942 776 118 c 0
 776 55.9234 734.55 -10 660 -10 c 0
 634.667 -10 613.667 -3.66667 597 9 c 1
 592 56 l 1
 608.667 45.3333 622 40 632 40 c 0
 679.63 40 704 84.3812 704 130 c 0
 704 168.667 694.667 193.333 676 204 c 0
 657.333 214.667 628 220 588 220 c 2
 578 220 l 1
 578 124.122 540.626 -10 425 -10 c 0
 369.667 -10 329.333 16.6667 304 70 c 1
 282.667 16.6667 250 -10 206 -10 c 0
 126.8 -10 74 55.1797 74 134 c 0
 74 249 171 255 242 255 c 2
 278 255 l 1
 278 322.992 306.4 448 420 448 c 0
 543.2 448 569.403 306.219 574 255 c 1
 641 255 l 2
646 -285 m 0
 696.4 -285 730 -230.2 730 -169 c 0
 730 -112.333 707.333 -71 662 -45 c 1
 684 -22 l 1
 744 -74 774 -148 774 -244 c 0
 774 -433.38 659.4 -470 583 -470 c 0
 540.812 -470 438 -459.8 438 -419 c 0
 438 -389 502.794 -369 591 -369 c 0
 625 -369 657.333 -374.667 688 -386 c 1
 658 -408 l 1
 632 -401 l 2
 614.667 -396.333 601.667 -394 593 -394 c 2
 587 -394 l 2
 529.667 -394 501 -401.667 501 -417 c 0
 501 -437.216 557.409 -441 583 -441 c 0
 677.393 -441 732 -377.012 732 -279 c 1
 712 -311.667 682 -328 642 -328 c 0
 601.2 -328 544.759 -301.534 540 -200 c 0
 540 -180.8 538.224 -132.007 532 -104 c 0
 522 -74.6667 500 -60 466 -60 c 0
 443.65 -60 404 -69.8 404 -109 c 2
 404 -319 l 1
 347 -319 l 1
 347 -138 l 2
 347 -80.975 314 -65 292 -65 c 0
 254.727 -65 200 -102.744 200 -184 c 0
 200 -214.853 211.42 -278.978 278 -308 c 1
 259 -327 l 1
 179.668 -288.215 169 -209.879 169 -176 c 0
 169 -76.8426 235.024 -21 298 -21 c 0
 332 -21 362.667 -37 390 -69 c 1
 412 -37.6667 441 -22 477 -22 c 0
 531.372 -22 591 -69.1351 591 -163 c 2
 591 -180 l 2
 590.333 -187.333 590 -192.667 590 -196 c 0
 590 -271.4 623.6 -285 646 -285 c 0
506 255 m 1
 506 301.919 483.952 393 406 393 c 128
 330 393 311 301.962 311 255 c 1
 506 255 l 1
310 182 m 0
 310 135.559 328.8 39 404 39 c 0
 485.6 39 506 140.667 506 220 c 1
 311 220 l 1
 310.333 211.333 310 198.667 310 182 c 0
146 140 m 0
 146 98.9781 165.952 39 216 39 c 0
 257.333 39 278 71 278 135 c 2
 278 220 l 1
 245 220 l 2
 179 220 146 193.333 146 140 c 0
EndSplineSet
LCarets2: 1 0 
Ligature2: "FreeSerif-'psts' Post Base Substitutions in Malay+AQEA-lam subtable" k1s1 r_voc_mal
EndChar

StartChar: k1rhrh
Encoding: 59783 -1 157
Width: 775
Flags: HW
LayerCount: 2
Fore
SplineSet
641 255 m 2
 726.693 255 776 198.942 776 118 c 0
 776 55.9234 734.55 -10 660 -10 c 0
 634.667 -10 613.667 -3.66667 597 9 c 1
 592 56 l 1
 608.667 45.3333 622 40 632 40 c 0
 679.63 40 704 84.3812 704 130 c 0
 704 169.333 694.667 194 676 204 c 0
 656.667 214.667 626.333 220 585 220 c 2
 578 220 l 1
 578 124.122 540.626 -10 425 -10 c 0
 369.667 -10 329.333 16.6667 304 70 c 1
 282.667 16.6667 250 -10 206 -10 c 0
 126.8 -10 74 55.1797 74 134 c 0
 74 237 159 255 242 255 c 2
 278 255 l 1
 278 322.992 306.4 448 420 448 c 0
 543.2 448 569.403 306.219 574 255 c 1
 641 255 l 2
632 -22 m 0
 698.454 -22 770 -66.2936 770 -172 c 0
 770 -243.986 727.451 -300.863 669 -324 c 1
 648 -295 l 1
 692 -273.667 714 -237.333 714 -186 c 0
 714 -110.086 662.177 -79 616 -79 c 0
 561.098 -79 515 -116.662 515 -188 c 0
 515 -219.531 525.48 -278.367 587 -304 c 1
 574 -324 l 1
 522.67 -299.502 482 -245.982 482 -178 c 0
 482 -69.3414 564.547 -22 632 -22 c 0
302 -22 m 0
 368.454 -22 440 -66.2936 440 -172 c 0
 440 -240.582 399.184 -300.177 339 -324 c 1
 318 -295 l 1
 362 -273.667 384 -237.333 384 -186 c 0
 384 -110.086 332.177 -79 286 -79 c 0
 231.098 -79 185 -116.662 185 -188 c 0
 185 -219.531 195.48 -278.367 257 -304 c 1
 244 -324 l 1
 192.67 -299.502 152 -245.982 152 -178 c 0
 152 -69.3414 234.547 -22 302 -22 c 0
506 255 m 1
 506 301.919 483.952 393 406 393 c 128
 330 393 311 301.962 311 255 c 1
 506 255 l 1
310 182 m 0
 310 135.559 328.8 39 404 39 c 0
 485.6 39 506 140.667 506 220 c 1
 311 220 l 1
 310.333 211.333 310 198.667 310 182 c 0
146 140 m 0
 146 98.9781 165.952 39 216 39 c 0
 257.333 39 278 71 278 135 c 2
 278 220 l 1
 245 220 l 2
 179 220 146 193.333 146 140 c 0
EndSplineSet
LCarets2: 4 0 0 0 0 
Ligature2: "FreeSerif-'akhn' Akhand in Malay+AQEA-lam subtable" ka_mal chandrakkala rra_mal chandrakkala rra_mal
EndChar

StartChar: k1rhrhu1
Encoding: 59784 -1 158
Width: 775
Flags: HW
LayerCount: 2
Fore
SplineSet
641 255 m 2
 726.693 255 776 198.942 776 118 c 0
 776 55.9234 734.55 -10 660 -10 c 0
 634.667 -10 613.667 -3.66667 597 9 c 1
 592 56 l 1
 608.667 45.3333 622 40 632 40 c 0
 679.63 40 704 84.3812 704 130 c 0
 704 168.667 694.667 193.333 676 204 c 0
 657.333 214.667 628 220 588 220 c 2
 578 220 l 1
 578 124.122 540.626 -10 425 -10 c 0
 369.667 -10 329.333 16.6667 304 70 c 1
 282.667 16.6667 250 -10 206 -10 c 0
 126.8 -10 74 55.1797 74 134 c 0
 74 234 156 255 242 255 c 2
 278 255 l 1
 278 322.992 306.4 448 420 448 c 0
 543.2 448 569.403 306.219 574 255 c 1
 641 255 l 2
692 -289 m 1
 742.071 -299.541 780 -343.225 780 -398 c 0
 780 -458.723 731.406 -510 669 -510 c 0
 603.162 -510 557 -458.516 557 -398 c 0
 557 -337.4 600.437 -306.927 621 -297 c 1
 619 -295 l 1
 662.333 -273.667 684 -237.333 684 -186 c 0
 684 -110.086 632.177 -79 586 -79 c 0
 547.925 -79 484 -100.8 484 -188 c 0
 484 -216.8 494.969 -278.154 557 -304 c 1
 544 -324 l 1
 465.477 -286.523 453 -211.732 453 -178 c 0
 453 -69.4624 532.973 -22 602 -22 c 0
 668.454 -22 740 -66.2936 740 -172 c 128
 740 -220 724 -259 692 -289 c 1
270 -22 m 0
 336.454 -22 408 -66.2936 408 -172 c 0
 408 -243.986 365.451 -300.863 307 -324 c 1
 287 -295 l 1
 324.92 -276.04 351 -232.25 351 -186 c 0
 351 -112.689 302.396 -79 253 -79 c 128
 201.806 -79 152 -113.506 152 -188 c 0
 152 -218.2 162.969 -278.154 225 -304 c 1
 212 -324 l 1
 133.477 -286.523 121 -211.732 121 -178 c 0
 121 -69.4624 200.973 -22 270 -22 c 0
506 255 m 1
 506 301.919 483.952 393 406 393 c 128
 330 393 311 301.962 311 255 c 1
 506 255 l 1
310 182 m 0
 310 135.559 328.8 39 404 39 c 0
 485.6 39 506 140.667 506 220 c 1
 311 220 l 1
 310.333 211.333 310 198.667 310 182 c 0
146 140 m 0
 146 98.9781 165.952 39 216 39 c 0
 257.333 39 278 71 278 135 c 2
 278 220 l 1
 245 220 l 2
 179 220 146 193.333 146 140 c 0
669 -450 m 0
 703.134 -450 732 -423.803 732 -386 c 0
 732 -348.799 702.596 -322 669 -322 c 0
 631.197 -322 604 -351.96 604 -386 c 0
 604 -421.01 630.328 -450 669 -450 c 0
EndSplineSet
LCarets2: 1 0 
Ligature2: "FreeSerif-'psts' Post Base Substitutions in Malay+AQEA-lam subtable" k1rhrh u_sign_mal
EndChar

StartChar: k1rhrhu2
Encoding: 59785 -1 159
Width: 775
Flags: HW
LayerCount: 2
Fore
SplineSet
641 255 m 2
 726.693 255 776 198.942 776 118 c 0
 776 55.9234 734.55 -10 660 -10 c 0
 634.667 -10 613.667 -3.66667 597 9 c 1
 592 56 l 1
 608.667 45.3333 622 40 632 40 c 0
 679.63 40 704 84.3812 704 130 c 0
 704 168.667 694.667 193.333 676 204 c 0
 657.333 214.667 628 220 588 220 c 2
 578 220 l 1
 578 124.122 540.626 -10 425 -10 c 0
 369.667 -10 329.333 16.6667 304 70 c 1
 282.667 16.6667 250 -10 206 -10 c 0
 126.8 -10 74 55.1797 74 134 c 0
 74 246 162 255 242 255 c 2
 278 255 l 1
 278 322.992 306.4 448 420 448 c 0
 543.2 448 569.403 306.219 574 255 c 1
 641 255 l 2
682 -290 m 1
 741.775 -303.121 778 -356.025 778 -410 c 0
 778 -478.634 723.427 -533 656 -533 c 0
 590.043 -533 532 -481.994 532 -410 c 0
 532 -355.361 565.573 -313.771 610 -296 c 1
 608 -295 l 1
 652 -273.667 674 -237.333 674 -186 c 0
 674 -110.086 622.177 -79 576 -79 c 0
 521.098 -79 475 -116.662 475 -188 c 0
 475 -219.531 485.48 -278.367 547 -304 c 1
 534 -324 l 1
 482.67 -299.502 442 -245.982 442 -178 c 0
 442 -69.3414 524.547 -22 592 -22 c 0
 658.454 -22 730 -66.2936 730 -172 c 0
 730 -220.667 714 -260 682 -290 c 1
262 -22 m 0
 328.454 -22 400 -66.2936 400 -172 c 0
 400 -240.582 359.184 -300.177 299 -324 c 1
 278 -295 l 1
 322 -273.667 344 -237.333 344 -186 c 0
 344 -110.086 292.177 -79 246 -79 c 0
 191.098 -79 145 -116.662 145 -188 c 0
 145 -219.531 155.48 -278.367 217 -304 c 1
 204 -324 l 1
 152.67 -299.502 112 -245.982 112 -178 c 0
 112 -71.4476 191.692 -22 262 -22 c 0
506 255 m 1
 506 301.919 483.952 393 406 393 c 128
 330 393 311 301.962 311 255 c 1
 506 255 l 1
310 182 m 0
 310 135.559 328.8 39 404 39 c 0
 485.6 39 506 140.667 506 220 c 1
 311 220 l 1
 310.333 211.333 310 198.667 310 182 c 0
146 140 m 0
 146 98.9781 165.952 39 216 39 c 0
 257.333 39 278 71 278 135 c 2
 278 220 l 1
 245 220 l 2
 179 220 146 193.333 146 140 c 0
642 -401 m 0
 665.274 -401 685 -382.892 685 -357 c 0
 685 -339.8 674.1 -318.82 650 -314 c 1
 645.333 -316.667 638.333 -320 629 -324 c 1
 624 -317 l 1
 606.667 -324.333 598 -337.667 598 -357 c 0
 598 -382.499 618.716 -401 642 -401 c 0
646 -481 m 0
 694 -481 736 -449 736 -401 c 0
 736 -381 730 -363.333 718 -348 c 1
 718.667 -350.667 719 -355.333 719 -362 c 0
 719 -403.08 684.919 -436 646 -436 c 0
 607.052 -436 574 -404.347 574 -362 c 0
 574 -354 574.667 -348 576 -344 c 1
 566 -354.667 561 -373.667 561 -401 c 0
 561 -449 601 -481 646 -481 c 0
EndSplineSet
LCarets2: 1 0 
Ligature2: "FreeSerif-'psts' Post Base Substitutions in Malay+AQEA-lam subtable" k1rhrh uu_sign_mal
EndChar

StartChar: k2u1
Encoding: 59786 -1 160
Width: 798
Flags: HW
LayerCount: 2
Fore
SplineSet
311 450 m 0
 427.586 450 542 371.887 542 229 c 0
 542 157 513.333 92 456 34 c 1
 715 34 l 1
 715 440 l 1
 798 440 l 1
 798 0 l 1
 760 0 l 1
 784.667 -23.3333 797 -52 797 -86 c 0
 797 -155.6 744.8 -202 681 -202 c 0
 613.054 -202 564 -148.659 564 -86 c 0
 564 -51.3333 577 -22.6667 603 0 c 1
 358 0 l 1
 358 22 l 1
 452.556 88.7455 460 181.234 460 212 c 0
 460 331.983 373.495 396 289 396 c 0
 262.096 396 129.223 386.866 108 192 c 1
 112 190 l 1
 142 238 177 262 217 262 c 0
 299.652 262 334 180.085 334 119 c 0
 334 69.3656 310 -12 214 -12 c 0
 121.333 -12 77 72.2795 77 173 c 0
 77 263.667 100 332.667 146 380 c 0
 191.333 426.667 246.333 450 311 450 c 0
681 -134 m 0
 713.116 -134 740 -108.003 740 -74 c 0
 740 -41.6626 716.979 -14 681 -14 c 0
 645 -14 621 -42.5 621 -74 c 0
 621 -110 649.5 -134 681 -134 c 0
194 47 m 0
 254 47 269 99.6125 269 130 c 0
 269 173.282 243.194 213 198 213 c 0
 160.435 213 126 184.622 126 132 c 0
 126 64 166.8 47 194 47 c 0
EndSplineSet
LCarets2: 1 0 
Ligature2: "FreeSerif-'psts' Post Base Substitutions in Malay+AQEA-lam subtable" kha_mal u_sign_mal
EndChar

StartChar: k2u2
Encoding: 59787 -1 161
Width: 798
Flags: HW
LayerCount: 2
Fore
SplineSet
311 450 m 0
 427.586 450 542 371.887 542 229 c 0
 542 157 513.333 92 456 34 c 1
 715 34 l 1
 715 440 l 1
 798 440 l 1
 798 0 l 1
 751 0 l 1
 781.667 -26 797 -60.6667 797 -104 c 0
 797 -186.431 739 -258 652 -258 c 0
 565.6 -258 508 -188.325 508 -108 c 0
 508 -62.6667 524.333 -26.6667 557 0 c 1
 358 0 l 1
 358 22 l 1
 452.556 88.7455 460 181.234 460 212 c 0
 460 331.983 373.495 396 289 396 c 0
 262.096 396 129.223 386.866 108 192 c 1
 112 190 l 1
 142 238 177 262 217 262 c 0
 299.652 262 334 180.085 334 119 c 0
 334 69.3656 310 -12 214 -12 c 0
 121.333 -12 77 72.2795 77 173 c 0
 77 263.667 100 332.667 146 380 c 0
 191.333 426.667 246.333 450 311 450 c 0
638 -106 m 0
 669.2 -106 690 -82.6 690 -54 c 0
 690 -24.6 661.25 -5 638 -5 c 0
 610.023 -5 585 -28.139 585 -54 c 0
 585 -82.205 608.082 -106 638 -106 c 0
652 -194 m 0
 704.718 -194 750 -153.45 750 -96 c 0
 750 -73.3333 742.667 -52.6667 728 -34 c 1
 730.667 -47.3333 732 -57.3333 732 -64 c 0
 732 -111.815 695.94 -154 643 -154 c 0
 600.012 -154 565.078 -125.907 556 -87 c 1
 555 -96 l 1
 555 -102 l 2
 555 -151.687 597.845 -194 652 -194 c 0
194 47 m 0
 254 47 269 99.6125 269 130 c 0
 269 173.282 243.194 213 198 213 c 0
 160.435 213 126 184.622 126 132 c 0
 126 64 166.8 47 194 47 c 0
EndSplineSet
LCarets2: 1 0 
Ligature2: "FreeSerif-'psts' Post Base Substitutions in Malay+AQEA-lam subtable" kha_mal uu_sign_mal
EndChar

StartChar: k2r1
Encoding: 59788 -1 162
Width: 777
Flags: HW
LayerCount: 2
Fore
SplineSet
77 177 m 0
 77 321.839 165.976 450 302 450 c 0
 367.333 450 422.667 427.667 468 383 c 0
 515.333 338.333 539 283.667 539 219 c 0
 539 154.333 511.333 93.3333 456 36 c 1
 694 36 l 1
 694 442 l 1
 776 442 l 1
 776 -10 l 2
 776 -93.3333 760 -150 728 -180 c 0
 694.667 -212 637 -228 555 -228 c 0
 478.538 -228 324 -212 324 -148 c 0
 324 -92 457 -78 534 -78 c 0
 586 -78 634.333 -84.6667 679 -98 c 1
 608 -119 l 1
 585.333 -113.667 562 -111 538 -111 c 0
 454.667 -111 413 -122.667 413 -146 c 0
 413 -179.6 505.6 -188 534 -188 c 0
 600.667 -188 645.333 -172 668 -140 c 0
 686.667 -113.333 696 -66 696 2 c 1
 358 2 l 1
 358 24 l 1
 423.333 71.3333 456 130.667 456 202 c 0
 456 302.378 388.8 395 288 395 c 0
 182.532 395 119.832 301.804 108 194 c 1
 112 192 l 1
 138.361 233.26 161.267 264 217 264 c 0
 282.969 264 335 190.022 335 121 c 0
 335 43.0482 289.531 -8 219 -8 c 0
 126.315 -8 77 73.732 77 177 c 0
198 48 m 0
 235.393 48 269 82.4403 269 128 c 0
 269 178.317 239.346 215 200 215 c 0
 157.637 215 126 180.334 126 134 c 0
 126 88.5188 161.146 48 198 48 c 0
EndSplineSet
LCarets2: 1 0 
Ligature2: "FreeSerif-'psts' Post Base Substitutions in Malay+AQEA-lam subtable" kha_mal r_voc_mal
EndChar

StartChar: k3u1
Encoding: 59789 -1 163
Width: 691
Flags: HW
LayerCount: 2
Fore
SplineSet
497 446 m 0
 649.8 446 688 327.038 688 244 c 0
 688 128.309 617.745 -6 492 -6 c 2
 180 -6 l 2
 136.4 -6 123 -30 123 -46 c 0
 123 -63.2 138.7 -89 180 -89 c 2
 677 -89 l 1
 677 -161 l 1
 180 -161 l 2
 105.564 -161 72 -107.083 72 -60 c 0
 72 -23.2 95.9 32 180 32 c 2
 458 32 l 2
 509.333 32 549.333 53 578 95 c 0
 607.333 136.333 622 184 622 238 c 0
 622 319.101 583.763 398 505 398 c 0
 471 398 420 372.418 420 250 c 2
 420 202 l 2
 416.791 92.9096 324.235 56 260 56 c 0
 174.179 56 74 112.64 74 253 c 0
 74 319.143 105.672 416.311 215 448 c 1
 236 428 l 1
 142.875 401.86 116 315.769 116 259 c 0
 116 156.274 187.862 106 246 106 c 0
 296.194 106 342 143.575 342 226 c 0
 342 257.6 339 289.2 339 305 c 0
 339 399.002 418.18 446 497 446 c 0
EndSplineSet
LCarets2: 1 0 
Ligature2: "FreeSerif-'psts' Post Base Substitutions in Malay+AQEA-lam subtable" ga_mal u_sign_mal
EndChar

StartChar: k3u2
Encoding: 59790 -1 164
Width: 693
Flags: HW
LayerCount: 2
Fore
SplineSet
343 316 m 2
 343 420 441.677 446 510 446 c 0
 566 446 610 432.667 642 406 c 0
 676.667 378 694 348 694 316 c 0
 694 278.667 672.667 248 630 224 c 1
 672.667 204 694 170.667 694 124 c 0
 694 71.2 654.836 -8 517 -8 c 2
 180 -8 l 2
 134.4 -8 123 -29.6 123 -44 c 0
 123 -60.8 138.6 -86 180 -86 c 2
 692 -86 l 1
 692 -158 l 1
 180 -158 l 2
 102.506 -158 72 -102.404 72 -58 c 0
 72 -20.4 94.775 36 180 36 c 2
 488 36 l 2
 591.958 36 612 86.4 612 120 c 0
 612 159.71 584.633 202 552 202 c 2
 526 202 l 1
 526 238 l 1
 552 238 l 2
 588.438 238 614 271.116 614 312 c 0
 614 347.2 592.8 400 508 400 c 0
 469.336 400 420 380.4 420 302 c 2
 420 218 l 2
 420 109.422 336.288 58 259 58 c 0
 180.669 58 74 108.873 74 256 c 0
 74 343.837 127.977 425.224 215 452 c 1
 236 431 l 1
 165.114 409.09 116 341.649 116 263 c 0
 116 152.561 192.706 108 247 108 c 0
 285.4 108 343 132 343 222 c 2
 343 316 l 2
EndSplineSet
LCarets2: 1 0 
Ligature2: "FreeSerif-'psts' Post Base Substitutions in Malay+AQEA-lam subtable" ga_mal uu_sign_mal
EndChar

StartChar: k3r1
Encoding: 59791 -1 165
Width: 707
Flags: HW
LayerCount: 2
Fore
SplineSet
504 450 m 0
 639.705 450 711 305.219 711 154 c 0
 711 49.6622 677.536 -38.6388 630 -104 c 0
 605.745 -137.129 525.6 -228 369 -228 c 0
 292.473 -228 161 -217.297 161 -144 c 0
 161 -91.4285 301.719 -81 358 -81 c 0
 430 -81 491.333 -92.3333 542 -115 c 1
 502 -147 l 1
 460 -124.333 414 -113 364 -113 c 0
 320.2 -113 246 -119.8 246 -147 c 0
 246 -174.333 288 -188 372 -188 c 0
 558.797 -188 642 -21.36 642 143 c 0
 642 278.859 587.6 389 506 389 c 0
 444.667 389 414 317 414 173 c 0
 414 79.4516 351.6 -8 258 -8 c 0
 137.825 -8 72 101.145 72 216 c 0
 72 314.182 119.065 407.957 214 450 c 1
 236 425 l 1
 155.828 392.388 114 310.217 114 225 c 0
 114 134.353 161.119 54 250 54 c 0
 331.708 54 341 145.06 341 222 c 2
 341 257 l 2
 341 373.562 398.22 450 504 450 c 0
EndSplineSet
LCarets2: 1 0 
Ligature2: "FreeSerif-'psts' Post Base Substitutions in Malay+AQEA-lam subtable" ga_mal r_voc_mal
EndChar

